<svg width="24" height="18" viewBox="0 0 24 18" fill="none" xmlns="http://www.w3.org/2000/svg">
<path d="M16.3752 11.8154C16.1166 11.8154 15.8686 11.9181 15.6857 12.1009C15.5029 12.2838 15.4002 12.5318 15.4002 12.7904C15.4002 13.049 15.5029 13.2969 15.6857 13.4798C15.8686 13.6626 16.1166 13.7654 16.3752 13.7654H19.2918C19.5504 13.7654 19.7984 13.6626 19.9813 13.4798C20.1641 13.2969 20.2668 13.049 20.2668 12.7904C20.2668 12.5318 20.1641 12.2838 19.9813 12.1009C19.7984 11.9181 19.5504 11.8154 19.2918 11.8154H16.3752ZM1.37334 1.87187C0.64351 2.6017 0.233496 3.59156 0.233496 4.6237V13.3737C0.233496 14.4058 0.64351 15.3957 1.37334 16.1255C2.10317 16.8554 3.09303 17.2654 4.12516 17.2654H19.8752C20.3862 17.2654 20.8923 17.1647 21.3644 16.9691C21.8366 16.7736 22.2656 16.4869 22.627 16.1255C22.9884 15.7641 23.275 15.3351 23.4706 14.863C23.6662 14.3908 23.7668 13.8848 23.7668 13.3737V4.6237C23.7668 4.11264 23.6662 3.60658 23.4706 3.13442C23.275 2.66226 22.9884 2.23325 22.627 1.87187C22.2656 1.5105 21.8366 1.22384 21.3644 1.02827C20.8923 0.832692 20.3862 0.732031 19.8752 0.732031H4.12516C3.09303 0.732031 2.10317 1.14204 1.37334 1.87187ZM21.8168 4.6237V5.98203H2.1835V4.6237C2.1835 4.10874 2.38806 3.61487 2.7522 3.25073C3.11633 2.8866 3.6102 2.68203 4.12516 2.68203H19.8752C20.3901 2.68203 20.884 2.8866 21.2481 3.25073C21.6123 3.61487 21.8168 4.10874 21.8168 4.6237ZM2.1835 13.3737V7.93203H21.8168V13.3737C21.8168 13.8887 21.6123 14.3825 21.2481 14.7467C20.884 15.1108 20.3901 15.3154 19.8752 15.3154H4.12516C3.05339 15.3154 2.1835 14.4455 2.1835 13.3737Z" fill="#1D1D1D" stroke="#1D1D1D" stroke-width="0.2"/>
</svg>
