<svg width="319" height="213" viewBox="0 0 319 213" fill="none" xmlns="http://www.w3.org/2000/svg">
<path d="M233.038 27.6059C233.038 27.6059 228.191 41.9063 233.369 50.1699C238.548 58.4336 241.338 86.3153 233.56 101.719C225.782 117.123 196.859 118.346 196.859 118.346L223.709 91.2386L225.479 72.9886L221.256 41.1074L227.079 26.4375L233.038 27.6009" fill="#B94187"/>
<path d="M233.038 27.6072C233.038 27.6072 230.79 18.2401 220.652 31.6916C207.105 49.6669 228.459 73.5741 216.809 85.8922C207.402 95.8385 197.133 88.1791 192.124 108.217C187.116 128.249 207.168 116.181 207.168 116.181C207.168 116.181 233.077 101.905 230.585 84.1246C228.088 66.344 224.211 46.2416 225.66 39.4609C227.108 32.6752 229.858 31.0774 233.048 27.6072H233.038Z" fill="#F1B7DE"/>
<path opacity="0.4" d="M222.699 112.59C224.499 111.093 225.144 108.852 224.139 107.585C223.134 106.318 220.86 106.504 219.06 108.001C217.26 109.498 216.615 111.738 217.62 113.006C218.625 114.273 220.899 114.087 222.699 112.59Z" fill="#F1B7DE"/>
<path opacity="0.4" d="M231.641 104.23C232.895 102.233 232.824 99.8978 231.483 99.0149C230.142 98.1319 228.038 99.0352 226.784 101.032C225.53 103.029 225.601 105.364 226.942 106.247C228.283 107.13 230.387 106.227 231.641 104.23Z" fill="#F1B7DE"/>
<path opacity="0.4" d="M237.209 90.0872C237.8 87.7912 237.029 85.5928 235.487 85.1769C233.945 84.761 232.217 86.2851 231.626 88.581C231.035 90.877 231.806 93.0754 233.348 93.4914C234.89 93.9073 236.618 92.3832 237.209 90.0872Z" fill="#F1B7DE"/>
<path opacity="0.4" d="M234.445 81.8333C236.033 81.6868 237.152 79.651 236.944 77.2862C236.736 74.9215 235.28 73.1233 233.692 73.2698C232.104 73.4164 230.985 75.4522 231.193 77.8169C231.401 80.1816 232.857 81.9798 234.445 81.8333Z" fill="#F1B7DE"/>
<path d="M149.631 100.848C149.631 100.848 109.771 126.902 83.292 135.939C56.8128 144.977 50.7953 156.741 49.0203 162.533C47.2501 168.325 42.1006 153.261 42.1006 153.261L63.4302 130.667L119.329 108.073L149.626 100.848H149.631Z" fill="#B94187"/>
<path d="M265.705 53.852C265.705 53.852 265.705 70.4192 268.646 83.9756C271.586 97.532 274.532 120.88 261.292 138.955C248.053 157.03 224.514 160.041 206.861 144.228C189.209 128.41 187.736 124.645 183.323 117.115C178.909 109.585 166.406 96.0291 160.52 96.0291C154.634 96.0291 182.586 99.04 182.586 99.04L206.125 122.388L230.4 135.19L247.316 129.164L256.143 112.596L251.73 78.7029V54.6009L257.615 48.5742L265.705 53.847V53.852Z" fill="#B94187"/>
<path d="M73.5877 118.356C73.5877 118.356 44.1973 119.829 39.8914 90.7488C36.2146 65.8929 39.8914 62.8821 29.5923 65.8929C19.2933 68.9038 40.6277 58.3633 40.6277 58.3633L59.0168 74.9305L70.0523 104.305L73.5877 118.356Z" fill="#B94187"/>
<path d="M106.831 96.0226C106.831 96.0226 86.603 108.451 77.7766 100.167C68.9502 91.8833 62.328 83.5996 60.1239 70.0432C57.9148 56.4868 41.7348 54.2249 33.6447 57.2408C25.5547 60.2517 25.5547 69.2893 25.5547 71.5512C25.5547 73.8131 27.0274 76.07 29.9679 70.7972C32.9084 65.5244 32.9084 62.5136 36.5901 62.5136C40.2718 62.5136 44.6801 66.2784 46.1528 74.562C47.6255 82.8457 55.3791 122.137 79.8199 118.307C104.261 114.477 116.398 104.311 116.398 104.311L106.835 96.0276L106.831 96.0226Z" fill="#EB80CE"/>
<path opacity="0.4" d="M45.7014 79.3424C45.7079 76.9681 44.4207 75.0396 42.8263 75.0351C41.232 75.0305 39.9342 76.9516 39.9277 79.3259C39.9213 81.7002 41.2085 83.6287 42.8029 83.6333C44.3972 83.6378 45.695 81.7167 45.7014 79.3424Z" fill="#F1B7DE"/>
<path opacity="0.4" d="M45.3466 96.9361C46.9223 96.6867 47.9123 94.5823 47.558 92.2358C47.2036 89.8894 45.639 88.1894 44.0634 88.4389C42.4878 88.6884 41.4977 90.7928 41.8521 93.1392C42.2064 95.4857 43.771 97.1856 45.3466 96.9361Z" fill="#F1B7DE"/>
<path opacity="0.4" d="M53.0127 108.945C54.3934 108.129 54.5729 105.8 53.4135 103.744C52.254 101.688 50.1948 100.682 48.8141 101.499C47.4333 102.315 47.2539 104.643 48.4133 106.7C49.5727 108.756 51.6319 109.761 53.0127 108.945Z" fill="#F1B7DE"/>
<path opacity="0.2" d="M101.447 112.476C95.8294 114.728 88.6122 116.925 79.8151 118.313C77.6061 118.658 75.5336 118.643 73.583 118.343L73.5927 118.368C73.5927 118.368 51.5707 119.467 42.8613 100.902C58.6464 122.892 95.6733 102.81 95.6733 102.81L101.447 112.481V112.476Z" fill="#8D467E"/>
<path opacity="0.2" d="M101.447 112.476C95.8294 114.728 88.6122 116.925 79.8151 118.313C77.6061 118.658 75.5336 118.643 73.583 118.343L73.5927 118.368C73.5927 118.368 51.5707 119.467 42.8613 100.902C58.6464 122.892 95.6733 102.81 95.6733 102.81L101.447 112.481V112.476Z" fill="#8D467E"/>
<path d="M94.3223 110.334C94.3223 110.334 72.9927 111.088 68.5796 80.2108C64.1664 49.3332 81.6728 11.7148 81.6728 11.7148L86.0616 17.2073L89.4751 61.6463L105.353 91.5103L94.3175 110.339" fill="#B94187"/>
<path d="M99.8427 104.686C99.8427 104.686 84.3941 101.675 80.7172 76.8195C77.0404 51.9636 84.3941 18.8291 84.3941 18.8291L61.1919 15.7084C61.1919 15.7084 72.198 2.27183 80.7172 6.78064C91.382 12.4279 89.9093 22.9734 89.9093 22.9734C89.9093 22.9734 90.2751 51.9686 95.4246 61.7602C100.574 71.5517 111.512 83.8349 117.856 87.7445C124.201 91.6542 120.431 105.445 120.431 105.445L99.8378 104.691L99.8427 104.686Z" fill="#F1B7DE"/>
<path opacity="0.4" d="M77.341 55.3195C77.6105 52.6311 76.3651 50.2979 74.5594 50.1082C72.7536 49.9184 71.0714 51.9439 70.8019 54.6323C70.5324 57.3207 71.7778 59.6538 73.5835 59.8436C75.3892 60.0334 77.0715 58.0079 77.341 55.3195Z" fill="#F1B7DE"/>
<path opacity="0.4" d="M77.3449 68.8781C77.6144 66.1897 76.369 63.8565 74.5633 63.6668C72.7575 63.477 71.0753 65.5025 70.8058 68.1909C70.5363 70.8793 71.7817 73.2124 73.5874 73.4022C75.3931 73.592 77.0754 71.5664 77.3449 68.8781Z" fill="#F1B7DE"/>
<path opacity="0.4" d="M75.6002 86.9224C77.3903 86.6147 78.4873 84.2047 78.0503 81.5395C77.6133 78.8743 75.8079 76.9632 74.0177 77.2709C72.2276 77.5787 71.1306 79.9887 71.5676 82.6539C72.0046 85.3191 73.81 87.2302 75.6002 86.9224Z" fill="#F1B7DE"/>
<path opacity="0.4" d="M81.3011 99.3073C82.9354 98.4983 83.329 95.8701 82.1803 93.437C81.0316 91.0039 78.7755 89.6873 77.1412 90.4962C75.507 91.3052 75.1133 93.9334 76.2621 96.3665C77.4108 98.7996 79.6668 100.116 81.3011 99.3073Z" fill="#F1B7DE"/>
<path opacity="0.2" d="M120.436 105.441L99.8423 104.687C99.8423 104.687 99.1352 104.542 97.9893 104.083L94.3271 110.334C94.3271 110.334 72.9975 111.088 68.5843 80.2104C68.3209 78.3579 68.1454 76.5104 68.0479 74.668C68.0869 74.7578 68.1308 74.8477 68.1649 74.9376C83.9646 111.767 102.758 91.4449 114.189 83.9752C115.306 84.9688 115.306 87.3655 116.3 87.9747C122.649 91.8843 120.44 105.441 120.44 105.441H120.436Z" fill="#8D467E"/>
<path d="M67.0582 39.0959C67.0582 39.0959 54.9938 37.1286 55.1206 29.5989C55.2474 22.0693 61.5283 13.8306 66.6388 11.3889C89.4411 0.50387 90.1336 18.7239 89.9629 26.6879C89.9629 26.6879 86.2958 22.5985 81.0438 21.1455C77.8888 20.2717 74.4265 20.5314 71.4129 23.5872C59.6216 35.5408 67.0582 39.0909 67.0582 39.0909V39.0959Z" fill="#F1B7DE"/>
<path d="M217.526 22.1895V67.063C217.526 81.608 206.013 93.3918 191.813 93.3918H135.933C116.818 93.3918 101.311 77.5136 101.311 57.9405V26.3289C101.311 23.1033 101.876 20.0175 102.915 17.1614C106.548 7.1402 115.974 0 127.029 0H195.86C207.827 0 217.531 9.93137 217.531 22.1895H217.526Z" fill="#F1B7DE"/>
<path d="M101.671 64.0619C101.671 64.0619 105.358 81.7177 115.657 86.9855C115.657 86.9855 101.315 103.932 71.891 115.981C42.4713 128.029 35.8491 139.329 35.8491 148.366C35.8491 157.404 40.2623 163.431 42.4713 166.441C44.6804 169.452 46.8845 168.703 49.0936 164.18C51.3026 159.661 43.2077 154.388 56.4473 140.832C69.6868 127.275 116.028 117.484 135.148 108.446C154.274 99.4084 157.214 95.6436 168.981 97.1465C180.748 98.6495 185.161 109.949 189.574 115.976C193.988 122.002 201.341 134.051 220.467 140.832C239.592 147.612 247.682 145.35 255.036 131.04C262.39 116.73 260.922 105.435 258.713 94.1357C256.504 82.8362 251.359 51.9585 255.772 51.9585C260.185 51.9585 260.185 60.9961 268.275 62.5041C276.366 64.012 273.425 52.7125 269.012 47.4397C264.599 42.167 260.922 39.9101 255.772 45.1779C250.623 50.4506 245.473 59.4882 248.419 82.0822C251.359 104.676 250.628 118.233 235.179 126.516C219.73 134.8 199.873 112.96 199.137 96.3926C199.137 96.3926 218.433 84.3591 217.609 65.1454C216.79 45.9318 101.667 64.0519 101.667 64.0519L101.671 64.0619Z" fill="#F1B7DE"/>
<path d="M139.108 71.9207C152.918 71.9207 164.114 60.457 164.114 46.3158C164.114 32.1746 152.918 20.7109 139.108 20.7109C125.297 20.7109 114.101 32.1746 114.101 46.3158C114.101 60.457 125.297 71.9207 139.108 71.9207Z" fill="#B94187"/>
<path d="M191.802 69.6648C204.802 69.6648 215.341 58.874 215.341 45.5629C215.341 32.2517 204.802 21.4609 191.802 21.4609C178.802 21.4609 168.264 32.2517 168.264 45.5629C168.264 58.874 178.802 69.6648 191.802 69.6648Z" fill="#B94187"/>
<path d="M139.108 68.9043C152.027 68.9043 162.5 58.1805 162.5 44.9521C162.5 31.7237 152.027 21 139.108 21C126.188 21 115.715 31.7237 115.715 44.9521C115.715 58.1805 126.188 68.9043 139.108 68.9043Z" fill="#F3F3F3"/>
<path d="M191.803 66.9424C204.067 66.9424 214.01 56.7619 214.01 44.2036C214.01 31.6453 204.067 21.4648 191.803 21.4648C179.538 21.4648 169.595 31.6453 169.595 44.2036C169.595 56.7619 179.538 66.9424 191.803 66.9424Z" fill="#F3F3F3"/>
<path d="M143.847 64.053C154.149 64.053 162.5 55.5022 162.5 44.9543C162.5 34.4063 154.149 25.8555 143.847 25.8555C133.546 25.8555 125.195 34.4063 125.195 44.9543C125.195 55.5022 133.546 64.053 143.847 64.053Z" fill="#989898"/>
<path d="M188.843 63.912C199.473 63.912 208.09 55.0884 208.09 44.204C208.09 33.3196 199.473 24.4961 188.843 24.4961C178.213 24.4961 169.595 33.3196 169.595 44.204C169.595 55.0884 178.213 63.912 188.843 63.912Z" fill="#989898"/>
<path d="M147.251 60.5667C155.673 60.5667 162.5 52.966 162.5 43.59C162.5 34.214 155.673 26.6133 147.251 26.6133C138.83 26.6133 132.002 34.214 132.002 43.59C132.002 52.966 138.83 60.5667 147.251 60.5667Z" fill="black"/>
<path d="M184.844 59.8128C193.265 59.8128 200.093 52.212 200.093 42.8361C200.093 33.4601 193.265 25.8594 184.844 25.8594C176.422 25.8594 169.595 33.4601 169.595 42.8361C169.595 52.212 176.422 59.8128 184.844 59.8128Z" fill="black"/>
<path d="M138.411 60.4282C140.599 57.4933 140.242 53.4482 137.613 51.3933C134.985 49.3383 131.08 50.0517 128.891 52.9866C126.703 55.9215 127.06 59.9666 129.689 62.0216C132.318 64.0765 136.223 63.3631 138.411 60.4282Z" fill="white"/>
<path d="M140.736 50.8653C141.881 50.8653 142.809 49.9152 142.809 48.7432C142.809 47.5712 141.881 46.6211 140.736 46.6211C139.591 46.6211 138.664 47.5712 138.664 48.7432C138.664 49.9152 139.591 50.8653 140.736 50.8653Z" fill="white"/>
<path d="M187.259 60.8969C189.447 57.962 189.09 53.9169 186.461 51.862C183.832 49.8071 179.927 50.5205 177.739 53.4554C175.551 56.3903 175.908 60.4354 178.537 62.4903C181.165 64.5452 185.07 63.8319 187.259 60.8969Z" fill="white"/>
<path d="M189.584 51.3223C190.728 51.3223 191.656 50.3722 191.656 49.2002C191.656 48.0282 190.728 47.0781 189.584 47.0781C188.439 47.0781 187.511 48.0282 187.511 49.2002C187.511 50.3722 188.439 51.3223 189.584 51.3223Z" fill="white"/>
<path d="M166.543 72.8082C169.314 72.8082 171.561 71.7039 171.561 70.3416C171.561 68.9793 169.314 67.875 166.543 67.875C163.771 67.875 161.525 68.9793 161.525 70.3416C161.525 71.7039 163.771 72.8082 166.543 72.8082Z" fill="#F17467"/>
<path d="M268.28 62.508C260.19 61 260.19 51.9625 255.777 51.9625C255.679 51.9625 255.587 51.9774 255.499 52.0174C255.44 51.5031 255.411 50.9838 255.411 50.4595C255.411 48.2076 255.943 46.0705 256.898 44.1382C261.482 40.2685 264.93 42.5653 269.021 47.4437C273.434 52.7164 276.375 64.0109 268.285 62.508H268.28Z" fill="#F1B7DE"/>
<path opacity="0.4" d="M61.2872 146.129C63.245 144.857 64.1396 142.708 63.2853 141.33C62.431 139.952 60.1513 139.866 58.1935 141.138C56.2356 142.41 55.341 144.559 56.1953 145.937C57.0496 147.316 59.3293 147.402 61.2872 146.129Z" fill="#F1B7DE"/>
<path opacity="0.4" d="M72.3228 139.34C74.2807 138.068 75.1753 135.919 74.321 134.541C73.4667 133.163 71.187 133.077 69.2291 134.349C67.2712 135.621 66.3766 137.77 67.2309 139.148C68.0852 140.527 70.365 140.613 72.3228 139.34Z" fill="#F1B7DE"/>
<path opacity="0.4" d="M266.081 81.3952C266.081 84.0715 264.623 86.2436 262.828 86.2436C261.029 86.2436 259.576 84.0715 259.576 81.3952C259.576 78.7189 261.034 76.5469 262.828 76.5469C264.623 76.5469 266.081 78.7189 266.081 81.3952Z" fill="#F1B7DE"/>
<path opacity="0.4" d="M82.0791 134.354C84.2498 133.519 85.555 131.604 84.9943 130.075C84.4335 128.547 82.2193 127.985 80.0486 128.82C77.8779 129.655 76.5727 131.571 77.1334 133.099C77.6941 134.627 79.9084 135.189 82.0791 134.354Z" fill="#F1B7DE"/>
<path opacity="0.4" d="M94.5825 130.593C96.7532 129.758 98.0584 127.842 97.4977 126.314C96.937 124.785 94.7227 124.223 92.552 125.058C90.3813 125.893 89.0761 127.809 89.6368 129.337C90.1975 130.866 92.4118 131.428 94.5825 130.593Z" fill="#F1B7DE"/>
<path opacity="0.4" d="M106.009 125.355C107.787 124.671 108.855 123.102 108.396 121.85C107.936 120.598 106.123 120.137 104.346 120.821C102.568 121.504 101.5 123.074 101.959 124.326C102.419 125.578 104.232 126.038 106.009 125.355Z" fill="#F1B7DE"/>
<path opacity="0.4" d="M216.391 146.921C217.355 145.621 216.64 143.403 214.794 141.967C212.947 140.531 210.669 140.42 209.704 141.72C208.74 143.02 209.455 145.238 211.301 146.675C213.148 148.111 215.427 148.221 216.391 146.921Z" fill="#F1B7DE"/>
<path opacity="0.4" d="M231.112 149.8C231.468 148.209 229.924 146.489 227.664 145.959C225.404 145.429 223.283 146.289 222.927 147.88C222.571 149.472 224.115 151.191 226.375 151.721C228.635 152.252 230.756 151.391 231.112 149.8Z" fill="#F1B7DE"/>
<path opacity="0.4" d="M240.118 151.744C242.389 151.266 243.97 149.581 243.649 147.982C243.327 146.383 241.225 145.475 238.954 145.954C236.683 146.432 235.102 148.117 235.424 149.716C235.745 151.315 237.847 152.223 240.118 151.744Z" fill="#F1B7DE"/>
<path opacity="0.4" d="M253.632 144.583C255.006 142.67 255.077 140.335 253.792 139.369C252.508 138.402 250.353 139.169 248.98 141.083C247.607 142.996 247.535 145.331 248.82 146.297C250.105 147.264 252.259 146.497 253.632 144.583Z" fill="#F1B7DE"/>
<path opacity="0.4" d="M260.988 135.548C262.361 133.635 262.433 131.3 261.148 130.333C259.863 129.367 257.708 130.134 256.335 132.047C254.962 133.961 254.891 136.295 256.175 137.262C257.46 138.229 259.615 137.461 260.988 135.548Z" fill="#F1B7DE"/>
<path opacity="0.4" d="M266.712 123.666C267.378 121.077 266.511 118.598 264.774 118.129C263.037 117.66 261.088 119.379 260.422 121.968C259.755 124.557 260.622 127.036 262.359 127.505C264.096 127.974 266.045 126.255 266.712 123.666Z" fill="#F1B7DE"/>
<path opacity="0.4" d="M269.026 110.009C269.026 112.685 267.568 114.857 265.774 114.857C263.974 114.857 262.521 112.685 262.521 110.009C262.521 107.332 263.979 105.16 265.774 105.16C267.568 105.16 269.026 107.332 269.026 110.009Z" fill="#F1B7DE"/>
<path opacity="0.4" d="M268.29 94.9499C268.29 97.6262 266.832 99.7983 265.037 99.7983C263.238 99.7983 261.785 97.6262 261.785 94.9499C261.785 92.2736 263.243 90.1016 265.037 90.1016C266.832 90.1016 268.29 92.2736 268.29 94.9499Z" fill="#F1B7DE"/>
<path opacity="0.4" d="M206.349 138.691C207.313 137.391 206.598 135.173 204.751 133.736C202.905 132.3 200.626 132.19 199.662 133.49C198.697 134.79 199.412 137.008 201.259 138.444C203.106 139.88 205.384 139.991 206.349 138.691Z" fill="#F1B7DE"/>
<path opacity="0.4" d="M197.354 131.316C198.558 130.245 198.301 127.924 196.781 126.132C195.26 124.339 193.052 123.753 191.848 124.824C190.644 125.894 190.901 128.215 192.421 130.008C193.942 131.801 196.15 132.386 197.354 131.316Z" fill="#F1B7DE"/>
<path opacity="0.4" d="M189.553 120.628C190.757 119.558 190.5 117.237 188.98 115.444C187.459 113.651 185.251 113.066 184.047 114.136C182.843 115.206 183.1 117.528 184.62 119.32C186.14 121.113 188.349 121.699 189.553 120.628Z" fill="#F1B7DE"/>
<path opacity="0.4" d="M180.661 110.544C181.647 109.668 181.437 107.767 180.192 106.299C178.947 104.831 177.139 104.352 176.152 105.229C175.166 106.106 175.376 108.006 176.621 109.474C177.866 110.942 179.674 111.421 180.661 110.544Z" fill="#F1B7DE"/>
<path d="M268.28 62.508C260.19 61 260.19 51.9625 255.777 51.9625C255.679 51.9625 255.587 51.9774 255.499 52.0174C255.44 51.5031 255.411 50.9838 255.411 50.4595C255.411 48.2076 255.943 46.0705 256.898 44.1382C261.482 40.2685 264.93 42.5653 269.021 47.4437C273.434 52.7164 276.375 64.0109 268.285 62.508H268.28Z" fill="#F1B7DE"/>
<path d="M141.4 6.40258C144.65 6.40258 147.285 5.72746 147.285 4.89465C147.285 4.06184 144.65 3.38672 141.4 3.38672C138.149 3.38672 135.514 4.06184 135.514 4.89465C135.514 5.72746 138.149 6.40258 141.4 6.40258Z" fill="#EB80CE"/>
<path d="M155.376 10.9182C158.626 10.9182 161.261 10.2431 161.261 9.41027C161.261 8.57747 158.626 7.90234 155.376 7.90234C152.125 7.90234 149.49 8.57747 149.49 9.41027C149.49 10.2431 152.125 10.9182 155.376 10.9182Z" fill="#EB80CE"/>
<path d="M161.993 4.89867C165.243 4.89867 167.879 4.22355 167.879 3.39074C167.879 2.55794 165.243 1.88281 161.993 1.88281C158.742 1.88281 156.107 2.55794 156.107 3.39074C156.107 4.22355 158.742 4.89867 161.993 4.89867Z" fill="#EB80CE"/>
<path d="M166.406 17.6995C169.657 17.6995 172.292 17.0243 172.292 16.1915C172.292 15.3587 169.657 14.6836 166.406 14.6836C163.156 14.6836 160.521 15.3587 160.521 16.1915C160.521 17.0243 163.156 17.6995 166.406 17.6995Z" fill="#EB80CE"/>
<path d="M173.765 10.1721C177.015 10.1721 179.651 9.49699 179.651 8.66418C179.651 7.83137 177.015 7.15625 173.765 7.15625C170.514 7.15625 167.879 7.83137 167.879 8.66418C167.879 9.49699 170.514 10.1721 173.765 10.1721Z" fill="#EB80CE"/>
<path d="M181.855 4.89867C185.105 4.89867 187.741 4.22355 187.741 3.39074C187.741 2.55794 185.105 1.88281 181.855 1.88281C178.604 1.88281 175.969 2.55794 175.969 3.39074C175.969 4.22355 178.604 4.89867 181.855 4.89867Z" fill="#EB80CE"/>
<path opacity="0.32" d="M171.556 93.011L140.156 93.3855H135.933C116.818 93.3855 101.311 77.5073 101.311 57.9342V26.3276C101.311 23.102 101.876 20.0162 102.915 17.1602C104.392 33.5327 100.56 66.7471 122.274 79.4497C142.356 91.1985 163.222 93.3506 171.556 93.0061V93.011Z" fill="#EB80CE"/>
<path d="M243.332 178.082C236.798 180.918 229.459 181.113 222.788 178.631L218.438 177.013C215.097 175.77 213.727 171.676 215.639 168.605C218.999 163.207 224.904 159.642 231.619 159.672C237.432 159.697 242.615 162.413 246.053 166.662C249.111 170.442 247.745 176.169 243.332 178.087V178.082Z" fill="#8F2631"/>
<path d="M287.567 182.265C281.032 185.101 273.693 185.296 267.022 182.815L262.672 181.197C259.332 179.954 257.962 175.859 259.873 172.788C263.233 167.391 269.138 163.826 275.853 163.856C281.666 163.881 286.85 166.597 290.288 170.846C293.345 174.626 291.98 180.353 287.567 182.27V182.265Z" fill="#8F2631"/>
<path d="M294.74 166.711L284.324 165.223L219.116 155.896C208.885 155.536 200.873 146.983 201.209 136.782L202.682 92.5929C203.023 82.3969 211.591 74.4178 221.822 74.7773L301.026 77.5435C311.256 77.903 319.273 86.4563 318.932 96.6573L314.597 141.446L313.875 148.896C313.534 159.092 304.966 167.071 294.735 166.716L294.74 166.711Z" fill="#EE9737"/>
<path d="M288.254 164.124L223.944 154.737C215.244 154.432 208.432 146.962 208.729 138.055L210.016 99.4476C210.314 90.5398 217.609 83.5644 226.309 83.869L293.672 86.2207C302.372 86.5253 309.184 93.9951 308.887 102.903L304.547 148.54C304.249 157.448 296.954 164.423 288.254 164.119V164.124Z" fill="#F3F9E6"/>
<path opacity="0.31" d="M294.74 166.711L284.324 165.224L281.593 95.8438L309.203 98.3453L314.601 141.441L313.88 148.891C313.538 159.087 304.97 167.066 294.74 166.711Z" fill="#84420A"/>
<path opacity="0.49" d="M294.74 166.711L284.324 165.223L219.116 155.896C208.885 155.536 200.873 146.983 201.209 136.782L202.682 92.5929C203.023 82.3969 211.591 74.4178 221.822 74.7773L301.026 77.5435C311.256 77.903 319.273 86.4563 318.932 96.6573L314.597 141.446L313.875 148.896C313.534 159.092 304.966 167.071 294.735 166.716L294.74 166.711Z" fill="#F4650F"/>
<path d="M296.151 90.0311L219.892 78.0548C210.042 76.5079 200.833 83.4297 199.322 93.515L192.776 137.218C191.265 147.304 198.025 156.733 207.875 158.28L284.133 170.257C293.983 171.803 303.192 164.882 304.703 154.796L311.249 111.093C312.76 101.008 306 91.578 296.151 90.0311Z" fill="#FFC600"/>
<path d="M254.714 124.62C252.92 136.588 242.25 144.842 230.883 143.054C227.079 142.455 223.676 140.812 220.906 138.436C217.312 135.355 214.771 131.056 213.767 126.222C213.235 123.646 213.138 120.925 213.552 118.153C215.347 106.185 226.016 97.9362 237.378 99.7188C248.745 101.506 256.509 112.656 254.714 124.62Z" fill="#EE9737"/>
<path d="M294.14 130.815C292.346 142.783 281.676 151.037 270.309 149.25C266.506 148.65 263.102 147.008 260.332 144.631C256.738 141.55 254.197 137.251 253.193 132.418C252.661 129.841 252.564 127.12 252.978 124.349C254.773 112.38 265.443 104.132 276.805 105.914C288.172 107.702 295.935 118.851 294.14 130.815Z" fill="#EE9737"/>
<path d="M255.051 122.377C253.256 134.346 242.586 142.6 231.219 140.812C227.416 140.213 224.012 138.57 221.242 136.193C217.648 133.113 215.108 128.814 214.103 123.98C213.571 121.404 213.474 118.682 213.888 115.911C215.683 103.943 226.353 95.694 237.715 97.4766C249.082 99.2641 256.845 110.414 255.051 122.377Z" fill="#F3F9E6"/>
<path d="M252.854 119.228C254.427 108.726 247.575 98.9358 237.55 97.3614C227.525 95.7869 218.122 103.024 216.549 113.527C214.976 124.029 221.828 133.819 231.853 135.394C241.878 136.968 251.281 129.731 252.854 119.228Z" fill="black"/>
<path d="M222.949 134.902C222.422 135.421 221.847 135.855 221.242 136.2C217.648 133.119 215.108 128.82 214.103 123.986C217.083 121.695 221.15 121.814 223.588 124.406C226.245 127.232 225.963 131.931 222.949 134.902Z" fill="white"/>
<path d="M227.63 124.404C228.958 124.404 230.034 123.302 230.034 121.942C230.034 120.583 228.958 119.48 227.63 119.48C226.302 119.48 225.226 120.583 225.226 121.942C225.226 123.302 226.302 124.404 227.63 124.404Z" fill="white"/>
<path d="M294.476 128.573C292.682 140.541 282.012 148.795 270.645 147.007C266.842 146.408 263.438 144.765 260.668 142.389C257.074 139.308 254.533 135.009 253.529 130.175C252.997 127.599 252.9 124.878 253.314 122.107C255.109 110.138 265.778 101.889 277.141 103.672C288.508 105.459 296.271 116.609 294.476 128.573Z" fill="#F3F9E6"/>
<path d="M292.276 125.428C293.85 114.925 286.998 105.135 276.973 103.561C266.947 101.986 257.545 109.224 255.972 119.726C254.398 130.228 261.25 140.019 271.275 141.593C281.301 143.167 290.703 135.93 292.276 125.428Z" fill="black"/>
<path d="M262.375 141.093C261.848 141.612 261.273 142.047 260.668 142.391C257.074 139.31 254.533 135.011 253.529 130.178C256.508 127.886 260.575 128.006 263.014 130.597C265.671 133.423 265.388 138.122 262.375 141.093Z" fill="white"/>
<path d="M267.052 130.599C268.379 130.599 269.456 129.497 269.456 128.137C269.456 126.778 268.379 125.676 267.052 125.676C265.724 125.676 264.647 126.778 264.647 128.137C264.647 129.497 265.724 130.599 267.052 130.599Z" fill="white"/>
<path d="M199.21 102.633C199.21 102.633 211.665 126.425 210.143 136.636C208.622 146.847 199.708 155.38 193.968 148.036C188.228 140.691 186.595 128.742 199.21 102.633Z" fill="#EE9737"/>
<path d="M253.718 144.906C253.877 143.845 252.256 142.711 250.097 142.372C247.938 142.033 246.059 142.617 245.9 143.678C245.741 144.738 247.362 145.873 249.521 146.212C251.68 146.551 253.559 145.966 253.718 144.906Z" fill="#F17467"/>
<path d="M307.945 120.895C307.945 120.895 290.327 139.898 288.747 150.099C287.167 160.3 292.502 171.106 299.592 165.803C306.682 160.5 311.505 149.585 307.945 120.895Z" fill="#EE9737"/>
<path d="M198.498 100.227C198.498 100.227 209.646 123.814 208.124 134.025C206.603 144.236 198.313 152.869 193.129 145.609C187.946 138.354 186.595 126.451 198.498 100.227Z" fill="#F8E54D"/>
<path d="M309.891 117.727C309.891 117.727 292.35 136.805 290.809 147.016C289.268 157.222 294.652 168.003 301.723 162.675C308.794 157.342 313.568 146.402 309.891 117.732V117.727Z" fill="#F8E54D"/>
<path d="M33.9469 150.513L30.2359 148.252C28.7535 147.348 26.8468 147.702 25.7642 149.085L24.5549 150.633C23.7356 151.682 22.1361 151.512 21.5461 150.319L18.43 144.047C17.4791 142.489 14.6605 142.579 12.9977 143.258C8.76004 144.976 1.80622 151.787 2.88392 164.185C2.93268 164.764 3.3228 165.253 3.4886 165.807C3.9226 167.24 6.34132 168.808 9.0575 164.784C9.0575 164.784 15.4066 177.471 31.577 166.177L37.9261 160.295L33.9518 150.513H33.9469Z" fill="#006850"/>
<path d="M17.1869 143.578C17.1869 143.578 11.3303 147.633 10.3843 159.207" stroke="#00A42C" stroke-width="3.5" stroke-linecap="round" stroke-linejoin="round"/>
<path d="M28.3686 146.984C28.3686 146.984 22.5119 151.039 21.5659 162.613" stroke="#00A42C" stroke-width="3.5" stroke-linecap="round" stroke-linejoin="round"/>
<path d="M92.8937 150.205L96.6047 147.943C98.0872 147.039 99.9939 147.394 101.076 148.777L102.286 150.325C103.105 151.373 104.705 151.203 105.295 150.01L108.411 143.739C109.362 142.181 112.18 142.271 113.843 142.95C118.081 144.667 125.034 151.478 123.957 163.876C123.908 164.455 123.518 164.945 123.352 165.499C122.918 166.932 120.499 168.5 117.783 164.475C117.783 164.475 111.434 177.163 95.2637 165.868L88.9146 159.986L92.8889 150.205H92.8937Z" fill="#006850"/>
<path d="M93.1616 151.782C92.2351 162.488 79.3515 170.971 63.5957 170.971C47.8399 170.971 34.9466 162.483 34.0249 151.777C34.1907 151.777 34.3614 151.782 34.5321 151.782H93.1616Z" fill="#00A42C"/>
<path d="M46.0356 156.944L55.6666 158.531C61.4745 159.49 67.6481 159.355 73.4559 158.137L82.375 156.27" stroke="#006850" stroke-width="3.14" stroke-linecap="round" stroke-linejoin="round"/>
<path d="M46.0356 160.658L55.6666 162.246C61.4745 163.205 67.6481 163.07 73.4559 161.852L82.375 159.984" stroke="#006850" stroke-width="3.14" stroke-linecap="round" stroke-linejoin="round"/>
<path d="M111.044 143.578C111.044 143.578 116.901 147.633 117.847 159.207" stroke="#00A42C" stroke-width="3.5" stroke-linecap="round" stroke-linejoin="round"/>
<path d="M99.8574 146.984C99.8574 146.984 105.714 151.039 106.66 162.613" stroke="#00A42C" stroke-width="3.5" stroke-linecap="round" stroke-linejoin="round"/>
<path d="M46.0356 164.373L55.6666 165.961C61.4745 166.92 67.6481 166.785 73.4559 165.567L82.375 163.699" stroke="#006850" stroke-width="3.14" stroke-linecap="round" stroke-linejoin="round"/>
<path d="M5.48821 77.9858C4.41539 87.6975 22.4193 84.412 34.3666 86.8537C46.3139 89.2953 55.3548 89.3103 63.835 102.422C68.0433 87.2931 76.6552 84.4819 87.3248 78.4552C97.9945 72.4235 117.661 69.882 113.77 60.9592C110.332 53.07 102.647 59.4063 100.906 60.9842C116.988 45.7401 108.235 33.4969 96.4584 55.7514C93.7666 60.8394 88.2904 64.2197 83.609 67.9097C71.2423 77.6713 52.6191 80.4075 36.0197 76.3231M16.3871 74.4707C16.4895 74.5156 16.5626 74.5506 16.6163 74.5805C16.5382 74.5456 16.4651 74.5106 16.3871 74.4707ZM100.608 61.2588C100.652 61.2189 100.711 61.1589 100.794 61.084C100.73 61.144 100.672 61.2039 100.608 61.2588Z" fill="#90DB00"/>
<path d="M1.38701 50.0117C1.38701 50.0117 -1.99724 56.9122 2.03558 63.6031C6.06841 70.2939 13.3782 73.1799 13.3782 73.1799L0.109383 70.3887C0.109383 70.3887 2.45008 81.104 9.08206 84.2248C15.7092 87.3455 43.3781 87.1707 43.3781 87.1707L47.845 77.9234C47.845 77.9234 21.912 78.7223 1.38701 50.0117Z" fill="#90DB00"/>
<path d="M108.157 33.0742C108.157 33.0742 113.424 38.6066 111.551 46.2262C109.679 53.8507 103.573 58.8688 103.573 58.8688L115.394 52.1031C115.394 52.1031 116.325 63.0381 110.932 68.0712C105.534 73.0993 79.113 81.5027 79.113 81.5027L72.125 74.0729C72.125 74.0729 97.0778 66.8029 108.157 33.0742Z" fill="#90DB00"/>
<path d="M5.82952 80.2476C4.7567 89.9592 22.7606 86.6737 34.7079 89.1154C46.6552 91.557 55.6961 91.572 64.1763 104.684C68.3847 89.5548 76.9965 86.7436 87.6662 80.7169C98.3358 74.6852 118.003 72.1437 114.111 63.2209C110.673 55.3318 102.988 61.6681 101.247 63.2459C117.33 48.0018 108.576 35.7586 96.7997 58.0131C94.1079 63.1011 88.6317 66.4815 83.9503 70.1714C71.5836 79.933 52.9604 82.6692 36.361 78.5848M16.7284 76.7324C16.8308 76.7773 16.9039 76.8123 16.9576 76.8422C16.8796 76.8073 16.8064 76.7723 16.7284 76.7324ZM100.95 63.5205C100.993 63.4806 101.052 63.4207 101.135 63.3458C101.072 63.4057 101.013 63.4656 100.95 63.5205Z" fill="#00A42C"/>
<path d="M1.72832 52.2695C1.72832 52.2695 -1.65594 59.1701 2.37689 65.8609C6.41459 72.5467 13.7195 75.4377 13.7195 75.4377L0.450692 72.6516C0.450692 72.6516 2.79139 83.3669 9.42336 86.4876C16.0505 89.6083 43.7195 89.4335 43.7195 89.4335L48.1863 80.1862C48.1863 80.1862 22.2533 80.9851 1.72832 52.2745V52.2695Z" fill="#00A42C"/>
<path d="M108.503 35.3359C108.503 35.3359 113.77 40.8683 111.897 48.4879C110.025 56.1124 103.919 61.1305 103.919 61.1305L115.74 54.3648C115.74 54.3648 116.671 65.2998 111.278 70.3329C105.88 75.361 79.4591 83.7645 79.4591 83.7645L72.4712 76.3347C72.4712 76.3347 97.424 69.0646 108.503 35.3359Z" fill="#00A42C"/>
<path d="M97.4432 63.4023C97.4432 63.4023 67.0287 79.0209 62.796 94.3499C62.796 94.3499 51.7849 82.2165 23.1602 77.8875C23.1602 77.8875 50.7853 78.5166 61.2306 86.8901C61.2306 86.8901 66.5801 76.015 97.448 63.4073L97.4432 63.4023Z" fill="#006850"/>
<path d="M81.3073 78.8331C81.3073 78.8331 65.5808 86.912 63.3912 94.8312C63.3912 94.8312 57.6955 88.5548 42.8955 86.3178C42.8955 86.3178 57.1786 86.6424 62.5817 90.9715C62.5817 90.9715 65.3467 85.3492 81.3073 78.8281V78.8331Z" fill="#3290B0"/>
<path d="M99.8814 77.0845C99.8814 77.0845 108.103 63.9026 113.301 70.0092C118.495 76.1158 106.894 86.4816 102.178 88.1893L98.0527 86.8511L99.8814 77.0795V77.0845Z" fill="#006850"/>
<path d="M104.772 91.1148C104.772 91.1148 109.034 77.888 114.833 81.9874C120.631 86.0867 112.843 97.6459 109.142 100.182L105.294 99.9577L104.772 91.1148Z" fill="#006850"/>
<path d="M17.6696 88.5563C17.6696 88.5563 5.93686 78.54 2.79154 85.9698C-0.353769 93.3996 13.7636 99.686 18.7668 99.8557L22.3022 97.2992L17.6696 88.5563Z" fill="#006850"/>
<path d="M17.1527 103.443C17.1527 103.443 9.17968 92.1539 4.8689 97.8611C0.558112 103.568 11.3936 112.166 15.6702 113.44L19.2691 112.032L17.1527 103.443Z" fill="#006850"/>
<path d="M114.657 116.312C116.057 119.163 116.164 122.348 116.364 125.529C116.954 134.956 109.191 143.569 99.6526 146.515C96.205 147.584 92.8695 149.002 89.6266 150.615L78.5425 156.137C72.9345 158.933 66.6244 159.907 60.4557 158.938L42.6274 156.132C42.1398 156.057 41.657 155.987 41.1693 155.927C37.7266 155.508 17.8355 155.228 15.5631 140.184C15.1535 137.488 14.6756 134.811 15.5582 132.235L16.2945 130.088C16.3823 129.828 16.4603 129.564 16.5286 129.299C17.0114 127.392 16.9139 125.364 16.2507 123.507L9.9259 105.886C9.55529 103.449 9.80399 101.068 10.5403 98.8907C12.0472 88.6198 31.8065 77.7147 57.1592 73.6952C82.5119 69.6758 104.573 73.9449 109.04 83.2671C110.386 85.1096 111.322 87.3066 111.693 89.7432L111.941 108.113C111.966 109.921 112.39 111.698 113.185 113.311L113.492 113.935L114.657 116.317V116.312Z" fill="#90DB00"/>
<path opacity="0.12" d="M113.19 113.305L113.497 113.929C110.098 117.434 105.685 120.155 100.882 121.643C96.8828 122.877 93.0207 124.519 89.2658 126.392L76.431 132.788C69.9307 136.029 62.6209 137.157 55.4769 136.034L34.8251 132.778C34.2594 132.688 33.6986 132.608 33.1329 132.543C31.0117 132.284 23.4971 132.069 16.5335 129.303C17.0163 127.395 16.9187 125.368 16.2555 123.511L9.93079 105.89C9.56018 103.453 9.80887 101.072 10.5452 98.8946C12.052 88.6237 31.8114 77.7186 57.1641 73.6992C82.5168 69.6797 104.578 73.9488 109.045 83.271C110.391 85.1135 111.327 87.3105 111.697 89.7471L111.946 108.117C111.971 109.924 112.395 111.702 113.19 113.315V113.305Z" fill="#006850"/>
<path d="M43.7381 132.785C55.6985 130.887 63.8983 119.465 62.0529 107.273C60.2074 95.0805 49.0155 86.7355 37.0551 88.6336C25.0947 90.5316 16.895 101.954 18.7404 114.146C20.5859 126.338 31.7777 134.683 43.7381 132.785Z" fill="#006850"/>
<path d="M90.4858 125.368C102.199 123.509 110.198 112.119 108.352 99.9265C106.507 87.7344 95.5157 79.3576 83.8028 81.2164C72.0899 83.0752 64.0908 94.4657 65.9362 106.658C67.7817 118.85 78.7729 127.227 90.4858 125.368Z" fill="#006850"/>
<path d="M43.3245 132.682C53.9411 132.682 62.5475 123.87 62.5475 112.999C62.5475 102.129 53.9411 93.3164 43.3245 93.3164C32.708 93.3164 24.1016 102.129 24.1016 112.999C24.1016 123.87 32.708 132.682 43.3245 132.682Z" fill="#F3F9E6"/>
<path d="M84.9205 125.087C94.9985 125.087 103.168 116.722 103.168 106.403C103.168 96.084 94.9985 87.7188 84.9205 87.7188C74.8426 87.7188 66.6729 96.084 66.6729 106.403C66.6729 116.722 74.8426 125.087 84.9205 125.087Z" fill="#F3F9E6"/>
<path d="M47.1719 128.088C55.6393 128.088 62.5035 121.06 62.5035 112.39C62.5035 103.72 55.6393 96.6914 47.1719 96.6914C38.7045 96.6914 31.8403 103.72 31.8403 112.39C31.8403 121.06 38.7045 128.088 47.1719 128.088Z" fill="#B4B49C"/>
<path d="M82.5165 122.975C91.2505 122.975 98.3308 115.726 98.3308 106.783C98.3308 97.8396 91.2505 90.5898 82.5165 90.5898C73.7825 90.5898 66.7021 97.8396 66.7021 106.783C66.7021 115.726 73.7825 122.975 82.5165 122.975Z" fill="#B4B49C"/>
<path d="M51.8613 124.623C58.7012 123.537 63.3117 116.485 62.1592 108.871C61.0067 101.257 54.5277 95.9648 47.6878 97.0502C40.848 98.1357 36.2375 105.188 37.39 112.802C38.5425 120.416 45.0215 125.708 51.8613 124.623Z" fill="black"/>
<path d="M81.1992 119.967C88.0391 118.881 92.6496 111.829 91.4971 104.215C90.3446 96.6009 83.8656 91.3085 77.0257 92.394C70.1859 93.4794 65.5754 100.532 66.7279 108.146C67.8803 115.76 74.3594 121.052 81.1992 119.967Z" fill="black"/>
<path d="M44.649 125.651C46.0661 122.984 45.2799 119.744 42.8929 118.414C40.5059 117.084 37.4221 118.168 36.0049 120.835C34.5878 123.502 35.374 126.742 37.761 128.072C40.148 129.402 43.2319 128.318 44.649 125.651Z" fill="white"/>
<path d="M45.1091 117.614C46.049 117.614 46.811 116.834 46.811 115.872C46.811 114.909 46.049 114.129 45.1091 114.129C44.1692 114.129 43.4072 114.909 43.4072 115.872C43.4072 116.834 44.1692 117.614 45.1091 117.614Z" fill="white"/>
<path d="M83.2715 120.53C84.6887 117.863 83.9025 114.623 81.5155 113.293C79.1285 111.963 76.0446 113.047 74.6275 115.714C73.2103 118.381 73.9966 121.621 76.3836 122.951C78.7705 124.281 81.8544 123.197 83.2715 120.53Z" fill="white"/>
<path d="M83.7356 112.497C84.6755 112.497 85.4375 111.717 85.4375 110.754C85.4375 109.792 84.6755 109.012 83.7356 109.012C82.7957 109.012 82.0337 109.792 82.0337 110.754C82.0337 111.717 82.7957 112.497 83.7356 112.497Z" fill="white"/>
<path d="M42.0957 146.036L56.7836 147.699C65.6441 148.702 74.5973 147.08 82.58 143.03L94.8492 136.809" stroke="#006850" stroke-width="5.58" stroke-linecap="round" stroke-linejoin="round"/>
<path d="M66.1464 133.856C65.332 135.349 62.1965 135.005 60.5239 134.046C58.8512 133.088 58.1588 131.1 58.9731 129.607C59.7875 128.114 61.8064 127.685 63.479 128.644C65.1516 129.602 66.9656 132.364 66.1464 133.851V133.856Z" fill="black" stroke="#006850" stroke-width="0.62" stroke-miterlimit="10"/>
<path d="M70.6032 133.145C71.8223 134.313 74.7092 133.02 76.0209 131.587C77.3327 130.154 77.4059 128.047 76.1867 126.879C74.9676 125.71 72.9195 125.925 71.6078 127.353C70.296 128.786 69.3841 131.977 70.6032 133.145Z" fill="black" stroke="#006850" stroke-width="0.62" stroke-miterlimit="10"/>
<path d="M63.7959 124.912C66.712 121.946 69.7696 123.963 69.7696 123.963" stroke="#006850" stroke-width="2.48" stroke-linecap="round" stroke-linejoin="round"/>
<path d="M61.4502 121.548C66.117 116.8 71.008 120.03 71.008 120.03" stroke="#006850" stroke-width="2.48" stroke-linecap="round" stroke-linejoin="round"/>
<path d="M87.1348 127.54C95.2979 119.231 103.861 124.889 103.861 124.889" stroke="#006850" stroke-width="4.34" stroke-linecap="round" stroke-linejoin="round"/>
<path d="M30.9727 136.446C39.1358 128.138 47.6989 133.795 47.6989 133.795" stroke="#006850" stroke-width="4.34" stroke-linecap="round" stroke-linejoin="round"/>
<path d="M53.7697 74.8263C53.7697 74.8263 51.5801 66.4029 54.2183 65.6739C56.8565 64.9449 57.9488 74.1672 57.9488 74.1672L53.7648 74.8313L53.7697 74.8263Z" fill="#0C536C"/>
<path d="M62.5521 80.3246C62.5521 80.3246 59.5434 82.6814 58.5047 77.833C57.466 72.9847 57.7098 64.4913 60.7186 62.1346C63.7274 59.7778 66.1363 79.7554 62.5521 80.3246Z" fill="#00A42C"/>
<path d="M66.5171 90.3456C66.5171 90.3456 62.928 86.8454 63.0402 81.5027C63.1475 76.16 64.6104 65.5945 68.492 64.9754C72.3737 64.3612 71.7836 90.765 66.5171 90.3456Z" fill="#90DB00"/>
<path d="M53.3016 182.908L48.1277 184.082C43.578 185.115 38.9015 185.115 34.3517 184.082L29.1778 182.908C27.4954 182.524 26.5689 180.417 27.2662 178.589C29.6411 172.353 35.0052 168.004 41.2422 168.004C47.4791 168.004 52.8384 172.353 55.2181 178.589C55.9154 180.417 54.9889 182.524 53.3065 182.908H53.3016Z" fill="#0C536C"/>
<path d="M102.72 182.908L96.8387 184.082C91.6648 185.115 86.3446 185.115 81.1658 184.082L75.2848 182.908C73.3683 182.524 72.3199 180.417 73.1099 178.589C75.8114 172.353 81.9119 168.004 89.0022 168.004C96.0926 168.004 102.193 172.353 104.895 178.589C105.685 180.417 104.636 182.524 102.72 182.908Z" fill="#0C536C"/>
<path d="M135.494 172.18C134.129 173.777 132.393 175.136 130.291 176.114C130.028 176.239 129.755 176.364 129.482 176.484C128.867 176.758 128.268 177.018 127.678 177.268C109.888 184.882 102.252 184.083 98.5261 178.361C96.4829 175.225 100.477 171.61 102.047 170.362C100.916 171.166 98.1896 172.874 94.0349 174.087C91.2358 174.911 89.9484 173.593 89.3681 172.075C88.7244 170.397 89.1292 168.485 90.2849 167.122C105.29 149.396 129.887 146.949 129.887 146.949L131.262 147.728C140.351 152.896 141.658 164.984 135.499 172.175L135.494 172.18Z" fill="#3584A5"/>
<path d="M135.494 172.176C134.129 173.774 132.393 175.132 130.291 176.111C130.028 176.236 129.755 176.361 129.482 176.48C128.867 176.755 128.267 177.015 127.677 177.264L109.825 153.277L125.722 154.271L135.494 172.171V172.176Z" fill="#0C536C"/>
<path d="M192.007 162.099C191.027 173.463 177.349 182.471 160.623 182.471C143.896 182.471 130.213 173.463 129.233 162.094C129.408 162.094 129.589 162.099 129.769 162.099H192.007Z" fill="#00C1C5"/>
<path d="M160.94 118.327C192.219 118.327 217.575 108.209 217.575 95.7279C217.575 83.2468 192.219 73.1289 160.94 73.1289C129.661 73.1289 104.305 83.2468 104.305 95.7279C104.305 108.209 129.661 118.327 160.94 118.327Z" fill="#21A8C9"/>
<path d="M151.46 161.773C151.475 161.938 151.475 162.103 151.475 162.268C151.475 167.261 147.52 171.305 142.648 171.305C137.777 171.305 133.822 167.261 133.822 162.268C133.822 162.103 133.822 161.938 133.836 161.773" stroke="#5ECFC7" stroke-width="3.95" stroke-miterlimit="10"/>
<path d="M169.444 162.262C169.444 167.255 165.489 171.299 160.618 171.299C155.746 171.299 151.792 167.255 151.792 162.262" stroke="#5ECFC7" stroke-width="3.95" stroke-miterlimit="10"/>
<path d="M187.414 162.262C187.414 167.255 183.459 171.299 178.588 171.299C173.716 171.299 169.761 167.255 169.761 162.262" stroke="#5ECFC7" stroke-width="3.95" stroke-miterlimit="10"/>
<mask id="mask0_5184_8382" style="mask-type:luminance" maskUnits="userSpaceOnUse" x="129" y="162" width="64" height="21">
<path d="M192.007 162.099C191.027 173.463 177.349 182.471 160.623 182.471C143.896 182.471 130.213 173.463 129.233 162.094C129.408 162.094 129.589 162.099 129.769 162.099H192.007Z" fill="white"/>
</mask>
<g mask="url(#mask0_5184_8382)">
<g style="mix-blend-mode:darken">
<path d="M214.605 155.352C209.767 162.697 201.575 166.207 192.276 166.207H129.925C129.745 166.207 129.564 166.207 129.389 166.202C120.231 166.018 112.195 162.468 107.474 155.158C108.762 153.869 109.825 153.285 109.825 153.285L125.717 154.279L126.331 155.407C130.584 155.692 133.983 155.862 133.983 155.862V162.103H187.892V155.862C187.892 155.862 190.978 155.707 194.943 155.447L195.582 154.279L211.474 153.285L211.123 153.76C211.713 153.605 212.055 153.445 212.055 153.285C212.055 153.285 213.225 153.929 214.6 155.352H214.605Z" fill="#3F7787"/>
</g>
</g>
<path d="M161.408 171.301C161.423 171.451 161.423 171.595 161.423 171.745C161.423 176.224 157.468 179.854 152.596 179.854C147.725 179.854 143.77 176.224 143.77 171.745C143.77 171.595 143.77 171.451 143.785 171.301" stroke="#5ECFC7" stroke-width="3.74" stroke-miterlimit="10"/>
<path d="M179.056 171.301C179.07 171.451 179.07 171.595 179.07 171.745C179.07 176.224 175.115 179.854 170.244 179.854C165.372 179.854 161.417 176.224 161.417 171.745C161.417 171.595 161.417 171.451 161.432 171.301" stroke="#5ECFC7" stroke-width="3.74" stroke-miterlimit="10"/>
<path d="M151.44 198.123L145.949 199.371C141.122 200.47 136.153 200.47 131.325 199.371L125.834 198.123C124.044 197.719 123.064 195.477 123.806 193.539C126.327 186.918 132.022 182.305 138.64 182.305C145.257 182.305 150.953 186.918 153.474 193.539C154.215 195.477 153.23 197.714 151.445 198.123H151.44Z" fill="#0C536C"/>
<path d="M192.992 199.435L186.746 200.684C181.25 201.782 175.603 201.782 170.112 200.684L163.865 199.435C161.832 199.031 160.715 196.789 161.554 194.852C164.421 188.231 170.897 183.617 178.427 183.617C185.956 183.617 192.432 188.231 195.299 194.852C196.138 196.789 195.021 199.026 192.988 199.435H192.992Z" fill="#0C536C"/>
<path d="M232.356 172.079C231.77 173.602 230.488 174.915 227.689 174.091C223.534 172.878 220.808 171.17 219.677 170.366C221.247 171.614 225.236 175.229 223.198 178.365C219.448 184.122 211.743 184.896 193.729 177.137C193.242 176.927 192.744 176.707 192.242 176.488C191.964 176.368 191.696 176.243 191.432 176.118C189.204 175.075 187.385 173.612 185.976 171.884C184.605 170.196 183.635 168.259 183.06 166.212C182.684 164.874 182.479 163.495 182.45 162.102C182.318 156.525 184.971 150.863 190.467 147.732L191.842 146.953C191.842 146.953 216.439 149.4 231.444 167.125C232.599 168.489 233.004 170.396 232.36 172.079H232.356Z" fill="#3584A5"/>
<path d="M211.479 153.285L211.128 153.76L203.277 164.305L193.729 177.137C193.241 176.928 192.744 176.708 192.242 176.488C191.964 176.368 191.696 176.244 191.432 176.119C189.204 175.075 187.385 173.612 185.976 171.885L189.072 166.212L194.953 155.447L195.592 154.279L211.484 153.285H211.479Z" fill="#0C536C"/>
<g style="mix-blend-mode:darken">
<path d="M214.6 155.353C211.801 159.603 207.88 162.564 203.272 164.306C199.912 165.584 196.192 166.208 192.271 166.208H183.049C182.674 164.87 182.469 163.492 182.44 162.099H187.887V155.858C187.887 155.858 190.974 155.703 194.938 155.443L195.577 154.275L211.469 153.281L211.118 153.756C211.708 153.601 212.05 153.441 212.05 153.281C212.05 153.281 213.22 153.925 214.595 155.348L214.6 155.353Z" fill="#3F7787"/>
</g>
<path d="M219.023 100.657V134.55C219.023 149.764 206.978 162.103 192.115 162.103H129.765C129.584 162.103 129.404 162.103 129.228 162.098C114.614 161.803 102.856 149.585 102.856 134.555V100.662C102.856 91.5893 110.039 84.2344 118.9 84.2344H202.975C211.835 84.2344 219.018 91.5893 219.018 100.662L219.023 100.657Z" fill="#21A8C9"/>
<path opacity="0.5" d="M188.389 88.6641C181.606 88.6641 175.345 90.9509 170.303 94.8206C165.017 98.88 157.829 98.88 152.543 94.8206C147.505 90.9509 141.244 88.6591 134.456 88.6641C118.047 88.6691 104.534 102.31 104.305 119.107C104.071 136.369 117.661 150.434 134.466 150.434C146.252 150.434 156.458 143.514 161.423 133.423C166.387 143.514 176.593 150.434 188.38 150.434C205.184 150.434 218.775 136.369 218.541 119.107C218.311 102.305 204.799 88.6691 188.389 88.6641Z" fill="white"/>
<path d="M135.031 150.93C149.784 150.93 161.744 139.308 161.744 124.971C161.744 110.634 149.784 99.0117 135.031 99.0117C120.278 99.0117 108.318 110.634 108.318 124.971C108.318 139.308 120.278 150.93 135.031 150.93Z" fill="#3F7787"/>
<path d="M187.497 150.439C201.72 150.439 213.25 139.222 213.25 125.384C213.25 111.546 201.72 100.328 187.497 100.328C173.274 100.328 161.745 111.546 161.745 125.384C161.745 139.222 173.274 150.439 187.497 150.439Z" fill="#3F7787"/>
<path d="M133.666 148.63C147.668 148.63 159.018 137.007 159.018 122.67C159.018 108.333 147.668 96.7109 133.666 96.7109C119.664 96.7109 108.313 108.333 108.313 122.67C108.313 137.007 119.664 148.63 133.666 148.63Z" fill="#F3F9E6"/>
<path d="M189.18 147.314C202.47 147.314 213.245 136.281 213.245 122.672C213.245 109.063 202.47 98.0312 189.18 98.0312C175.889 98.0312 165.114 109.063 165.114 122.672C165.114 136.281 175.889 147.314 189.18 147.314Z" fill="#F3F9E6"/>
<path d="M138.801 143.372C149.967 143.372 159.019 134.104 159.019 122.67C159.019 111.237 149.967 101.969 138.801 101.969C127.635 101.969 118.583 111.237 118.583 122.67C118.583 134.104 127.635 143.372 138.801 143.372Z" fill="#B4B49C"/>
<path d="M185.971 144.028C197.49 144.028 206.827 134.467 206.827 122.672C206.827 110.878 197.49 101.316 185.971 101.316C174.452 101.316 165.114 110.878 165.114 122.672C165.114 134.467 174.452 144.028 185.971 144.028Z" fill="#B4B49C"/>
<path d="M142.487 139.592C151.614 139.592 159.014 131.355 159.014 121.193C159.014 111.031 151.614 102.793 142.487 102.793C133.36 102.793 125.961 111.031 125.961 121.193C125.961 131.355 133.36 139.592 142.487 139.592Z" fill="black"/>
<path d="M181.641 139.592C190.768 139.592 198.167 131.355 198.167 121.193C198.167 111.031 190.768 102.793 181.641 102.793C172.513 102.793 165.114 111.031 165.114 121.193C165.114 131.355 172.513 139.592 181.641 139.592Z" fill="black"/>
<path d="M132.903 139.448C135.276 136.265 134.89 131.879 132.041 129.652C129.192 127.425 124.958 128.199 122.585 131.382C120.212 134.565 120.598 138.95 123.448 141.177C126.297 143.405 130.53 142.63 132.903 139.448Z" fill="white"/>
<path d="M135.431 129.076C136.673 129.076 137.679 128.046 137.679 126.774C137.679 125.503 136.673 124.473 135.431 124.473C134.19 124.473 133.183 125.503 133.183 126.774C133.183 128.046 134.19 129.076 135.431 129.076Z" fill="white"/>
<path d="M184.252 140.768C186.625 137.585 186.239 133.2 183.39 130.972C180.541 128.745 176.307 129.52 173.934 132.702C171.561 135.885 171.947 140.27 174.797 142.498C177.646 144.725 181.879 143.951 184.252 140.768Z" fill="white"/>
<path d="M186.771 130.397C188.012 130.397 189.019 129.366 189.019 128.095C189.019 126.824 188.012 125.793 186.771 125.793C185.529 125.793 184.522 126.824 184.522 128.095C184.522 129.366 185.529 130.397 186.771 130.397Z" fill="white"/>
<path d="M153.859 139.109C153.859 139.109 161.808 139.923 164.368 142.909C166.928 145.895 164.402 149.715 164.402 149.715C164.402 149.715 155.532 155.911 153.859 139.109Z" fill="#EF856F"/>
<path d="M150.992 143.373C150.992 143.373 148.427 124.973 161.584 123.66C172.122 122.606 176.988 137.131 173.458 143.043C169.927 148.955 169.337 144.536 166.397 141.73C161.584 137.131 158.594 135.334 150.992 143.373Z" fill="#FFAA8D"/>
<path d="M114.955 155.161L113.622 155.803C111.797 156.682 111.013 158.91 111.872 160.779L121.839 182.476C122.697 184.345 124.873 185.147 126.698 184.268L128.031 183.626C129.856 182.747 130.64 180.519 129.781 178.65L119.815 156.953C118.956 155.084 116.781 154.282 114.955 155.161Z" fill="#F17467"/>
<path d="M92.5016 138.117L105.907 131.66C114.247 127.644 124.207 131.317 128.13 139.857C132.052 148.396 128.465 158.594 120.125 162.611L106.719 169.067C106.626 169.112 106.52 169.069 106.479 168.979L92.4152 138.362C92.3716 138.268 92.4134 138.159 92.5016 138.117Z" fill="#FFC600"/>
<path d="M106.333 169.245C110.842 167.073 111.291 158.334 107.336 149.725C103.382 141.116 96.5207 135.897 92.0121 138.068C87.5036 140.24 87.0545 148.979 91.0092 157.588C94.9638 166.197 101.825 171.416 106.333 169.245Z" fill="#F8E54D"/>
<path d="M90.4653 144.36C90.4653 144.36 88.1734 149.877 65.7515 140.32L89.2023 186.906C89.2023 186.906 92.1233 166.739 103.051 165.89C103.051 165.89 109.02 162.465 104.246 152.069C99.4721 141.678 94.0203 141.544 90.4653 144.36Z" fill="#FFC600"/>
<path d="M79.2777 202.561C90.2446 197.28 92.6767 178.939 84.7101 161.596C76.7434 144.253 61.3948 134.475 50.428 139.757C39.4612 145.039 37.029 163.38 44.9957 180.723C52.9623 198.066 68.3109 207.843 79.2777 202.561Z" fill="#F8E54D"/>
<path d="M76.3235 165.636C77.8255 168.902 78.8837 172.177 79.5225 175.278C81.2926 183.911 79.7663 191.246 75.1044 193.488C68.7699 196.539 59.0414 189.019 53.3749 176.681C47.7085 164.348 48.2547 151.88 54.5892 148.824C59.3437 146.532 66.0098 150.197 71.4373 157.383C73.2416 159.769 74.9045 162.55 76.3187 165.626L76.3235 165.636Z" fill="#FFC600"/>
<path d="M76.3237 165.638C77.8257 168.904 78.8839 172.179 79.5227 175.28L67.9606 177.941L61.7334 164.385L71.4375 157.395C73.2418 159.781 74.9047 162.562 76.3189 165.638H76.3237Z" fill="#F17467"/>
<path d="M67.9659 177.936C70.3372 176.794 70.8656 172.834 69.1462 169.091C67.4268 165.348 64.1106 163.239 61.7394 164.381C59.3681 165.523 58.8397 169.484 60.5591 173.227C62.2785 176.97 65.5947 179.078 67.9659 177.936Z" fill="#8F2631"/>
</svg>
