<svg width="339" height="250" viewBox="0 0 339 250" fill="none" xmlns="http://www.w3.org/2000/svg">
<path d="M53.4023 159.729C53.4023 159.729 53.8507 164.62 53.8507 166.578C53.8507 168.536 54.629 175.044 65.4606 176.204C74.4283 177.162 86.0478 178.798 94.6055 172.051C99.1662 168.453 110.35 158.502 118.636 157.18C124.465 156.25 156.236 159.601 169.437 170.14C182.639 180.679 183.033 171.67 183.033 171.67L174.001 140.731L134.736 137.207L86.4386 139.948L53.4023 159.732V159.729Z" fill="#9B694D"/>
<path d="M170.075 180.68C170.075 180.68 169.681 193.605 171.644 195.563C173.607 197.521 176.596 201.761 193.25 204.316C202.384 205.719 235.359 203.885 249.298 200.163C254.806 198.694 258.288 194.388 259.546 189.621C261.148 183.551 260.828 169.176 260.828 169.176L170.075 180.68Z" fill="#9B694D"/>
<path d="M91.4286 68.7454C91.4286 68.7454 88.2066 76.3933 89.7792 80.3098C91.3485 84.2264 88.5461 87.1463 86.5828 89.4943C84.6195 91.8424 79.745 93.5451 69.9286 92.3695C60.1122 91.1939 55.228 95.5832 48.5503 95.9762C41.8726 96.3691 32.4502 96.3691 26.5603 88.9257C26.5603 88.9257 23.8508 80.4824 22.8516 76.6744C21.8491 72.8664 41.4819 68.9498 41.4819 68.9498L91.4286 68.7422V68.7454Z" fill="#9B694D"/>
<mask id="mask0_3306_6255" style="mask-type:luminance" maskUnits="userSpaceOnUse" x="22" y="68" width="70" height="29">
<path d="M91.4286 68.7454C91.4286 68.7454 88.2066 76.3933 89.7792 80.3098C91.3485 84.2264 88.5461 87.1463 86.5828 89.4943C84.6195 91.8424 79.745 93.5451 69.9286 92.3695C60.1122 91.1939 55.228 95.5832 48.5503 95.9762C41.8726 96.3691 32.4502 96.3691 26.5603 88.9257C26.5603 88.9257 23.8508 80.4824 22.8516 76.6744C21.8491 72.8664 41.4819 68.9498 41.4819 68.9498L91.4286 68.7422V68.7454Z" fill="white"/>
</mask>
<g mask="url(#mask0_3306_6255)">
<path d="M23.4022 95.4805H50.6255V68.9653H23.4022L23.4022 95.4805Z" fill="url(#paint0_linear_3306_6255)"/>
<path d="M54.5521 95.5664H81.7754V69.0512H54.5521V95.5664Z" fill="url(#paint1_linear_3306_6255)"/>
</g>
<path d="M90.57 71.6107C90.57 71.6107 87.4473 81.4085 63.0969 79.4917C38.7497 77.5782 41.139 88.8615 27.3704 82.6895C11.8211 75.7189 25.3687 61.5445 49.7095 59.1485C74.0503 56.7558 95.262 62.1994 90.5668 71.6075L90.57 71.6107Z" fill="#92DD00"/>
<mask id="mask1_3306_6255" style="mask-type:luminance" maskUnits="userSpaceOnUse" x="20" y="58" width="72" height="27">
<path d="M90.57 71.6107C90.57 71.6107 87.4473 81.4085 63.0969 79.4917C38.7497 77.5782 41.139 88.8615 27.3704 82.6895C11.8211 75.7189 25.3687 61.5445 49.7095 59.1485C74.0503 56.7558 95.262 62.1994 90.5668 71.6075L90.57 71.6107Z" fill="white"/>
</mask>
<g mask="url(#mask1_3306_6255)">
<path opacity="0.34" d="M47.2796 75.7575C70.7199 75.7167 89.7103 68.9313 89.6958 60.6019C89.6812 52.2725 70.6672 45.5533 47.2268 45.5941C23.7864 45.6349 4.79599 52.4203 4.81057 60.7497C4.82514 69.0791 23.8392 75.7983 47.2796 75.7575Z" fill="#76B870"/>
<path opacity="0.39" d="M45.1085 66.8157C59.0203 66.7915 70.291 62.7642 70.2823 57.8206C70.2737 52.8769 58.9889 48.889 45.0772 48.9132C31.1654 48.9374 19.8947 52.9646 19.9034 57.9083C19.912 62.8519 31.1967 66.8399 45.1085 66.8157Z" fill="#D3F2A0"/>
</g>
<mask id="mask2_3306_6255" style="mask-type:luminance" maskUnits="userSpaceOnUse" x="170" y="169" width="91" height="36">
<path d="M170.075 180.68C170.075 180.68 169.681 193.605 171.644 195.563C173.607 197.521 176.596 201.761 193.25 204.316C202.384 205.719 235.359 203.885 249.298 200.163C254.806 198.694 258.288 194.388 259.546 189.621C261.148 183.551 260.828 169.176 260.828 169.176L170.075 180.68Z" fill="white"/>
</mask>
<g mask="url(#mask2_3306_6255)">
<path d="M170.507 211.984H206.698V172.371H170.507V211.984Z" fill="url(#paint2_linear_3306_6255)"/>
</g>
<mask id="mask3_3306_6255" style="mask-type:luminance" maskUnits="userSpaceOnUse" x="53" y="137" width="131" height="41">
<path d="M53.4023 159.729C53.4023 159.729 53.8507 164.62 53.8507 166.578C53.8507 168.536 54.629 175.044 65.4606 176.204C74.4283 177.162 86.0478 178.798 94.6055 172.051C99.1662 168.453 110.35 158.502 118.636 157.18C124.465 156.25 156.236 159.601 169.437 170.14C182.639 180.679 183.033 171.67 183.033 171.67L174.001 140.731L134.736 137.207L86.4386 139.948L53.4023 159.732V159.729Z" fill="white"/>
</mask>
<g mask="url(#mask3_3306_6255)">
<path d="M171.471 148.73H144.248V175.246H171.471V148.73Z" fill="url(#paint3_linear_3306_6255)"/>
<path d="M53.287 179.719H80.5103V153.204H53.287V179.719Z" fill="url(#paint4_linear_3306_6255)"/>
<path d="M88.1972 176.523H115.42V150.008H88.1972V176.523Z" fill="url(#paint5_linear_3306_6255)"/>
</g>
<path d="M294.005 114.611C294.005 114.611 294.655 139.187 290.613 140.427C269.795 146.816 264.991 155.441 262.349 161.492C256.296 175.353 255.674 175.149 255.674 175.149L236.826 130.942L263.527 109.008L294.005 114.611Z" fill="#9B694D"/>
<mask id="mask4_3306_6255" style="mask-type:luminance" maskUnits="userSpaceOnUse" x="236" y="109" width="59" height="67">
<path d="M294.005 114.611C294.005 114.611 294.655 139.187 290.613 140.427C269.795 146.816 264.991 155.441 262.349 161.492C256.296 175.353 255.674 175.149 255.674 175.149L236.826 130.942L263.527 109.008L294.005 114.611Z" fill="white"/>
</mask>
<g mask="url(#mask4_3306_6255)">
<path d="M262.105 166.621H281.962V127.008H262.105V166.621Z" fill="url(#paint6_linear_3306_6255)"/>
</g>
<path d="M142.195 69.0561C142.195 69.0561 115.888 70.6215 107.641 71.4074C99.3936 72.1932 86.0446 83.1571 75.4435 92.9486C64.8425 102.74 60.9159 105.091 57.3801 123.888C53.8475 142.689 60.522 141.513 53.0596 152.87C45.6004 164.227 69.1598 168.929 84.866 164.227C100.572 159.527 103.714 148.953 123.347 147.778C138.236 146.886 155.595 152.196 164.825 156.01C169.248 157.837 171.67 162.613 170.501 167.245C169.889 169.67 168.813 172.648 166.984 176.2C161.78 186.311 195.261 192.256 221.11 190.576C249.403 188.736 262.346 183.027 263.13 154.825C263.915 126.626 321.635 124.275 279.23 89.4185C236.823 54.5622 220.332 38.11 200.305 38.503C180.279 38.8959 161.434 49.8598 142.192 69.0529L142.195 69.0561Z" fill="#78C93C"/>
<mask id="mask5_3306_6255" style="mask-type:luminance" maskUnits="userSpaceOnUse" x="51" y="38" width="244" height="153">
<path d="M142.195 69.0561C142.195 69.0561 115.888 70.6215 107.641 71.4074C99.3936 72.1932 86.0446 83.1571 75.4435 92.9486C64.8425 102.74 60.9159 105.091 57.3801 123.888C53.8475 142.689 60.522 141.513 53.0596 152.87C45.6004 164.227 69.1598 168.929 84.866 164.227C100.572 159.527 103.714 148.953 123.347 147.778C138.236 146.886 155.595 152.196 164.825 156.01C169.248 157.837 171.67 162.613 170.501 167.245C169.889 169.67 168.813 172.648 166.984 176.2C161.78 186.311 195.261 192.256 221.11 190.576C249.403 188.736 262.346 183.027 263.13 154.825C263.915 126.626 321.635 124.275 279.23 89.4185C236.823 54.5622 220.332 38.11 200.305 38.503C180.279 38.8959 161.434 49.8598 142.192 69.0529L142.195 69.0561Z" fill="white"/>
</mask>
<g mask="url(#mask5_3306_6255)">
<path opacity="0.34" d="M149.252 129.433C219.449 109.791 270.669 73.6478 263.654 48.7049C256.639 23.7621 194.046 19.4649 123.849 39.1069C53.651 58.7489 2.43128 94.892 9.44612 119.835C16.461 144.778 79.054 149.075 149.252 129.433Z" fill="#76B870"/>
<path opacity="0.39" d="M135.269 104.452C176.93 92.7952 207.328 71.3451 203.165 56.5422C199.002 41.7392 161.854 39.189 120.193 50.8461C78.5325 62.5032 48.1347 83.9533 52.2978 98.7563C56.4609 113.559 93.6085 116.109 135.269 104.452Z" fill="#D3F2A0"/>
<path opacity="0.09" d="M137.833 84.9614C167.109 76.7697 187.467 58.1288 183.304 43.3258C179.141 28.5229 152.033 23.1634 122.757 31.3551C93.4814 39.5468 73.1234 58.1877 77.2866 72.9906C81.4497 87.7936 108.557 93.1531 137.833 84.9614Z" fill="white"/>
<path opacity="0.34" d="M152.758 242.468C189.583 242.468 219.436 219.983 219.436 192.246C219.436 164.509 189.583 142.023 152.758 142.023C115.933 142.023 86.0801 164.509 86.0801 192.246C86.0801 219.983 115.933 242.468 152.758 242.468Z" fill="#76B870"/>
<path opacity="0.13" d="M155.663 221.111C177.516 221.111 195.232 207.767 195.232 191.306C195.232 174.844 177.516 161.5 155.663 161.5C133.809 161.5 116.093 174.844 116.093 191.306C116.093 207.767 133.809 221.111 155.663 221.111Z" fill="#D3F2A0"/>
<path opacity="0.09" d="M156.034 211.628C164.981 211.628 172.234 203.854 172.234 194.265C172.234 184.676 164.981 176.902 156.034 176.902C147.088 176.902 139.835 184.676 139.835 194.265C139.835 203.854 147.088 211.628 156.034 211.628Z" fill="white"/>
</g>
<path d="M180.605 222.196L180.98 234.575C181.047 236.798 180.16 238.955 178.514 240.456C175.426 243.274 169.207 247.066 158.096 247.066C138.851 247.066 132.337 246.088 132.574 244.325C132.574 244.325 131.898 244.085 131.434 239.776C131.434 239.776 113.534 240.919 110.296 238.178C107.058 235.437 110.901 232.502 105.812 232.109C100.723 231.716 86.6594 231.594 82.4959 222.586C78.3323 213.577 77.4067 204.961 77.4067 204.961L122.757 210.443L180.605 222.193V222.196Z" fill="#9B694D"/>
<mask id="mask6_3306_6255" style="mask-type:luminance" maskUnits="userSpaceOnUse" x="77" y="204" width="104" height="44">
<path d="M180.605 222.196L180.98 234.575C181.047 236.798 180.16 238.955 178.514 240.456C175.426 243.274 169.207 247.066 158.096 247.066C138.851 247.066 132.337 246.088 132.574 244.325C132.574 244.325 131.898 244.085 131.434 239.776C131.434 239.776 113.534 240.919 110.296 238.178C107.058 235.437 110.901 232.502 105.812 232.109C100.723 231.716 86.6594 231.594 82.4959 222.586C78.3323 213.577 77.4067 204.961 77.4067 204.961L122.757 210.443L180.605 222.193V222.196Z" fill="white"/>
</mask>
<g mask="url(#mask6_3306_6255)">
<path d="M123.107 250H142.644V223.804H123.107V250Z" fill="url(#paint7_linear_3306_6255)"/>
<path d="M97.4847 238.5H120.224V217.735H97.4847V238.5Z" fill="url(#paint8_linear_3306_6255)"/>
</g>
<path d="M69.9252 70.969C77.0005 70.969 82.7361 69.6818 82.7361 68.0939C82.7361 66.506 77.0005 65.2188 69.9252 65.2188C62.8499 65.2188 57.1143 66.506 57.1143 68.0939C57.1143 69.6818 62.8499 70.969 69.9252 70.969Z" fill="url(#paint9_linear_3306_6255)"/>
<path d="M32.293 73.8449C38.9261 73.8449 44.3032 72.6292 44.3032 71.1295C44.3032 69.6298 38.9261 68.4141 32.293 68.4141C25.6599 68.4141 20.2827 69.6298 20.2827 71.1295C20.2827 72.6292 25.6599 73.8449 32.293 73.8449Z" fill="url(#paint10_linear_3306_6255)"/>
<path d="M35.6177 36.6053C35.6177 36.6053 38.2343 48.6713 37.4689 59.3764C36.7034 70.0815 35.1693 71.6118 39.7684 73.1388C44.3676 74.669 44.3676 67.7878 44.3676 67.7878C44.3676 67.7878 41.3026 38.7329 38.2343 35.6725C35.1693 32.6153 35.6177 36.6053 35.6177 36.6053Z" fill="#0C536C"/>
<path d="M39.0033 37.2009C39.0033 37.2009 31.3359 26.4958 25.9713 29.553C20.6068 32.6103 22.1377 35.6707 22.1377 35.6707C22.1377 35.6707 35.9351 33.377 39.0033 37.2009Z" fill="#76B870"/>
<path d="M50.5009 30.3168C50.5009 30.3168 46.6672 24.9658 40.534 26.4929C34.4007 28.0231 35.6178 36.6006 35.6178 36.6006C35.6178 36.6006 45.9018 28.7866 50.5009 30.3136V30.3168Z" fill="#3E7536"/>
<path d="M48.2015 47.141C48.2015 47.141 54.7832 32.0177 35.9351 34.9057C35.9351 34.9057 48.967 41.7868 48.2015 47.141Z" fill="#92DD00"/>
<path d="M34.8523 35.0741C34.8523 35.0741 24.437 34.1412 22.1374 39.4922C19.8379 44.8432 25.2025 48.6671 25.2025 48.6671C25.2025 48.6671 25.9679 44.0796 30.567 40.2557C35.1662 36.4318 38.2344 35.6683 38.2344 35.6683L34.8491 35.0709L34.8523 35.0741Z" fill="#3E7536"/>
<path d="M35.6177 40.5959C37.8287 40.5959 39.6211 38.808 39.6211 36.6026C39.6211 34.3972 37.8287 32.6094 35.6177 32.6094C33.4066 32.6094 31.6143 34.3972 31.6143 36.6026C31.6143 38.808 33.4066 40.5959 35.6177 40.5959Z" fill="#9B694D"/>
<path d="M74.6909 33.41C74.6909 33.41 77.3076 45.476 76.5421 56.1811C75.7767 66.8862 74.2426 68.4165 78.8417 69.9435C83.4408 71.4737 83.4408 64.5925 83.4408 64.5925C83.4408 64.5925 80.3758 35.5376 77.3076 32.4772C74.2426 29.4199 74.6909 33.41 74.6909 33.41Z" fill="#0C536C"/>
<path d="M78.0765 34.0056C78.0765 34.0056 70.4092 23.3005 65.0446 26.3577C59.68 29.415 61.2109 32.4754 61.2109 32.4754C61.2109 32.4754 75.0083 30.1817 78.0765 34.0056Z" fill="#76B870"/>
<path d="M89.5741 27.1215C89.5741 27.1215 85.7404 21.7705 79.6072 23.2975C73.474 24.8278 74.691 33.4053 74.691 33.4053C74.691 33.4053 84.975 25.5913 89.5741 27.1183V27.1215Z" fill="#3E7536"/>
<path d="M87.2748 43.9457C87.2748 43.9457 93.8564 28.8224 75.0083 31.7103C75.0083 31.7103 88.0402 38.5915 87.2748 43.9457Z" fill="#92DD00"/>
<path d="M73.9256 31.8787C73.9256 31.8787 63.5102 30.9459 61.2107 36.2969C58.9111 41.6478 64.2757 45.4718 64.2757 45.4718C64.2757 45.4718 65.0412 40.8843 69.6403 37.0604C74.2394 33.2365 77.3076 32.4729 77.3076 32.4729L73.9223 31.8756L73.9256 31.8787Z" fill="#3E7536"/>
<path d="M75.5303 39.0217C77.7413 39.0217 79.5337 37.2338 79.5337 35.0284C79.5337 32.823 77.7413 31.0352 75.5303 31.0352C73.3192 31.0352 71.5269 32.823 71.5269 35.0284C71.5269 37.2338 73.3192 39.0217 75.5303 39.0217Z" fill="#9B694D"/>
<path d="M150.833 191.648C150.833 191.648 162.612 163.057 117.457 175.199C72.3015 187.342 72.3016 202.222 80.9393 210.056C89.5771 217.889 94.2883 224.157 111.567 224.939C128.843 225.722 132.769 225.332 132.378 231.597C132.378 231.597 133.163 235.906 145.337 235.513C157.51 235.12 183.033 239.43 181.07 222.198C179.106 204.967 179.5 204.574 169.29 198.699C159.08 192.824 151.621 198.699 150.836 191.648H150.833Z" fill="#78C93C"/>
<mask id="mask7_3306_6255" style="mask-type:luminance" maskUnits="userSpaceOnUse" x="76" y="172" width="106" height="64">
<path d="M150.833 191.648C150.833 191.648 162.612 163.057 117.457 175.199C72.3015 187.342 72.3016 202.222 80.9393 210.056C89.5771 217.889 94.2883 224.157 111.567 224.939C128.843 225.722 132.769 225.332 132.378 231.597C132.378 231.597 133.163 235.906 145.337 235.513C157.51 235.12 183.033 239.43 181.07 222.198C179.106 204.967 179.5 204.574 169.29 198.699C159.08 192.824 151.621 198.699 150.836 191.648H150.833Z" fill="white"/>
</mask>
<g mask="url(#mask7_3306_6255)">
<path opacity="0.34" d="M88.3026 220.833C137.071 220.833 176.605 205.498 176.605 186.581C176.605 167.664 137.071 152.328 88.3026 152.328C39.5344 152.328 0 167.664 0 186.581C0 205.498 39.5344 220.833 88.3026 220.833Z" fill="#76B870"/>
<path opacity="0.39" d="M92.1491 206.264C121.092 206.264 144.555 197.163 144.555 185.937C144.555 174.71 121.092 165.609 92.1491 165.609C63.2058 165.609 39.7427 174.71 39.7427 185.937C39.7427 197.163 63.2058 206.264 92.1491 206.264Z" fill="#D3F2A0"/>
<path opacity="0.09" d="M92.6424 199.798C104.49 199.798 114.094 194.496 114.094 187.956C114.094 181.415 104.49 176.113 92.6424 176.113C80.7948 176.113 71.1904 181.415 71.1904 187.956C71.1904 194.496 80.7948 199.798 92.6424 199.798Z" fill="white"/>
</g>
<path d="M223.036 64.0745C230.111 64.0745 235.846 62.7873 235.846 61.1994C235.846 59.6115 230.111 58.3242 223.036 58.3242C215.96 58.3242 210.225 59.6115 210.225 61.1994C210.225 62.7873 215.96 64.0745 223.036 64.0745Z" fill="url(#paint11_linear_3306_6255)"/>
<path d="M105.175 98.8948C112.25 98.8948 117.986 97.6076 117.986 96.0197C117.986 94.4318 112.25 93.1445 105.175 93.1445C98.0994 93.1445 92.3638 94.4318 92.3638 96.0197C92.3638 97.6076 98.0994 98.8948 105.175 98.8948Z" fill="url(#paint12_linear_3306_6255)"/>
<path d="M127.786 195.818C134.578 195.818 140.084 193.43 140.084 190.483C140.084 187.537 134.578 185.148 127.786 185.148C120.994 185.148 115.487 187.537 115.487 190.483C115.487 193.43 120.994 195.818 127.786 195.818Z" fill="#76A307"/>
<path d="M108.659 60.6991C108.659 60.6991 111.276 72.7651 110.51 83.4702C109.745 94.1753 108.211 95.7055 112.81 97.2325C117.409 98.7627 117.409 91.8816 117.409 91.8816C117.409 91.8816 114.344 62.8267 111.276 59.7662C108.211 56.709 108.659 60.6991 108.659 60.6991Z" fill="#0C536C"/>
<path d="M112.041 61.2947C112.041 61.2947 104.374 50.5896 99.0094 53.6468C93.6449 56.704 95.1758 59.7645 95.1758 59.7645C95.1758 59.7645 108.973 57.4707 112.041 61.2947Z" fill="#76B870"/>
<path d="M123.542 54.4106C123.542 54.4106 119.709 49.0596 113.575 50.5866C107.442 52.1168 108.659 60.6943 108.659 60.6943C108.659 60.6943 118.943 52.8803 123.542 54.4074V54.4106Z" fill="#22411F"/>
<path d="M121.243 71.2347C121.243 71.2347 127.824 56.1115 108.976 58.9994C108.976 58.9994 122.008 65.8806 121.243 71.2347Z" fill="#92DD00"/>
<path d="M107.89 59.1678C107.89 59.1678 97.4751 58.235 95.1755 63.5859C92.876 68.9369 98.2405 72.7608 98.2405 72.7608C98.2405 72.7608 99.006 68.1734 103.605 64.3495C108.204 60.5255 111.272 59.762 111.272 59.762L107.887 59.1646L107.89 59.1678Z" fill="#3E7536"/>
<path d="M236.958 26.5129C236.958 26.5129 234.341 38.579 235.107 49.2841C235.872 59.9892 237.406 61.5194 232.807 63.0464C228.208 64.5766 228.208 57.6955 228.208 57.6955C228.208 57.6955 231.273 28.6406 234.341 25.5801C237.409 22.5197 236.958 26.5129 236.958 26.5129Z" fill="#0C536C"/>
<path d="M233.573 27.1111C233.573 27.1111 241.24 16.406 246.605 19.4632C251.969 22.5204 250.438 25.5809 250.438 25.5809C250.438 25.5809 236.641 23.2871 233.573 27.1111Z" fill="#76B870"/>
<path d="M222.075 20.227C222.075 20.227 225.908 14.876 232.042 16.403C238.175 17.9332 236.958 26.5107 236.958 26.5107C236.958 26.5107 226.674 18.6967 222.075 20.2238V20.227Z" fill="#3E7536"/>
<path d="M224.374 37.0511C224.374 37.0511 217.792 21.9279 236.641 24.8158C236.641 24.8158 223.609 31.697 224.374 37.0511Z" fill="#92DD00"/>
<path d="M237.723 24.9842C237.723 24.9842 248.139 24.0514 250.438 29.4024C252.738 34.7533 247.373 38.5773 247.373 38.5773C247.373 38.5773 246.608 33.9898 242.009 30.1659C237.41 26.3419 234.341 25.5784 234.341 25.5784L237.727 24.981L237.723 24.9842Z" fill="#3E7536"/>
<path d="M236.007 31.1701C238.218 31.1701 240.01 29.3823 240.01 27.1768C240.01 24.9714 238.218 23.1836 236.007 23.1836C233.796 23.1836 232.003 24.9714 232.003 27.1768C232.003 29.3823 233.796 31.1701 236.007 31.1701Z" fill="#9B694D"/>
<path d="M140.61 155.862C140.61 155.862 138.019 167.934 138.807 178.636C139.594 189.338 141.132 190.865 136.536 192.405C131.94 193.945 131.924 187.064 131.924 187.064C131.924 187.064 134.928 158.002 137.987 154.936C141.045 151.869 140.606 155.862 140.606 155.862H140.61Z" fill="#0C536C"/>
<path d="M137.228 156.465C137.228 156.465 144.869 145.744 150.243 148.791C155.618 151.839 154.09 154.899 154.09 154.899C154.09 154.899 140.286 152.634 137.228 156.465Z" fill="#92DD00"/>
<path d="M125.714 149.606C125.714 149.606 129.535 144.245 135.671 145.763C141.808 147.28 140.61 155.861 140.61 155.861C140.61 155.861 130.31 148.069 125.714 149.606Z" fill="#92DD00"/>
<path d="M128.049 166.427C128.049 166.427 121.435 151.317 140.289 154.166C140.289 154.166 127.274 161.076 128.049 166.427Z" fill="#92DD00"/>
<path d="M141.375 154.332C141.375 154.332 151.787 153.377 154.1 158.724C156.412 164.072 151.054 167.906 151.054 167.906C151.054 167.906 150.279 163.318 145.67 159.507C141.061 155.693 137.993 154.936 137.993 154.936L141.375 154.332Z" fill="#3E7536"/>
<path d="M139.284 159.912C141.495 159.912 143.287 158.124 143.287 155.919C143.287 153.714 141.495 151.926 139.284 151.926C137.073 151.926 135.28 153.714 135.28 155.919C135.28 158.124 137.073 159.912 139.284 159.912Z" fill="#9B694D"/>
<path opacity="0.22" d="M67.7441 76.4433C74.7309 76.4433 80.3949 75.6051 80.3949 74.5713C80.3949 73.5374 74.7309 72.6992 67.7441 72.6992C60.7572 72.6992 55.0933 73.5374 55.0933 74.5713C55.0933 75.6051 60.7572 76.4433 67.7441 76.4433Z" fill="#282C2D"/>
<path opacity="0.22" d="M67.7443 75.722C72.0444 75.722 75.5302 75.2071 75.5302 74.5719C75.5302 73.9368 72.0444 73.4219 67.7443 73.4219C63.4443 73.4219 59.9585 73.9368 59.9585 74.5719C59.9585 75.2071 63.4443 75.722 67.7443 75.722Z" fill="#282C2D"/>
<path d="M78.6174 69.3222C78.5629 69.351 78.5085 69.3797 78.454 69.4085C77.3299 69.9803 76.1256 69.8206 75.2161 69.2168C74.441 68.7025 73.8805 67.8623 73.7748 66.8719C73.7428 66.5844 73.7524 66.2873 73.8036 65.9775L73.8581 65.6548C73.8581 65.6548 74.0118 65.4951 74.2969 65.2427C75.2385 64.4089 77.6213 62.5433 80.6799 61.9363C81.1731 61.8373 81.6856 61.7734 82.214 61.751C82.5824 61.735 82.9379 61.9107 83.1236 62.227C83.2902 62.5145 83.335 62.8883 82.8386 63.2429C82.0955 63.7732 81.4646 64 81.1956 64.0799C81.5895 63.9808 82.7008 63.7796 82.9378 64.5143C83.383 65.888 82.4478 67.2777 78.6238 69.319L78.6174 69.3222Z" fill="#3586A7"/>
<path opacity="0.67" d="M80.6737 61.9375C80.6737 61.9375 76.1738 63.8319 75.1105 65.6592C73.6372 68.1957 75.2098 69.2148 75.2098 69.2148C74.4347 68.7005 73.8742 67.8603 73.7686 66.87L74.2906 65.2439C75.2322 64.4101 77.615 62.5445 80.6737 61.9375Z" fill="#0C536C"/>
<path d="M61.8639 71.5044C61.9184 71.4725 61.9728 71.4437 62.0241 71.4118C63.113 70.7761 63.6287 69.6803 63.6094 68.591C63.5934 67.6613 63.1867 66.7381 62.4084 66.1152C62.1842 65.9363 61.928 65.7797 61.6398 65.6551L61.3387 65.5273C61.3387 65.5273 61.1209 65.5721 60.7526 65.6743C59.5388 66.0161 56.6819 67.0096 54.5169 69.2491C54.1678 69.61 53.8347 70.0062 53.5336 70.4343C53.3222 70.7345 53.2774 71.1275 53.4472 71.4533C53.5977 71.7472 53.8923 71.9868 54.456 71.7632C55.3047 71.4278 55.8364 71.0189 56.051 70.8368C55.7563 71.1147 54.9845 71.9357 55.4777 72.5331C56.3969 73.648 58.0751 73.6129 61.8639 71.5044Z" fill="#3586A7"/>
<path opacity="0.67" d="M54.5203 69.2505C54.5203 69.2505 58.5493 66.4936 60.6631 66.5894C63.6 66.7236 63.6097 68.5925 63.6097 68.5925C63.5936 67.6628 63.1869 66.7396 62.4086 66.1166L60.7528 65.6758C59.539 66.0176 56.6821 67.0111 54.5171 69.2505H54.5203Z" fill="#0C536C"/>
<path d="M74.4828 66.9563C74.5533 69.2724 71.9366 71.4288 68.4745 71.8377C65.0091 72.2498 61.9601 70.7675 61.4829 68.4993C61.5181 68.4961 61.5566 68.4929 61.595 68.4865L74.486 66.9531L74.4828 66.9563Z" fill="#00C3C7"/>
<path d="M66.0789 67.8906C66.0853 67.9226 66.0917 67.9577 66.0949 67.9897C66.2166 68.996 65.4928 69.9096 64.4839 70.031C63.475 70.1524 62.559 69.4336 62.4373 68.4241C62.4341 68.3922 62.4309 68.357 62.4277 68.3251" stroke="#5ED1C9" stroke-width="1.25" stroke-miterlimit="10"/>
<path d="M69.8162 67.5508C69.9379 68.5571 69.2141 69.4707 68.2052 69.5921C67.1964 69.7135 66.2804 68.9947 66.1587 67.9852" stroke="#5ED1C9" stroke-width="1.25" stroke-miterlimit="10"/>
<path d="M73.5379 67.1055C73.6596 68.1118 72.9358 69.0254 71.9269 69.1468C70.9181 69.2682 70.0021 68.5494 69.8804 67.5399" stroke="#5ED1C9" stroke-width="1.25" stroke-miterlimit="10"/>
<path d="M68.3689 69.5664C68.3753 69.5984 68.3817 69.6335 68.3849 69.6654C68.5066 70.6717 67.7828 71.5854 66.7739 71.7068C65.7651 71.8282 64.8491 71.1094 64.7274 70.0999C64.7242 70.068 64.721 70.0328 64.7178 70.0009" stroke="#5ED1C9" stroke-width="1.25" stroke-miterlimit="10"/>
<path d="M72.0232 69.1328C72.0296 69.1648 72.036 69.1999 72.0392 69.2318C72.1609 70.2381 71.4371 71.1518 70.4282 71.2732C69.4194 71.3946 68.5034 70.6758 68.3817 69.6663C68.3785 69.6344 68.3753 69.5992 68.3721 69.5673" stroke="#5ED1C9" stroke-width="1.25" stroke-miterlimit="10"/>
<path d="M66.8312 73.957L65.7711 74.4586C64.8391 74.8994 63.8302 75.1326 62.7989 75.139L61.6267 75.1486C61.2456 75.1486 60.9446 74.7525 61.0054 74.3372C61.2168 72.9092 62.1616 71.7304 63.51 71.4205C64.8583 71.1106 66.2227 71.7623 67.0394 72.9539C67.2796 73.3021 67.1803 73.7909 66.8344 73.957H66.8312Z" fill="#0C536C"/>
<path d="M75.5813 73.3135L74.4508 73.5691C73.4579 73.7927 72.433 73.7927 71.4402 73.5691L70.3096 73.3135C69.9413 73.2305 69.7395 72.7737 69.8901 72.3743C70.4089 71.0198 71.5811 70.0742 72.9455 70.0742C74.3098 70.0742 75.4788 71.0198 76.0009 72.3743C76.1546 72.7705 75.9496 73.2305 75.5813 73.3135Z" fill="#0C536C"/>
<path d="M66.9895 58.8979C73.4689 58.1284 78.4778 55.4622 78.177 52.9429C77.8763 50.4236 72.3799 49.0051 65.9005 49.7746C59.4211 50.5442 54.4122 53.2103 54.713 55.7296C55.0137 58.2489 60.5101 59.6674 66.9895 58.8979Z" fill="#21AACB"/>
<path d="M78.5985 53.8966L79.4152 60.7362C79.7835 63.8063 77.5832 66.5919 74.5054 66.9561L61.592 68.4895C61.5536 68.4927 61.5183 68.4991 61.4799 68.5023C58.4469 68.8026 55.715 66.6271 55.3531 63.5954L54.5364 56.7558C54.3186 54.9253 55.6285 53.2641 57.4637 53.0468L74.8769 50.9767C76.7121 50.7595 78.3775 52.0661 78.5953 53.8966H78.5985Z" fill="#21AACB"/>
<path opacity="0.5" d="M71.9656 52.2319C70.5596 52.3981 69.3202 53.0146 68.369 53.9187C67.3729 54.8675 65.8836 55.0432 64.689 54.3563C63.4944 53.6695 62.2005 53.3916 60.7945 53.5577C57.3964 53.9634 54.9271 57.0462 55.2826 60.4421C55.6381 63.8379 58.8056 66.4351 62.2838 66.0198C64.7242 65.7291 66.6715 64.0807 67.4562 61.9244C68.7277 63.8379 71.008 64.9848 73.4485 64.6941C76.9299 64.282 79.4056 61.1065 78.9412 57.6308C78.4768 54.1551 75.3605 51.8262 71.9624 52.2287L71.9656 52.2319Z" fill="white"/>
<path d="M62.4075 66.1143C65.4637 65.7513 67.6613 63.1123 67.3161 60.2198C66.9708 57.3273 64.2134 55.2767 61.1572 55.6397C58.101 56.0026 55.9034 58.6417 56.2487 61.5342C56.594 64.4267 59.3514 66.4772 62.4075 66.1143Z" fill="#3F7789"/>
<path d="M73.2636 64.7256C76.2091 64.3758 78.3267 61.8284 77.9934 59.0358C77.66 56.2431 75.002 54.2629 72.0565 54.6127C69.111 54.9625 66.9934 57.51 67.3267 60.3026C67.6601 63.0952 70.3181 65.0755 73.2636 64.7256Z" fill="#3F7789"/>
<path d="M61.4508 65.7165C64.3711 65.7165 66.7385 63.3552 66.7385 60.4423C66.7385 57.5293 64.3711 55.168 61.4508 55.168C58.5305 55.168 56.1631 57.5293 56.1631 60.4423C56.1631 63.3552 58.5305 65.7165 61.4508 65.7165Z" fill="#F5FBE8"/>
<path d="M72.9489 64.0783C75.7206 64.0783 77.9676 61.8371 77.9676 59.0723C77.9676 56.3076 75.7206 54.0664 72.9489 54.0664C70.1771 54.0664 67.9302 56.3076 67.9302 59.0723C67.9302 61.8371 70.1771 64.0783 72.9489 64.0783Z" fill="#F5FBE8"/>
<path d="M62.5139 64.5201C64.8434 64.5201 66.7319 62.6364 66.7319 60.3128C66.7319 57.9891 64.8434 56.1055 62.5139 56.1055C60.1844 56.1055 58.2959 57.9891 58.2959 60.3128C58.2959 62.6364 60.1844 64.5201 62.5139 64.5201Z" fill="#B6B69E"/>
<path d="M72.2824 63.4929C74.6845 63.4929 76.6317 61.5506 76.6317 59.1547C76.6317 56.7587 74.6845 54.8164 72.2824 54.8164C69.8804 54.8164 67.9331 56.7587 67.9331 59.1547C67.9331 61.5506 69.8804 63.4929 72.2824 63.4929Z" fill="#B6B69E"/>
<path d="M63.6786 63.6415C65.5686 63.4171 66.9023 61.5734 66.6576 59.5237C66.4129 57.4739 64.6825 55.9941 62.7926 56.2186C60.9027 56.443 59.569 58.2867 59.8136 60.3365C60.0583 62.3863 61.7887 63.866 63.6786 63.6415Z" fill="black"/>
<path d="M71.79 62.6806C73.6799 62.4561 75.0136 60.6125 74.7689 58.5627C74.5242 56.5129 72.7938 55.0332 70.9039 55.2577C69.014 55.4821 67.6803 57.3257 67.925 59.3755C68.1696 61.4253 69.9001 62.9051 71.79 62.6806Z" fill="black"/>
<path d="M61.6966 63.8404C62.1112 63.14 61.925 62.2646 61.2808 61.8851C60.6365 61.5057 59.7781 61.7658 59.3635 62.4662C58.9489 63.1666 59.1351 64.042 59.7794 64.4214C60.4237 64.8009 61.282 64.5407 61.6966 63.8404Z" fill="white"/>
<path d="M61.9154 61.6945C62.1736 61.6945 62.383 61.4857 62.383 61.2281C62.383 60.9705 62.1736 60.7617 61.9154 60.7617C61.6571 60.7617 61.4478 60.9705 61.4478 61.2281C61.4478 61.4857 61.6571 61.6945 61.9154 61.6945Z" fill="white"/>
<path d="M72.3631 62.8404C72.7777 62.14 72.5915 61.2646 71.9473 60.8851C71.303 60.5057 70.4446 60.7658 70.03 61.4662C69.6154 62.1666 69.8016 63.042 70.4459 63.4214C71.0902 63.8009 71.9486 63.5407 72.3631 62.8404Z" fill="white"/>
<path d="M72.5804 60.6945C72.8386 60.6945 73.048 60.4857 73.048 60.2281C73.048 59.9705 72.8386 59.7617 72.5804 59.7617C72.3221 59.7617 72.1128 59.9705 72.1128 60.2281C72.1128 60.4857 72.3221 60.6945 72.5804 60.6945Z" fill="white"/>
<path d="M66.1235 63.5082C66.1235 63.5082 67.5616 62.6648 68.3494 62.8405C69.1373 63.0162 69.1725 63.9522 69.1725 63.9522C69.1725 63.9522 68.4263 66.0575 66.1235 63.5082Z" fill="#F1876F"/>
<path d="M65.5374 64.1907C65.5374 64.1907 64.5637 60.5424 67.254 59.9514C69.4127 59.4786 70.7674 62.2899 70.1813 63.5709C69.5952 64.852 69.3646 63.9735 68.6889 63.4783C67.5807 62.6701 66.9178 62.3793 65.5374 64.1875V64.1907Z" fill="#FFAC8F"/>
<g opacity="0.33">
<path d="M127.274 120.622C144.077 120.622 157.7 116.76 157.7 111.997C157.7 107.233 144.077 103.371 127.274 103.371C110.47 103.371 96.8477 107.233 96.8477 111.997C96.8477 116.76 110.47 120.622 127.274 120.622Z" fill="#61A02A"/>
<path d="M169.55 122.217C189.184 122.217 205.1 117.139 205.1 110.876C205.1 104.613 189.184 99.5352 169.55 99.5352C149.916 99.5352 134 104.613 134 110.876C134 117.139 149.916 122.217 169.55 122.217Z" fill="#61A02A"/>
<path d="M191.649 114.232C211.282 114.232 227.199 109.155 227.199 102.892C227.199 96.6282 211.282 91.5508 191.649 91.5508C172.015 91.5508 156.098 96.6282 156.098 102.892C156.098 109.155 172.015 114.232 191.649 114.232Z" fill="#61A02A"/>
<path d="M200.158 108.701C219.792 108.701 235.709 103.624 235.709 97.3604C235.709 91.097 219.792 86.0195 200.158 86.0195C180.524 86.0195 164.608 91.097 164.608 97.3604C164.608 103.624 180.524 108.701 200.158 108.701Z" fill="#61A02A"/>
</g>
<path opacity="0.29" d="M248.231 124.222C247.722 123.644 247.12 123.027 246.457 122.392C241.768 117.89 234.024 112.392 234.024 112.392L235.75 110.984C236.733 106.946 216.703 81.2451 216.703 81.2451C214.955 81.5518 213.302 81.8936 211.73 82.261C210.782 81.2994 210.112 80.6605 210.112 80.6605C210.112 80.6605 208.687 79.8267 204.789 80.3251C203.338 79.9034 198.621 79.306 188.029 84.0595C177.127 88.9505 173.652 90.9247 172.772 91.4646C172.746 91.4646 172.723 91.4646 172.698 91.4646C172.624 91.4646 172.551 91.4646 172.474 91.4646C172.362 91.4646 172.246 91.4646 172.131 91.4646C172.048 91.4646 171.964 91.4646 171.881 91.4646C171.772 91.4646 171.663 91.4646 171.551 91.4678C171.455 91.4678 171.359 91.471 171.263 91.4742C171.164 91.4742 171.061 91.4774 170.962 91.4806C170.84 91.4806 170.715 91.487 170.594 91.4934C170.517 91.4934 170.437 91.4966 170.36 91.4998C170.161 91.5062 169.959 91.5157 169.758 91.5253C169.751 91.5253 169.748 91.5253 169.742 91.5253C169.319 91.5445 168.887 91.5701 168.448 91.602C168.429 91.602 168.413 91.602 168.393 91.6052C168.195 91.6212 167.993 91.6339 167.788 91.6531C167.75 91.6531 167.711 91.6595 167.676 91.6627C167.49 91.6787 167.304 91.6946 167.119 91.7138C167.074 91.717 167.026 91.7234 166.981 91.7266C166.802 91.7426 166.619 91.7617 166.44 91.7809C166.388 91.7873 166.337 91.7937 166.286 91.7969C166.107 91.816 165.93 91.8352 165.751 91.8576C165.693 91.864 165.636 91.8703 165.578 91.8799C165.402 91.9023 165.226 91.9247 165.05 91.947C164.989 91.9566 164.925 91.963 164.864 91.9726C164.691 91.9949 164.515 92.0205 164.339 92.0461C164.275 92.0556 164.211 92.0652 164.143 92.0748C163.967 92.1004 163.794 92.1291 163.618 92.1547C163.551 92.1643 163.487 92.177 163.42 92.1866C163.243 92.2154 163.067 92.2441 162.888 92.2761C162.821 92.2888 162.75 92.3016 162.683 92.3112C162.507 92.3431 162.327 92.3751 162.151 92.407C162.081 92.4198 162.01 92.4326 161.94 92.4486C161.761 92.4837 161.584 92.5189 161.405 92.554C161.335 92.5668 161.264 92.5827 161.19 92.5987C161.011 92.637 160.832 92.6722 160.652 92.7137C160.579 92.7297 160.505 92.7457 160.431 92.7616C160.252 92.8 160.073 92.8415 159.89 92.883C159.816 92.899 159.74 92.9182 159.666 92.9341C159.487 92.9757 159.304 93.0204 159.121 93.0651C159.045 93.0843 158.971 93.1035 158.894 93.1226C158.711 93.1674 158.529 93.2153 158.346 93.2632C158.27 93.2824 158.193 93.3047 158.116 93.3239C157.933 93.3718 157.747 93.4229 157.565 93.474C157.488 93.4964 157.411 93.5156 157.331 93.5379C157.145 93.589 156.96 93.6433 156.774 93.6977C156.697 93.72 156.617 93.7424 156.54 93.7679C156.354 93.8222 156.165 93.8798 155.98 93.9404C155.903 93.966 155.823 93.9884 155.746 94.0139C155.557 94.0746 155.368 94.1353 155.179 94.196C155.099 94.2216 155.022 94.2471 154.942 94.2727C154.753 94.3366 154.561 94.4005 154.372 94.4676C154.295 94.4931 154.215 94.5219 154.138 94.5474C153.946 94.6145 153.754 94.6848 153.561 94.7551C153.485 94.7838 153.405 94.8126 153.328 94.8413C153.132 94.9148 152.937 94.9883 152.742 95.0618C152.665 95.0905 152.591 95.1193 152.514 95.148C152.316 95.2247 152.114 95.3045 151.915 95.3844C151.842 95.4132 151.768 95.4419 151.694 95.4707C151.489 95.5537 151.284 95.64 151.076 95.7262C151.009 95.755 150.938 95.7837 150.871 95.8125C150.65 95.9083 150.426 96.0042 150.202 96.1032C150.151 96.1256 150.096 96.1479 150.045 96.1703C149.769 96.2949 149.491 96.4195 149.215 96.5504C147.851 97.1862 146.615 97.7963 145.497 98.3809C145.478 98.3905 145.459 98.4001 145.443 98.4097C145.241 98.5151 145.039 98.6205 144.844 98.726C144.812 98.7419 144.783 98.7611 144.751 98.7771C144.571 98.8729 144.392 98.9688 144.216 99.0646C144.174 99.087 144.133 99.1093 144.091 99.1317C143.931 99.2211 143.771 99.3074 143.614 99.3968C143.559 99.4256 143.511 99.4543 143.457 99.4863C143.316 99.5661 143.175 99.646 143.041 99.7227C142.976 99.7578 142.919 99.793 142.855 99.8313C142.733 99.9016 142.611 99.9719 142.493 100.042C142.422 100.084 142.355 100.125 142.285 100.167C142.179 100.231 142.073 100.295 141.971 100.355C141.894 100.403 141.82 100.448 141.743 100.496C141.651 100.553 141.561 100.608 141.471 100.665C141.391 100.716 141.314 100.764 141.234 100.815C141.154 100.866 141.074 100.917 140.994 100.965C140.911 101.02 140.827 101.074 140.744 101.128C140.677 101.173 140.606 101.218 140.542 101.259C140.456 101.317 140.373 101.371 140.293 101.429C140.232 101.47 140.171 101.508 140.113 101.55C140.027 101.607 139.947 101.665 139.863 101.723C139.812 101.758 139.758 101.796 139.706 101.831C139.623 101.892 139.54 101.949 139.457 102.01C139.412 102.042 139.364 102.077 139.319 102.109C139.236 102.17 139.152 102.23 139.072 102.291C139.034 102.32 138.992 102.352 138.954 102.381C138.874 102.441 138.794 102.502 138.717 102.563C138.682 102.591 138.643 102.617 138.608 102.646C138.531 102.706 138.454 102.767 138.381 102.825C138.348 102.85 138.313 102.879 138.281 102.905C138.208 102.962 138.137 103.02 138.07 103.08C138.038 103.106 138.006 103.135 137.974 103.16C137.907 103.218 137.842 103.272 137.775 103.329C137.743 103.355 137.711 103.384 137.682 103.409C137.621 103.464 137.561 103.518 137.5 103.572C137.471 103.598 137.439 103.626 137.41 103.652C137.356 103.703 137.301 103.754 137.247 103.802C137.215 103.831 137.186 103.86 137.154 103.888C137.106 103.936 137.058 103.981 137.01 104.029C136.978 104.061 136.946 104.09 136.917 104.122C136.875 104.163 136.834 104.205 136.792 104.249C136.76 104.285 136.725 104.317 136.693 104.352C136.657 104.39 136.622 104.425 136.59 104.46C136.555 104.499 136.52 104.534 136.488 104.572C136.459 104.604 136.43 104.636 136.404 104.665C136.366 104.706 136.331 104.748 136.296 104.789C136.273 104.815 136.254 104.84 136.231 104.866C136.193 104.911 136.155 104.959 136.116 105.003C136.1 105.023 136.087 105.038 136.071 105.058C136.03 105.109 135.988 105.16 135.95 105.211C135.94 105.221 135.934 105.233 135.924 105.243C135.879 105.3 135.838 105.358 135.799 105.412C135.799 105.412 135.796 105.419 135.793 105.422C135.162 106.3 134.957 106.987 134.928 107.482C134.922 107.569 134.922 107.652 134.928 107.728C134.928 107.738 134.928 107.748 134.928 107.757C134.931 107.818 134.941 107.875 134.947 107.926C134.947 107.936 134.947 107.949 134.95 107.958C134.954 107.974 134.957 107.987 134.96 108.003C135.018 108.265 135.117 108.415 135.149 108.457C135.152 108.463 135.155 108.466 135.155 108.466C135.155 108.466 110.542 98.0327 104.87 103.524C99.1983 109.019 100.057 115.558 100.057 115.558C100.057 115.558 103.426 126.909 105.101 127.366C105.962 127.602 107.013 127.886 108.217 128.212C108.698 128.343 109.2 128.477 109.726 128.618C109.947 128.675 110.174 128.739 110.405 128.8C110.648 128.864 110.895 128.931 111.148 128.998C118.956 131.068 130.716 134.058 140.767 136.1C145.548 137.071 149.942 137.825 153.341 138.163C162.353 139.058 163.576 136.895 163.051 134.966C162.689 133.617 161.479 132.381 161.479 132.381C161.479 132.381 161.066 131.781 160.258 130.736C160.761 130.883 161.293 131.036 161.853 131.199C161.946 131.225 162.036 131.253 162.132 131.279C162.222 131.305 162.311 131.33 162.401 131.356C162.769 131.461 163.144 131.57 163.532 131.685C168.813 133.215 176.032 135.291 183.613 137.422C201.285 142.393 220.931 147.677 222.603 147.073C225.687 145.955 221.114 143.326 221.114 143.326L227.535 144.984C240.5 148.741 245.07 149.862 244.82 147.479C244.75 146.808 240.375 142.677 234.123 137.08C229.316 132.78 223.397 127.612 217.466 122.491C218.35 122.813 219.355 123.174 220.492 123.574L220.467 123.532C221.588 123.938 222.76 124.359 223.945 124.775C223.951 124.778 223.958 124.778 223.964 124.781C229.511 126.733 235.334 128.624 237.39 128.739C241.71 128.985 236.893 126.989 237.883 125.97C238.36 125.474 241.118 125.922 243.824 126.513C247.139 127.238 249.717 125.89 248.244 124.219L248.231 124.222Z" fill="#558950"/>
<path opacity="0.29" d="M243.44 111.074C242.95 110.668 242.364 110.234 241.723 109.79C237.185 106.627 229.691 102.768 229.691 102.768L231.362 101.777C232.314 98.9406 212.931 80.8911 212.931 80.8911C211.24 81.1052 209.638 81.3448 208.117 81.6035C207.201 80.9263 206.551 80.479 206.551 80.479C206.551 80.479 205.174 79.8912 201.398 80.2426C199.992 79.9455 195.428 79.5271 185.179 82.8654C174.629 86.2996 171.266 87.6861 170.414 88.0662C170.392 88.0662 170.366 88.0662 170.344 88.0662C170.273 88.0662 170.2 88.0662 170.129 88.0662C170.02 88.0662 169.911 88.0662 169.799 88.0662C169.719 88.0662 169.639 88.0662 169.556 88.0662C169.45 88.0662 169.345 88.0662 169.239 88.0662C169.146 88.0662 169.053 88.0662 168.96 88.0694C168.864 88.0694 168.765 88.0694 168.669 88.0726C168.55 88.0726 168.432 88.079 168.31 88.079C168.233 88.079 168.16 88.0822 168.083 88.0854C167.891 88.0918 167.695 88.095 167.5 88.1046C167.493 88.1046 167.49 88.1046 167.484 88.1046C167.074 88.1173 166.654 88.1365 166.232 88.1589C166.216 88.1589 166.196 88.1589 166.177 88.1589C165.985 88.1684 165.79 88.1812 165.594 88.1908C165.559 88.1908 165.521 88.194 165.485 88.1972C165.306 88.2068 165.127 88.2196 164.947 88.2323C164.902 88.2323 164.858 88.2387 164.813 88.2419C164.64 88.2547 164.464 88.2675 164.287 88.2803C164.239 88.2835 164.188 88.2898 164.137 88.293C163.964 88.3058 163.791 88.3218 163.618 88.3378C163.564 88.341 163.506 88.3473 163.452 88.3537C163.282 88.3697 163.112 88.3857 162.939 88.4017C162.878 88.408 162.821 88.4144 162.76 88.4208C162.59 88.4368 162.42 88.456 162.251 88.4719C162.19 88.4783 162.126 88.4847 162.062 88.4911C161.892 88.5103 161.722 88.5294 161.552 88.5486C161.488 88.555 161.424 88.5646 161.36 88.571C161.19 88.5901 161.018 88.6125 160.848 88.6349C160.78 88.6444 160.716 88.6508 160.649 88.6604C160.479 88.6828 160.306 88.7051 160.134 88.7275C160.066 88.7371 159.999 88.7467 159.929 88.7562C159.756 88.7786 159.583 88.8042 159.41 88.8297C159.342 88.8393 159.272 88.8489 159.202 88.8617C159.029 88.8872 158.856 88.9128 158.68 88.9415C158.609 88.9511 158.539 88.9639 158.465 88.9767C158.292 89.0054 158.116 89.0342 157.943 89.0629C157.869 89.0757 157.799 89.0885 157.725 89.1013C157.549 89.13 157.376 89.162 157.197 89.1939C157.123 89.2067 157.049 89.2195 156.976 89.2323C156.799 89.2642 156.623 89.2961 156.447 89.3313C156.374 89.3441 156.297 89.36 156.223 89.3728C156.047 89.408 155.867 89.4431 155.688 89.4782C155.614 89.4942 155.538 89.507 155.464 89.523C155.285 89.5613 155.105 89.5964 154.926 89.6348C154.849 89.6507 154.775 89.6667 154.698 89.6827C154.519 89.721 154.337 89.7625 154.157 89.8041C154.08 89.8201 154.007 89.8392 153.93 89.8552C153.747 89.8967 153.565 89.9415 153.382 89.983C153.305 90.0022 153.228 90.0181 153.155 90.0373C152.972 90.082 152.786 90.1267 152.601 90.1747C152.524 90.1938 152.45 90.213 152.373 90.2322C152.188 90.2801 152.002 90.328 151.813 90.3791C151.736 90.3983 151.662 90.4174 151.585 90.4398C151.396 90.4909 151.208 90.542 151.019 90.5963C150.945 90.6155 150.871 90.6379 150.798 90.657C150.605 90.7113 150.41 90.7688 150.218 90.8232C150.147 90.8423 150.077 90.8647 150.006 90.8839C149.808 90.9414 149.609 91.0021 149.411 91.0628C149.344 91.0819 149.276 91.1011 149.212 91.1235C148.998 91.1905 148.78 91.2576 148.565 91.3279C148.514 91.3439 148.463 91.3599 148.415 91.3758C148.149 91.4621 147.88 91.5515 147.611 91.641C146.291 92.0882 145.097 92.5163 144.011 92.9284C143.992 92.9348 143.976 92.9412 143.957 92.9476C143.761 93.0211 143.566 93.0977 143.377 93.1712C143.345 93.184 143.316 93.1936 143.287 93.2063C143.111 93.2734 142.938 93.3405 142.772 93.4076C142.73 93.4236 142.691 93.4395 142.653 93.4555C142.496 93.5162 142.342 93.5801 142.192 93.6408C142.141 93.6632 142.093 93.6823 142.041 93.7015C141.904 93.7558 141.769 93.8133 141.638 93.8676C141.577 93.8932 141.519 93.9187 141.458 93.9443C141.34 93.9954 141.221 94.0433 141.106 94.0944C141.039 94.1232 140.972 94.1519 140.904 94.1807C140.802 94.2254 140.699 94.2701 140.6 94.3149C140.526 94.3468 140.453 94.3788 140.382 94.4139C140.293 94.4522 140.203 94.4938 140.12 94.5321C140.043 94.5672 139.966 94.6024 139.892 94.6375C139.815 94.6727 139.735 94.7078 139.662 94.7429C139.578 94.7813 139.502 94.8196 139.421 94.8579C139.357 94.8899 139.29 94.9186 139.226 94.9506C139.143 94.9889 139.063 95.0305 138.983 95.0688C138.925 95.0975 138.867 95.1263 138.81 95.155C138.726 95.1966 138.646 95.2349 138.566 95.2764C138.515 95.302 138.464 95.3276 138.416 95.3531C138.333 95.3946 138.256 95.4362 138.176 95.4777C138.131 95.5001 138.086 95.5256 138.041 95.548C137.961 95.5895 137.881 95.6342 137.804 95.6758C137.766 95.6949 137.727 95.7173 137.689 95.7365C137.609 95.778 137.535 95.8227 137.458 95.8642C137.423 95.8834 137.388 95.9026 137.352 95.9218C137.279 95.9633 137.205 96.0048 137.132 96.0463C137.099 96.0655 137.067 96.0847 137.035 96.1038C136.965 96.1454 136.898 96.1869 136.83 96.2252C136.798 96.2444 136.766 96.2636 136.738 96.2827C136.674 96.3211 136.609 96.3626 136.545 96.4009C136.517 96.4201 136.485 96.4393 136.456 96.4584C136.395 96.4968 136.337 96.5351 136.28 96.5734C136.251 96.5926 136.222 96.6118 136.193 96.631C136.139 96.6661 136.087 96.7012 136.036 96.7364C136.007 96.7555 135.975 96.7779 135.946 96.7971C135.898 96.829 135.854 96.8642 135.806 96.8961C135.774 96.9185 135.745 96.9408 135.716 96.96C135.674 96.9887 135.636 97.0207 135.594 97.0494C135.562 97.0718 135.53 97.0974 135.498 97.1197C135.463 97.1453 135.431 97.1708 135.399 97.1964C135.364 97.222 135.332 97.2475 135.3 97.2763C135.271 97.2986 135.245 97.321 135.219 97.3433C135.184 97.3721 135.149 97.4009 135.114 97.4296C135.091 97.4488 135.072 97.4647 135.053 97.4839C135.014 97.5159 134.979 97.5478 134.941 97.5798C134.928 97.5925 134.912 97.6053 134.899 97.6181C134.858 97.6532 134.819 97.6916 134.784 97.7267C134.777 97.7331 134.768 97.7427 134.761 97.7491C134.72 97.7906 134.678 97.8289 134.64 97.8673C134.64 97.8673 134.637 97.8705 134.633 97.8736C134.022 98.4902 133.823 98.9726 133.794 99.3208C133.788 99.3815 133.788 99.439 133.794 99.4933C133.794 99.4997 133.794 99.5061 133.794 99.5157C133.797 99.5572 133.804 99.5987 133.813 99.6339C133.813 99.6403 133.813 99.6499 133.817 99.6562C133.82 99.669 133.823 99.6754 133.826 99.6882C133.881 99.8735 133.98 99.9789 134.009 100.008C134.012 100.011 134.015 100.014 134.015 100.014C134.015 100.014 110.196 92.6856 104.71 96.5415C99.2207 100.401 100.053 104.994 100.053 104.994C100.053 104.994 103.314 112.965 104.934 113.288C105.767 113.454 106.782 113.655 107.948 113.882C108.413 113.971 108.899 114.067 109.409 114.166C109.623 114.208 109.844 114.252 110.068 114.294C110.302 114.339 110.542 114.387 110.786 114.431C118.341 115.885 129.72 117.987 139.447 119.418C144.075 120.098 148.325 120.629 151.614 120.868C160.335 121.498 161.517 119.977 161.011 118.623C160.662 117.674 159.487 116.808 159.487 116.808C159.487 116.808 159.086 116.386 158.305 115.652C158.792 115.754 159.304 115.862 159.849 115.977C159.938 115.997 160.025 116.016 160.118 116.035C160.204 116.051 160.29 116.07 160.377 116.089C160.732 116.163 161.094 116.239 161.472 116.319C166.584 117.393 173.569 118.853 180.903 120.348C198.006 123.839 217.017 127.548 218.635 127.123C221.62 126.338 217.193 124.491 217.193 124.491L223.41 125.657C235.958 128.296 240.378 129.085 240.135 127.411C240.067 126.941 235.833 124.037 229.783 120.108C225.13 117.086 219.407 113.457 213.664 109.86C214.519 110.087 215.493 110.339 216.595 110.62L216.569 110.591C217.651 110.876 218.788 111.173 219.935 111.463C219.941 111.463 219.948 111.463 219.954 111.467C225.322 112.837 230.956 114.166 232.945 114.246C237.127 114.418 232.464 113.016 233.422 112.3C233.883 111.952 236.554 112.265 239.171 112.684C242.38 113.192 244.875 112.246 243.446 111.074H243.44Z" fill="#558950"/>
<path d="M83.8093 45.7246C84.3474 45.6064 84.7765 45.5074 84.9207 45.1528C85.0648 44.7982 84.9143 44.3893 84.1872 44.0986C83.7581 43.9261 83.2584 43.9037 82.7716 44.0123C82.3489 44.105 81.9229 43.8654 81.782 43.4565L81.4457 42.4981C81.292 42.0636 81.5354 41.5908 81.9774 41.4598C83.1367 41.1212 84.4114 41.2202 85.5356 41.6675C87.7615 42.5556 88.7127 44.1848 88.0658 45.8013C87.5053 47.1973 86.3875 47.4944 85.4235 47.7532C84.7285 47.9257 84.12 48.0727 83.9054 48.6125C83.8862 48.6605 83.8702 48.7116 83.8574 48.7595C83.7709 49.1045 83.4346 49.3249 83.0791 49.2802L81.9261 49.1301C81.5834 49.0853 81.3208 48.801 81.3048 48.456C81.2888 48.111 81.3496 47.7085 81.513 47.306C81.9773 46.1431 83.0182 45.8971 83.8125 45.7246H83.8093ZM81.6283 49.9958C83.0439 50.0597 83.7677 51.7465 82.8389 52.8134C82.4994 53.2032 81.9902 53.4204 81.4713 53.3981C80.0557 53.331 79.3319 51.6474 80.2607 50.5804C80.6002 50.1907 81.1094 49.9734 81.6283 49.9958Z" fill="#5ED1C9"/>
<path d="M153.968 57.4134C153.904 57.5028 153.84 57.5891 153.776 57.6753C152.45 59.4483 150.429 60.1352 148.527 59.8892C146.903 59.6816 145.362 58.7903 144.424 57.3144C144.152 56.8863 143.931 56.4103 143.771 55.8864L143.604 55.3369C143.604 55.3369 143.723 54.9663 143.976 54.3466C144.808 52.2988 147.105 47.5101 151.451 44.1781C152.152 43.6383 152.908 43.1399 153.721 42.6958C154.288 42.386 154.987 42.386 155.525 42.7406C156.011 43.0632 156.373 43.6191 155.87 44.5615C155.115 45.9735 154.298 46.8233 153.936 47.1587C154.48 46.6987 156.069 45.5167 157.02 46.491C158.795 48.312 158.404 51.2286 153.974 57.4134H153.968Z" fill="#3586A7"/>
<path opacity="0.67" d="M151.444 44.1797C151.444 44.1797 145.833 50.6647 145.59 54.3673C145.25 59.5074 148.526 59.8907 148.526 59.8907C146.903 59.6831 145.362 58.7918 144.424 57.3159L143.972 54.3481C144.805 52.3004 147.101 47.5117 151.447 44.1797H151.444Z" fill="#0C536C"/>
<path d="M129.278 73.863C129.342 73.7735 129.4 73.6809 129.461 73.5946C130.681 71.7481 130.636 69.6173 129.759 67.9178C129.006 66.4643 127.645 65.327 125.931 64.9468C125.435 64.8382 124.91 64.7903 124.362 64.8222L123.789 64.851C123.789 64.851 123.481 65.0874 122.982 65.5378C121.335 67.0169 117.607 70.8025 115.948 76.0129C115.679 76.8531 115.468 77.7348 115.324 78.6453C115.225 79.281 115.462 79.9391 115.984 80.3193C116.454 80.6675 117.101 80.8144 117.816 80.0222C118.889 78.8338 119.411 77.7764 119.603 77.3227C119.356 77.9872 118.783 79.8848 120.026 80.4407C122.344 81.4821 124.961 80.1244 129.281 73.8598L129.278 73.863Z" fill="#3586A7"/>
<path opacity="0.67" d="M115.948 76.0114C115.948 76.0114 120.144 68.5392 123.552 67.0474C128.282 64.9773 129.758 67.9163 129.758 67.9163C129.006 66.4627 127.645 65.3255 125.931 64.9453L122.981 65.5363C121.335 67.0154 117.607 70.801 115.948 76.0114Z" fill="#0C536C"/>
<path d="M145.612 56.9023C147.534 60.4995 145.093 65.9239 139.956 69.2655C134.819 72.607 128.855 72.6421 126.332 69.438C126.386 69.4028 126.444 69.3677 126.498 69.3325L145.612 56.9055V56.9023Z" fill="#00C3C7"/>
<path d="M133.096 64.8984C133.131 64.9464 133.166 64.9943 133.198 65.0422C134.175 66.5341 133.749 68.5339 132.253 69.5083C130.758 70.4826 128.753 70.0609 127.776 68.5658C127.744 68.5179 127.712 68.4668 127.683 68.4157" stroke="#5ED1C9" stroke-width="2.2" stroke-miterlimit="10"/>
<path d="M138.717 61.4531C139.693 62.945 139.268 64.9448 137.772 65.9192C136.276 66.8935 134.271 66.4718 133.294 64.9768" stroke="#5ED1C9" stroke-width="2.2" stroke-miterlimit="10"/>
<path d="M144.235 57.8672C145.212 59.3591 144.786 61.3589 143.29 62.3332C141.794 63.3076 139.789 62.8859 138.812 61.3908" stroke="#5ED1C9" stroke-width="2.2" stroke-miterlimit="10"/>
<path d="M138.015 65.7617C138.05 65.8096 138.086 65.8576 138.118 65.9055C139.094 67.3974 138.669 69.3972 137.173 70.3715C135.677 71.3459 133.672 70.9242 132.695 69.4291C132.663 69.3812 132.631 69.3301 132.603 69.279" stroke="#5ED1C9" stroke-width="2.2" stroke-miterlimit="10"/>
<path d="M143.435 62.2383C143.47 62.2862 143.505 62.3341 143.537 62.382C144.514 63.8739 144.088 65.8737 142.592 66.8481C141.097 67.8224 139.092 67.4008 138.115 65.9057C138.083 65.8578 138.051 65.8067 138.022 65.7555" stroke="#5ED1C9" stroke-width="2.2" stroke-miterlimit="10"/>
<path d="M139.018 73.8666L137.743 75.483C136.619 76.9046 135.21 78.0515 133.589 78.8661L131.748 79.7894C131.149 80.0896 130.364 79.6999 130.133 78.9907C129.352 76.5756 129.922 73.9848 131.802 72.4514C133.682 70.9179 136.343 70.8796 138.557 72.1287C139.207 72.4929 139.434 73.3394 139.018 73.8666Z" fill="#0C536C"/>
<path d="M152.303 66.061L150.721 67.342C149.331 68.4697 147.72 69.262 145.977 69.6805L143.998 70.1565C143.354 70.3098 142.678 69.7476 142.608 69.0032C142.368 66.4667 143.476 64.0676 145.625 63.007C147.771 61.9496 150.355 62.5278 152.232 64.2561C152.783 64.764 152.822 65.6425 152.306 66.0578L152.303 66.061Z" fill="#0C536C"/>
<path d="M127.515 50.0068C137.121 43.7604 142.93 35.6702 140.49 31.9367C138.05 28.2032 128.285 30.2404 118.679 36.4868C109.072 42.7332 103.263 50.8234 105.703 54.5569C108.143 58.2904 117.908 56.2532 127.515 50.0068Z" fill="#21AACB"/>
<path d="M141.897 33.1228L148.524 43.2625C151.499 47.8148 150.212 53.9101 145.648 56.8779L126.502 69.3272C126.447 69.3624 126.39 69.3975 126.335 69.4327C121.79 72.2631 115.792 70.9565 112.852 66.4585L106.225 56.3188C104.451 53.6034 105.22 49.9711 107.942 48.2013L133.762 31.4137C136.485 29.6439 140.126 30.4106 141.9 33.126L141.897 33.1228Z" fill="#21AACB"/>
<path opacity="0.5" d="M130.146 35.6538C128.061 37.0083 126.588 38.9442 125.797 41.107C124.967 43.3783 122.761 44.8127 120.343 44.653C118.04 44.5028 115.667 45.0651 113.585 46.4228C108.547 49.7004 107.064 56.4794 110.28 61.5524C113.582 66.7628 120.506 68.2579 125.665 64.9004C129.285 62.5459 131.065 58.4377 130.617 54.4285C134.114 56.457 138.601 56.489 142.22 54.1346C147.38 50.7802 148.805 43.8575 145.359 38.7398C142.006 33.7594 135.187 32.3761 130.149 35.6506L130.146 35.6538Z" fill="white"/>
<path d="M125.935 64.932C130.466 61.9856 131.867 56.12 129.063 51.8308C126.26 47.5416 120.314 46.4531 115.783 49.3995C111.252 52.3459 109.851 58.2115 112.654 62.5006C115.457 66.7898 121.403 67.8784 125.935 64.932Z" fill="#3F7789"/>
<path d="M141.947 54.3099C146.315 51.4695 147.663 45.8108 144.957 41.6709C142.252 37.531 136.517 36.4775 132.149 39.3179C127.78 42.1583 126.433 47.817 129.138 51.9569C131.844 56.0968 137.578 57.1503 141.947 54.3099Z" fill="#3F7789"/>
<path d="M119.987 66.0258C125.12 66.0258 129.282 61.8752 129.282 56.7551C129.282 51.635 125.12 47.4844 119.987 47.4844C114.854 47.4844 110.693 51.635 110.693 56.7551C110.693 61.8752 114.854 66.0258 119.987 66.0258Z" fill="#F5FBE8"/>
<path d="M137.038 54.4694C141.911 54.4694 145.862 50.529 145.862 45.6683C145.862 40.8076 141.911 36.8672 137.038 36.8672C132.165 36.8672 128.215 40.8076 128.215 45.6683C128.215 50.529 132.165 54.4694 137.038 54.4694Z" fill="#F5FBE8"/>
<path d="M121.566 63.1206C125.659 63.1206 128.977 59.8109 128.977 55.7282C128.977 51.6456 125.659 48.3359 121.566 48.3359C117.473 48.3359 114.155 51.6456 114.155 55.7282C114.155 59.8109 117.473 63.1206 121.566 63.1206Z" fill="#B6B69E"/>
<path d="M136.052 53.9346C140.274 53.9346 143.697 50.5206 143.697 46.3091C143.697 42.0977 140.274 38.6836 136.052 38.6836C131.83 38.6836 128.407 42.0977 128.407 46.3091C128.407 50.5206 131.83 53.9346 136.052 53.9346Z" fill="#B6B69E"/>
<path d="M126.006 60.0528C128.809 58.2299 129.471 54.2874 127.484 51.2472C125.497 48.2069 121.614 47.2201 118.81 49.043C116.007 50.866 115.345 54.8084 117.332 57.8486C119.319 60.8889 123.202 61.8758 126.006 60.0528Z" fill="black"/>
<path d="M138.03 52.2325C140.834 50.4095 141.496 46.4671 139.509 43.4268C137.522 40.3866 133.639 39.3997 130.835 41.2227C128.031 43.0456 127.37 46.9881 129.357 50.0283C131.343 53.0686 135.227 54.0554 138.03 52.2325Z" fill="black"/>
<path d="M123.039 61.9245C123.146 60.4993 122.17 59.2651 120.859 59.1677C119.548 59.0703 118.4 60.1467 118.293 61.5719C118.187 62.997 119.163 64.2313 120.474 64.3287C121.784 64.426 122.933 63.3497 123.039 61.9245Z" fill="white"/>
<path d="M121.332 58.4506C121.787 58.4506 122.155 58.083 122.155 57.6296C122.155 57.1762 121.787 56.8086 121.332 56.8086C120.878 56.8086 120.509 57.1762 120.509 57.6296C120.509 58.083 120.878 58.4506 121.332 58.4506Z" fill="white"/>
<path d="M139.063 52.0651C139.17 50.64 138.194 49.4057 136.883 49.3083C135.572 49.211 134.424 50.2873 134.317 51.7125C134.211 53.1377 135.187 54.3719 136.498 54.4693C137.808 54.5667 138.957 53.4903 139.063 52.0651Z" fill="white"/>
<path d="M137.359 48.5912C137.813 48.5912 138.182 48.2237 138.182 47.7702C138.182 47.3168 137.813 46.9492 137.359 46.9492C136.904 46.9492 136.536 47.3168 136.536 47.7702C136.536 48.2237 136.904 48.5912 137.359 48.5912Z" fill="white"/>
<path d="M129.746 57.9548C129.746 57.9548 131.351 55.511 132.731 55.1723C134.111 54.8337 134.899 56.2841 134.899 56.2841C134.899 56.2841 135.367 60.1815 129.746 57.9548Z" fill="#F1876F"/>
<path d="M129.358 59.4857C129.358 59.4857 124.974 54.4925 128.756 51.4736C131.786 49.0553 136.119 52.4288 136.193 54.9014C136.267 57.374 135.219 56.1729 133.769 55.9173C131.392 55.502 130.121 55.5627 129.358 59.4857Z" fill="#FFAC8F"/>
<g opacity="0.55">
<path d="M120.195 116.634C135.22 116.634 147.399 113.182 147.399 108.923C147.399 104.664 135.22 101.211 120.195 101.211C105.171 101.211 92.9912 104.664 92.9912 108.923C92.9912 113.182 105.171 116.634 120.195 116.634Z" fill="url(#paint13_linear_3306_6255)"/>
<path d="M162.478 118.382C180.032 118.382 194.262 113.27 194.262 106.964C194.262 100.659 180.032 95.5469 162.478 95.5469C144.924 95.5469 130.694 100.659 130.694 106.964C130.694 113.27 144.924 118.382 162.478 118.382Z" fill="url(#paint14_linear_3306_6255)"/>
<path d="M196.968 110.715C214.522 110.715 228.752 107.841 228.752 104.297C228.752 100.752 214.522 97.8789 196.968 97.8789C179.414 97.8789 165.184 100.752 165.184 104.297C165.184 107.841 179.414 110.715 196.968 110.715Z" fill="url(#paint15_linear_3306_6255)"/>
<path d="M201.375 103.683C218.929 103.683 233.159 100.157 233.159 95.8083C233.159 91.4592 218.929 87.9336 201.375 87.9336C183.821 87.9336 169.591 91.4592 169.591 95.8083C169.591 100.157 183.821 103.683 201.375 103.683Z" fill="url(#paint16_linear_3306_6255)"/>
</g>
<path d="M232.506 94.7191C221.245 99.1149 210.753 99.1053 203.194 98.0447C195.978 97.0352 191.434 95.0705 191.434 95.0705L180.833 85.1736L179.875 59.8787C179.875 59.8787 180.663 54.9016 181.758 49.8189C181.758 49.8126 181.761 49.8094 181.761 49.803C182.757 45.19 184 40.4939 185.14 39.3598C187.533 36.9734 187.052 41.267 188.968 41.743C189.896 41.9762 191.056 40.1776 191.997 38.2673C193.154 35.9288 196.478 35.9224 197.676 38.2417C198.092 39.0435 198.496 39.9285 198.89 40.8613C201.67 47.4677 203.799 56.5404 203.799 56.5404L206.669 57.0164C212.412 60.3579 232.506 94.7191 232.506 94.7191Z" fill="#BB4189"/>
<path opacity="0.23" d="M198.89 40.8613C196.984 46.3752 191.738 50.3365 185.563 50.3365C184.244 50.3365 182.969 50.1576 181.758 49.8189C181.758 49.8126 181.762 49.8094 181.762 49.803C182.758 45.19 184 40.4939 185.14 39.3598C187.533 36.9734 187.052 41.267 188.968 41.743C189.896 41.9762 191.056 40.1776 191.997 38.2673C193.154 35.9288 196.478 35.9224 197.676 38.2417C198.092 39.0435 198.496 39.9285 198.89 40.8613Z" fill="#ED80D0"/>
<path opacity="0.36" d="M203.194 98.0423C195.978 97.0328 191.434 95.0682 191.434 95.0682L180.833 85.1713L179.875 59.8764C179.875 59.8764 180.026 57.7648 181.121 52.6758L184.977 58.0842C191.716 67.5307 196.657 78.1336 199.562 89.3594L203.191 98.0423H203.194Z" fill="#872364"/>
<path opacity="0.36" d="M229.117 98.5554C229.117 98.5554 223.474 84.9241 220.393 84.9241C217.312 84.9241 216.287 87.9526 216.287 87.9526C216.287 87.9526 210.644 70.2832 204.485 70.788C198.326 71.2927 191.965 104.686 191.965 104.686C191.965 104.686 195.761 105.117 212.693 104.108C229.626 103.098 229.114 98.5554 229.114 98.5554H229.117Z" fill="#872364"/>
<path opacity="0.21" d="M150.817 111.975C147.566 110.793 146.864 109.512 146.864 109.512L132.029 103.784L132.987 79.9236C132.987 79.9236 133.823 77.3455 135.155 73.3555C135.914 74.4065 136.315 75.285 136.315 75.285C136.315 75.285 147.976 93.2195 150.817 111.975Z" fill="#BB4189"/>
<path d="M196.622 101.398C196.622 101.398 196.606 101.44 196.568 101.52C196.382 101.906 195.719 103.181 194.274 104.775C193.666 105.443 192.923 106.168 192.02 106.909C188.253 109.989 181.71 113.311 170.786 113.806C160.137 114.289 154.141 113.186 150.817 111.976C150.714 111.937 150.615 111.902 150.519 111.864C150.391 111.816 150.266 111.765 150.147 111.717C150.006 111.659 149.875 111.602 149.747 111.544C149.564 111.464 149.398 111.385 149.238 111.305C149.1 111.238 148.972 111.171 148.85 111.103C148.152 110.723 147.684 110.372 147.38 110.097C147.351 110.068 147.326 110.043 147.3 110.021C147.233 109.957 147.175 109.899 147.127 109.845C147.095 109.81 147.066 109.778 147.041 109.749C146.983 109.682 146.941 109.628 146.916 109.589C146.903 109.573 146.893 109.557 146.887 109.548C146.871 109.525 146.864 109.513 146.864 109.513L134.556 104.759L132.029 103.785L132.295 97.1782L132.622 89L132.987 79.9242C132.987 79.9242 133.006 79.8603 133.061 79.7006C133.064 79.6878 133.067 79.675 133.073 79.659C133.073 79.6526 133.077 79.6494 133.08 79.643C133.086 79.6207 133.093 79.5951 133.102 79.5696C133.112 79.544 133.118 79.5185 133.128 79.4897C133.131 79.4801 133.134 79.4673 133.137 79.4578C133.147 79.429 133.16 79.3971 133.169 79.3619C133.176 79.3428 133.185 79.3172 133.192 79.2948C133.201 79.2661 133.211 79.2373 133.221 79.2054C133.23 79.1798 133.24 79.1511 133.25 79.1223C133.256 79.1032 133.262 79.0808 133.269 79.0584C133.285 79.0169 133.298 78.9722 133.314 78.9243C133.32 78.9083 133.323 78.8923 133.33 78.8763C133.371 78.7518 133.419 78.608 133.471 78.4483C133.49 78.3876 133.512 78.3237 133.531 78.2566C133.554 78.1959 133.573 78.132 133.595 78.0681C133.602 78.0521 133.608 78.0362 133.611 78.0202C133.621 77.985 133.634 77.9499 133.643 77.9148C133.778 77.5154 133.929 77.0586 134.095 76.5507C134.121 76.474 134.146 76.3973 134.172 76.3175C134.217 76.1801 134.265 76.0395 134.313 75.8926C134.338 75.8095 134.367 75.7297 134.393 75.6498C134.431 75.5316 134.47 75.4166 134.511 75.2952C134.601 75.0205 134.697 74.7361 134.793 74.439C134.835 74.324 134.873 74.2058 134.912 74.0876C134.992 73.8544 135.072 73.6116 135.152 73.3657C135.152 73.3657 135.152 73.3593 135.152 73.3561C136.516 69.2734 138.4 63.7084 140.44 57.9102C145.193 44.3906 150.788 29.5932 152.6 29.3344C155.951 28.8585 156.428 33.6312 156.428 33.6312L158.343 28.8585C161.693 18.837 163.128 15.4954 165.998 17.8818C166.805 18.5527 169.312 24.6512 172.502 33.0753C174.952 39.5508 177.809 47.3999 180.599 55.2139C180.618 55.265 180.637 55.313 180.653 55.3641C186.533 71.8131 192.129 88.0576 193.115 90.9296C193.218 91.2235 193.269 91.3768 193.269 91.3768L194.249 94.3063L194.367 94.6641L194.902 96.2678L195.149 97.0153L196.616 101.398H196.622Z" fill="#F4BAE1"/>
<path opacity="0.21" d="M196.622 101.398C196.622 101.398 191.837 112.854 170.786 113.806C149.734 114.761 146.864 109.513 146.864 109.513L132.029 103.785L132.295 97.1782L132.622 89L146.864 94.4979C146.864 94.4979 149.734 99.7466 170.786 98.7915C182.86 98.2452 189.582 94.2455 193.118 90.9295C193.221 91.2234 193.272 91.3768 193.272 91.3768L195.155 97.0153L196.622 101.398Z" fill="#BB4189"/>
<path opacity="0.44" d="M195.156 97.0153C192.52 100.418 185.775 106.42 170.786 107.097C149.734 108.053 146.865 102.804 146.865 102.804L132.295 97.1782L132.622 89L146.865 94.4979C146.865 94.4979 149.734 99.7466 170.786 98.7915C182.86 98.2452 189.583 94.2455 193.119 90.9295C193.221 91.2234 193.272 91.3768 193.272 91.3768L195.156 97.0153Z" fill="#F4BAE1"/>
<path opacity="0.21" d="M150.817 111.975C147.566 110.793 146.864 109.512 146.864 109.512L132.029 103.784L132.987 79.9239C132.987 79.9239 133.307 78.924 134.64 74.9339C135.28 74.6144 136.315 75.2853 136.315 75.2853C136.315 75.2853 150.973 90.5874 150.817 111.975Z" fill="#BB4189"/>
<path d="M146.864 109.513C146.864 109.513 128.202 114.762 117.678 112.376C107.151 109.989 103.323 108.558 103.323 108.558C103.323 108.558 103.605 107.753 104.114 106.376C104.159 106.252 104.207 106.124 104.258 105.987C104.345 105.753 104.435 105.511 104.531 105.255C104.566 105.162 104.601 105.066 104.636 104.971C104.854 104.389 105.094 103.75 105.357 103.063C105.421 102.897 105.485 102.725 105.552 102.552C105.623 102.37 105.693 102.185 105.767 101.996C108.028 96.1439 111.593 87.4482 115.295 80.5064C117.057 77.2031 118.85 74.2993 120.548 72.2867C125.054 66.9485 128.567 68.3924 130.691 70.4849C132.177 71.9448 132.987 73.721 132.987 73.721C132.987 73.721 133.493 74.4973 134.313 75.8902L134.316 75.8997C136.158 79.0273 139.572 85.2472 142.441 92.7896C143.575 95.7734 144.626 98.968 145.455 102.258C145.478 102.345 145.5 102.434 145.519 102.524C145.727 103.351 145.92 104.185 146.093 105.022C146.121 105.156 146.15 105.287 146.176 105.421C146.224 105.654 146.269 105.887 146.314 106.124C146.474 106.958 146.618 107.795 146.74 108.632C146.784 108.926 146.826 109.219 146.864 109.513Z" fill="#ED80D0"/>
<path opacity="0.23" d="M146.864 109.513C146.864 109.513 128.202 114.762 117.678 112.375C107.151 109.989 103.323 108.558 103.323 108.558C103.323 108.558 104.255 105.913 105.767 101.996C107.961 102.648 111.762 103.686 117.678 105.028C126.505 107.028 141.055 103.66 145.519 102.523C146.093 104.82 146.554 107.162 146.864 109.513Z" fill="#BB4189"/>
<path d="M210.977 106.333C195.187 107.288 191.648 106.879 191.648 106.879C191.648 106.879 193.967 94.5322 197.112 85.1657C198.992 79.5559 201.17 75.0132 203.322 74.8343C204.969 74.6969 206.576 75.9748 208.034 77.8692C211.65 82.5684 214.327 91.0597 214.327 91.0597C214.327 91.0597 215.281 88.1973 218.154 88.1973C221.027 88.1973 226.286 101.081 226.286 101.081C226.286 101.081 226.766 105.378 210.977 106.333Z" fill="#ED80D0"/>
<path opacity="0.21" d="M210.977 106.336C195.187 107.291 191.648 106.882 191.648 106.882C191.648 106.882 192.055 104.716 192.76 101.509C194.742 101.573 199.777 101.582 210.977 100.905C219.269 100.403 223.074 98.9785 224.816 97.7422C225.7 99.6526 226.286 101.084 226.286 101.084C226.286 101.084 226.766 105.38 210.977 106.336Z" fill="#BB4189"/>
<path opacity="0.29" d="M208.034 77.8692C207.057 82.2394 203.531 85.4755 199.335 85.4755C198.57 85.4755 197.823 85.3669 197.112 85.1657C198.992 79.5559 201.17 75.0132 203.322 74.8343C204.969 74.6969 206.576 75.9748 208.034 77.8692Z" fill="#F4BAE1"/>
<path opacity="0.22" d="M223.458 156.083C235.76 156.083 245.733 154.609 245.733 152.79C245.733 150.971 235.76 149.496 223.458 149.496C211.156 149.496 201.183 150.971 201.183 152.79C201.183 154.609 211.156 156.083 223.458 156.083Z" fill="#282C2D"/>
<path opacity="0.22" d="M223.458 154.815C231.029 154.815 237.166 153.907 237.166 152.786C237.166 151.666 231.029 150.758 223.458 150.758C215.888 150.758 209.75 151.666 209.75 152.786C209.75 153.907 215.888 154.815 223.458 154.815Z" fill="#282C2D"/>
<path d="M242.601 143.548C242.505 143.599 242.406 143.65 242.313 143.698C240.333 144.705 238.213 144.423 236.612 143.363C235.244 142.456 234.261 140.976 234.072 139.232C234.018 138.727 234.03 138.2 234.12 137.66L234.213 137.092C234.213 137.092 234.485 136.814 234.988 136.367C236.647 134.897 240.839 131.613 246.226 130.546C247.098 130.374 247.997 130.259 248.926 130.22C249.573 130.195 250.201 130.501 250.524 131.06C250.819 131.565 250.896 132.226 250.025 132.849C248.718 133.782 247.607 134.185 247.133 134.325C247.825 134.153 249.781 133.795 250.201 135.089C250.982 137.507 249.336 139.957 242.604 143.551L242.601 143.548Z" fill="#3586A7"/>
<path opacity="0.67" d="M246.226 130.547C246.226 130.547 238.3 133.885 236.432 137.102C233.838 141.568 236.609 143.364 236.609 143.364C235.241 142.456 234.258 140.977 234.069 139.233L234.985 136.367C236.644 134.898 240.836 131.614 246.223 130.547H246.226Z" fill="#0C536C"/>
<path d="M213.107 147.393C213.203 147.339 213.299 147.285 213.389 147.23C215.304 146.112 216.213 144.18 216.181 142.263C216.153 140.627 215.435 139.001 214.068 137.902C213.67 137.586 213.219 137.311 212.713 137.094L212.184 136.867C212.184 136.867 211.803 136.944 211.153 137.126C209.017 137.727 203.982 139.474 200.174 143.419C199.559 144.055 198.976 144.751 198.441 145.509C198.07 146.036 197.99 146.732 198.288 147.304C198.557 147.825 199.072 148.243 200.065 147.85C201.558 147.256 202.496 146.54 202.871 146.218C202.352 146.707 200.994 148.154 201.862 149.205C203.483 151.166 206.435 151.106 213.104 147.393H213.107Z" fill="#3586A7"/>
<path opacity="0.67" d="M200.174 143.419C200.174 143.419 207.268 138.566 210.993 138.736C216.162 138.969 216.182 142.266 216.182 142.266C216.153 140.63 215.435 139.004 214.068 137.905L211.153 137.129C209.017 137.729 203.982 139.477 200.174 143.422V143.419Z" fill="#0C536C"/>
<path d="M235.327 139.391C235.452 143.47 230.847 147.262 224.745 147.987C218.644 148.712 213.273 146.106 212.434 142.109C212.498 142.103 212.565 142.096 212.629 142.087L235.327 139.391Z" fill="#00C3C7"/>
<path d="M220.524 141.027C220.537 141.085 220.543 141.142 220.55 141.203C220.761 142.976 219.493 144.583 217.715 144.797C215.938 145.011 214.327 143.743 214.112 141.97C214.106 141.912 214.099 141.852 214.096 141.794" stroke="#5ED1C9" stroke-width="2.21" stroke-miterlimit="10"/>
<path d="M227.105 140.426C227.317 142.199 226.049 143.806 224.271 144.02C222.494 144.234 220.883 142.965 220.668 141.192" stroke="#5ED1C9" stroke-width="2.21" stroke-miterlimit="10"/>
<path d="M233.659 139.645C233.87 141.418 232.602 143.024 230.824 143.238C229.047 143.452 227.436 142.184 227.221 140.411" stroke="#5ED1C9" stroke-width="2.21" stroke-miterlimit="10"/>
<path d="M224.556 143.984C224.569 144.042 224.576 144.099 224.582 144.16C224.793 145.933 223.525 147.54 221.748 147.754C219.97 147.968 218.359 146.7 218.144 144.927C218.138 144.869 218.132 144.809 218.128 144.751" stroke="#5ED1C9" stroke-width="2.21" stroke-miterlimit="10"/>
<path d="M230.994 143.219C231.007 143.276 231.013 143.334 231.019 143.394C231.231 145.167 229.963 146.774 228.185 146.988C226.407 147.199 224.797 145.934 224.582 144.161C224.576 144.104 224.569 144.043 224.566 143.985" stroke="#5ED1C9" stroke-width="2.21" stroke-miterlimit="10"/>
<path d="M221.85 151.71L219.986 152.595C218.347 153.374 216.569 153.78 214.75 153.793L212.684 153.809C212.012 153.815 211.48 153.115 211.589 152.377C211.96 149.863 213.626 147.787 215.996 147.244C218.366 146.701 220.774 147.844 222.206 149.943C222.626 150.56 222.456 151.419 221.847 151.707L221.85 151.71Z" fill="#0C536C"/>
<path d="M237.259 150.578L235.27 151.029C233.518 151.425 231.718 151.425 229.969 151.029L227.98 150.578C227.333 150.431 226.978 149.626 227.244 148.926C228.16 146.54 230.222 144.879 232.621 144.879C235.02 144.879 237.082 146.543 237.998 148.926C238.267 149.626 237.912 150.431 237.262 150.578H237.259Z" fill="#0C536C"/>
<path d="M222.131 125.206C233.539 123.851 242.358 119.158 241.829 114.724C241.299 110.29 231.622 107.794 220.214 109.148C208.807 110.503 199.988 115.196 200.517 119.63C201.046 124.065 210.723 126.561 222.131 125.206Z" fill="#21AACB"/>
<path d="M242.572 116.389L244.01 128.429C244.657 133.835 240.785 138.738 235.366 139.384L212.63 142.086C212.565 142.093 212.498 142.102 212.434 142.109C207.092 142.639 202.288 138.805 201.647 133.467L200.209 121.427C199.825 118.203 202.131 115.28 205.363 114.894L236.022 111.249C239.254 110.865 242.184 113.166 242.572 116.389Z" fill="#21AACB"/>
<path opacity="0.5" d="M230.892 113.457C228.416 113.751 226.232 114.834 224.557 116.428C222.801 118.099 220.178 118.412 218.081 117.198C215.983 115.984 213.699 115.499 211.224 115.796C205.241 116.508 200.891 121.939 201.519 127.919C202.166 134.059 207.72 138.468 213.847 137.739C218.145 137.228 221.572 134.328 222.955 130.526C225.194 133.896 229.21 135.912 233.508 135.401C239.635 134.673 243.997 129.085 243.177 122.964C242.357 116.843 236.874 112.748 230.892 113.454V113.457Z" fill="white"/>
<path d="M214.065 137.911C219.445 137.272 223.314 132.626 222.706 127.533C222.098 122.44 217.244 118.829 211.864 119.468C206.484 120.107 202.615 124.754 203.223 129.847C203.831 134.939 208.685 138.55 214.065 137.911Z" fill="#3F7789"/>
<path d="M233.174 135.464C238.361 134.848 242.09 130.364 241.503 125.448C240.916 120.532 236.236 117.046 231.049 117.662C225.862 118.278 222.133 122.763 222.72 127.679C223.307 132.595 227.987 136.08 233.174 135.464Z" fill="#3F7789"/>
<path d="M212.377 137.198C217.519 137.198 221.687 133.041 221.687 127.912C221.687 122.783 217.519 118.625 212.377 118.625C207.235 118.625 203.066 122.783 203.066 127.912C203.066 133.041 207.235 137.198 212.377 137.198Z" fill="#F5FBE8"/>
<path d="M232.621 134.322C237.503 134.322 241.46 130.374 241.46 125.505C241.46 120.635 237.503 116.688 232.621 116.688C227.739 116.688 223.781 120.635 223.781 125.505C223.781 130.374 227.739 134.322 232.621 134.322Z" fill="#F5FBE8"/>
<path d="M214.25 135.091C218.35 135.091 221.674 131.776 221.674 127.686C221.674 123.597 218.35 120.281 214.25 120.281C210.15 120.281 206.826 123.597 206.826 127.686C206.826 131.776 210.15 135.091 214.25 135.091Z" fill="#B6B69E"/>
<path d="M231.452 133.287C235.683 133.287 239.113 129.866 239.113 125.645C239.113 121.425 235.683 118.004 231.452 118.004C227.221 118.004 223.791 121.425 223.791 125.645C223.791 129.866 227.221 133.287 231.452 133.287Z" fill="#B6B69E"/>
<path d="M216.303 133.559C219.631 133.164 221.98 129.916 221.549 126.306C221.118 122.695 218.07 120.088 214.742 120.483C211.414 120.879 209.065 124.126 209.496 127.737C209.927 131.348 212.974 133.955 216.303 133.559Z" fill="black"/>
<path d="M230.581 131.864C233.909 131.469 236.258 128.221 235.827 124.61C235.396 121 232.348 118.393 229.02 118.788C225.691 119.183 223.343 122.431 223.774 126.042C224.205 129.653 227.252 132.259 230.581 131.864Z" fill="black"/>
<path d="M212.806 133.898C213.537 132.664 213.21 131.123 212.077 130.456C210.944 129.788 209.433 130.248 208.703 131.481C207.972 132.715 208.299 134.256 209.432 134.923C210.565 135.591 212.076 135.132 212.806 133.898Z" fill="white"/>
<path d="M213.196 130.117C213.653 130.117 214.023 129.748 214.023 129.293C214.023 128.838 213.653 128.469 213.196 128.469C212.74 128.469 212.37 128.838 212.37 129.293C212.37 129.748 212.74 130.117 213.196 130.117Z" fill="white"/>
<path d="M231.587 132.136C232.317 130.903 231.991 129.362 230.858 128.694C229.724 128.027 228.214 128.486 227.483 129.719C226.753 130.953 227.08 132.494 228.213 133.162C229.346 133.829 230.857 133.37 231.587 132.136Z" fill="white"/>
<path d="M231.974 128.359C232.431 128.359 232.801 127.99 232.801 127.535C232.801 127.08 232.431 126.711 231.974 126.711C231.518 126.711 231.148 127.08 231.148 127.535C231.148 127.99 231.518 128.359 231.974 128.359Z" fill="white"/>
<path d="M220.604 133.312C220.604 133.312 223.135 131.826 224.525 132.136C225.915 132.446 225.975 134.095 225.975 134.095C225.975 134.095 224.659 137.803 220.604 133.312Z" fill="#F1876F"/>
<path d="M219.576 134.513C219.576 134.513 217.859 128.088 222.603 127.05C226.401 126.219 228.79 131.168 227.756 133.423C226.718 135.679 226.318 134.132 225.126 133.263C223.176 131.839 222.01 131.331 219.579 134.516L219.576 134.513Z" fill="#FFAC8F"/>
<path opacity="0.22" d="M113.752 212.622C126.126 212.622 136.158 211.139 136.158 209.309C136.158 207.479 126.126 205.996 113.752 205.996C101.377 205.996 91.3452 207.479 91.3452 209.309C91.3452 211.139 101.377 212.622 113.752 212.622Z" fill="#282C2D"/>
<path opacity="0.22" d="M113.752 211.346C121.366 211.346 127.539 210.433 127.539 209.308C127.539 208.182 121.366 207.27 113.752 207.27C106.137 207.27 99.9639 208.182 99.9639 209.308C99.9639 210.433 106.137 211.346 113.752 211.346Z" fill="#282C2D"/>
<path d="M133.007 200.015C132.907 200.066 132.811 200.117 132.715 200.165C130.726 201.178 128.59 200.896 126.982 199.826C125.608 198.913 124.615 197.424 124.426 195.673C124.372 195.165 124.385 194.635 124.475 194.092L124.567 193.52C124.567 193.52 124.84 193.239 125.346 192.792C127.014 191.313 131.232 188.013 136.648 186.936C137.522 186.763 138.429 186.648 139.361 186.607C140.011 186.581 140.642 186.891 140.969 187.45C141.263 187.958 141.34 188.623 140.466 189.249C139.153 190.188 138.035 190.591 137.558 190.731C138.253 190.559 140.222 190.198 140.642 191.501C141.43 193.935 139.771 196.398 133 200.011L133.007 200.015Z" fill="#3586A7"/>
<path opacity="0.67" d="M136.655 186.938C136.655 186.938 128.683 190.295 126.806 193.531C124.199 198.023 126.985 199.828 126.985 199.828C125.611 198.914 124.619 197.425 124.43 195.675L125.352 192.793C127.021 191.314 131.239 188.014 136.655 186.938Z" fill="#0C536C"/>
<path d="M103.339 203.884C103.436 203.829 103.532 203.775 103.624 203.721C105.553 202.596 106.469 200.651 106.433 198.725C106.404 197.079 105.684 195.444 104.307 194.338C103.91 194.019 103.455 193.744 102.946 193.527L102.414 193.297C102.414 193.297 102.03 193.374 101.376 193.556C99.2271 194.159 94.1636 195.916 90.3331 199.887C89.715 200.529 89.1289 201.226 88.5908 201.989C88.2161 202.52 88.1393 203.219 88.4371 203.798C88.7061 204.321 89.225 204.743 90.2274 204.347C91.7295 203.75 92.6711 203.031 93.049 202.705C92.527 203.197 91.1626 204.654 92.0338 205.711C93.664 207.685 96.6361 207.621 103.339 203.89V203.884Z" fill="#3586A7"/>
<path opacity="0.67" d="M90.333 199.886C90.333 199.886 97.4687 195.005 101.213 195.174C106.411 195.411 106.433 198.724 106.433 198.724C106.404 197.078 105.684 195.443 104.307 194.337L101.376 193.555C99.227 194.158 94.1635 195.916 90.333 199.886Z" fill="#0C536C"/>
<path d="M125.688 195.832C125.813 199.937 121.182 203.751 115.046 204.48C108.909 205.208 103.506 202.585 102.661 198.567C102.725 198.56 102.792 198.554 102.856 198.544L125.685 195.832H125.688Z" fill="#00C3C7"/>
<path d="M110.802 197.48C110.815 197.538 110.821 197.599 110.828 197.656C111.042 199.439 109.764 201.058 107.977 201.269C106.19 201.48 104.566 200.209 104.355 198.426C104.348 198.369 104.342 198.308 104.339 198.25" stroke="#5ED1C9" stroke-width="2.22" stroke-miterlimit="10"/>
<path d="M117.422 196.871C117.637 198.654 116.359 200.273 114.572 200.484C112.784 200.698 111.161 199.424 110.949 197.641" stroke="#5ED1C9" stroke-width="2.22" stroke-miterlimit="10"/>
<path d="M124.013 196.09C124.228 197.872 122.95 199.492 121.163 199.703C119.376 199.914 117.752 198.642 117.541 196.86" stroke="#5ED1C9" stroke-width="2.22" stroke-miterlimit="10"/>
<path d="M114.857 200.453C114.869 200.511 114.876 200.571 114.882 200.629C115.097 202.411 113.819 204.031 112.032 204.242C110.245 204.456 108.621 203.181 108.41 201.399C108.403 201.341 108.397 201.281 108.394 201.223" stroke="#5ED1C9" stroke-width="2.22" stroke-miterlimit="10"/>
<path d="M121.332 199.684C121.345 199.741 121.351 199.802 121.358 199.859C121.572 201.642 120.295 203.262 118.507 203.472C116.72 203.686 115.097 202.412 114.885 200.629C114.879 200.572 114.872 200.511 114.869 200.453" stroke="#5ED1C9" stroke-width="2.22" stroke-miterlimit="10"/>
<path d="M112.134 208.22L110.257 209.111C108.608 209.894 106.821 210.306 104.992 210.319L102.913 210.335C102.237 210.341 101.703 209.635 101.811 208.894C102.186 206.364 103.861 204.275 106.244 203.732C108.627 203.189 111.048 204.336 112.493 206.447C112.915 207.067 112.742 207.933 112.131 208.223L112.134 208.22Z" fill="#0C536C"/>
<path d="M127.632 207.086L125.63 207.54C123.869 207.939 122.059 207.939 120.298 207.54L118.296 207.086C117.643 206.939 117.287 206.127 117.556 205.425C118.475 203.026 120.551 201.352 122.966 201.352C125.381 201.352 127.453 203.026 128.375 205.425C128.644 206.127 128.285 206.939 127.635 207.086H127.632Z" fill="#0C536C"/>
<path d="M112.413 181.557C123.886 180.194 132.755 175.474 132.222 171.013C131.69 166.553 121.957 164.041 110.484 165.404C99.0116 166.767 90.1426 171.487 90.675 175.948C91.2075 180.408 100.94 182.919 112.413 181.557Z" fill="#21AACB"/>
<path d="M132.977 172.699L134.425 184.81C135.075 190.247 131.184 195.18 125.733 195.828L102.862 198.547C102.795 198.553 102.731 198.563 102.667 198.569C97.2925 199.103 92.4595 195.247 91.819 189.877L90.3713 177.766C89.9838 174.523 92.3058 171.581 95.5566 171.195L126.396 167.53C129.646 167.144 132.596 169.46 132.984 172.702L132.977 172.699Z" fill="#21AACB"/>
<path opacity="0.5" d="M121.227 169.749C118.738 170.043 116.538 171.136 114.857 172.739C113.092 174.42 110.453 174.733 108.342 173.513C106.328 172.35 103.935 171.803 101.447 172.101C95.4288 172.819 91.0539 178.282 91.688 184.294C92.3382 190.473 97.9238 194.907 104.089 194.172C108.413 193.658 111.859 190.741 113.249 186.917C115.5 190.307 119.539 192.335 123.863 191.821C130.025 191.089 134.413 185.47 133.589 179.314C132.789 173.321 127.251 169.037 121.23 169.749H121.227Z" fill="white"/>
<path d="M104.298 194.337C109.709 193.694 113.6 189.02 112.989 183.897C112.377 178.775 107.495 175.143 102.083 175.786C96.6716 176.428 92.7804 181.102 93.3919 186.225C94.0034 191.347 98.886 194.979 104.298 194.337Z" fill="#3F7789"/>
<path d="M123.519 191.868C128.736 191.249 132.486 186.738 131.896 181.794C131.306 176.85 126.598 173.345 121.382 173.964C116.165 174.584 112.415 179.094 113.005 184.038C113.595 188.982 118.303 192.488 123.519 191.868Z" fill="#3F7789"/>
<path d="M102.606 193.627C107.778 193.627 111.971 189.445 111.971 184.286C111.971 179.127 107.778 174.945 102.606 174.945C97.434 174.945 93.2412 179.127 93.2412 184.286C93.2412 189.445 97.434 193.627 102.606 193.627Z" fill="#F5FBE8"/>
<path d="M122.969 190.733C127.879 190.733 131.86 186.762 131.86 181.864C131.86 176.967 127.879 172.996 122.969 172.996C118.059 172.996 114.078 176.967 114.078 181.864C114.078 186.762 118.059 190.733 122.969 190.733Z" fill="#F5FBE8"/>
<path d="M104.489 191.513C108.614 191.513 111.958 188.178 111.958 184.063C111.958 179.949 108.614 176.613 104.489 176.613C100.364 176.613 97.0205 179.949 97.0205 184.063C97.0205 188.178 100.364 191.513 104.489 191.513Z" fill="#B6B69E"/>
<path d="M121.794 189.693C126.049 189.693 129.499 186.252 129.499 182.007C129.499 177.762 126.049 174.32 121.794 174.32C117.538 174.32 114.088 177.762 114.088 182.007C114.088 186.252 117.538 189.693 121.794 189.693Z" fill="#B6B69E"/>
<path d="M106.549 189.959C109.896 189.562 112.259 186.295 111.825 182.664C111.392 179.032 108.326 176.41 104.979 176.807C101.631 177.205 99.2684 180.471 99.702 184.103C100.135 187.735 103.201 190.357 106.549 189.959Z" fill="black"/>
<path d="M120.911 188.256C124.259 187.859 126.621 184.592 126.187 180.96C125.754 177.329 122.689 174.707 119.341 175.104C115.993 175.502 113.631 178.768 114.064 182.4C114.498 186.032 117.563 188.654 120.911 188.256Z" fill="black"/>
<path d="M103.041 190.306C103.775 189.067 103.447 187.518 102.307 186.847C101.168 186.176 99.6496 186.637 98.9157 187.876C98.1818 189.116 98.5105 190.665 99.6498 191.336C100.789 192.007 102.308 191.546 103.041 190.306Z" fill="white"/>
<path d="M103.429 186.502C103.887 186.502 104.259 186.132 104.259 185.675C104.259 185.218 103.887 184.848 103.429 184.848C102.971 184.848 102.6 185.218 102.6 185.675C102.6 186.132 102.971 186.502 103.429 186.502Z" fill="white"/>
<path d="M121.928 188.537C122.662 187.297 122.333 185.748 121.194 185.077C120.055 184.406 118.536 184.867 117.802 186.107C117.069 187.347 117.397 188.896 118.537 189.567C119.676 190.238 121.194 189.776 121.928 188.537Z" fill="white"/>
<path d="M122.319 184.737C122.777 184.737 123.148 184.366 123.148 183.909C123.148 183.452 122.777 183.082 122.319 183.082C121.861 183.082 121.489 183.452 121.489 183.909C121.489 184.366 121.861 184.737 122.319 184.737Z" fill="white"/>
<path d="M110.882 189.717C110.882 189.717 113.425 188.225 114.824 188.535C116.224 188.844 116.285 190.506 116.285 190.506C116.285 190.506 114.962 194.234 110.882 189.72V189.717Z" fill="#F1876F"/>
<path d="M109.847 190.929C109.847 190.929 108.121 184.467 112.89 183.422C116.711 182.585 119.116 187.565 118.072 189.83C117.031 192.098 116.624 190.543 115.427 189.667C113.463 188.233 112.291 187.722 109.847 190.926V190.929Z" fill="#FFAC8F"/>
<path d="M249.365 113.915C247.469 113.48 246.284 111.595 246.716 109.704L250.147 94.7567C250.582 92.8655 254.031 92.0381 255.927 92.4726C257.824 92.9071 260.254 95.4691 259.819 97.3603L253.583 111.273C253.148 113.164 251.258 114.346 249.362 113.915H249.365Z" fill="white"/>
<path d="M247.767 120.496C249.447 120.496 250.809 119.137 250.809 117.461C250.809 115.785 249.447 114.426 247.767 114.426C246.086 114.426 244.724 115.785 244.724 117.461C244.724 119.137 246.086 120.496 247.767 120.496Z" fill="white"/>
<path d="M86.0449 166.784C84.2065 167.417 82.1984 166.446 81.5642 164.612L76.5424 150.118C75.9082 148.285 78.3967 145.761 80.2351 145.128C82.0735 144.496 85.4972 145.387 86.1313 147.221L88.2227 162.315C88.8569 164.149 87.8832 166.152 86.0449 166.784Z" fill="white"/>
<path d="M86.5734 173.667C88.2537 173.667 89.616 172.309 89.616 170.633C89.616 168.956 88.2537 167.598 86.5734 167.598C84.893 167.598 83.5308 168.956 83.5308 170.633C83.5308 172.309 84.893 173.667 86.5734 173.667Z" fill="white"/>
<path d="M146.211 10.6668C147.313 9.91924 148.191 9.30588 148.191 8.38583C148.191 7.46579 147.486 6.67352 145.593 6.67352C144.472 6.67352 143.332 7.06646 142.33 7.75011C141.465 8.34111 140.293 8.17818 139.601 7.38912L137.98 5.53625C137.247 4.69607 137.365 3.41184 138.243 2.725C140.546 0.92324 143.502 0 146.429 0C152.239 0 155.845 2.80806 155.845 7.02174C155.845 10.6636 153.6 12.3312 151.666 13.7815C150.256 14.791 149.026 15.6695 149.026 17.072C149.026 17.1997 149.036 17.3275 149.052 17.4489C149.171 18.3019 148.61 19.1037 147.771 19.3146L145.045 20.011C144.232 20.2186 143.386 19.8129 143.041 19.0526C142.695 18.2923 142.47 17.3307 142.47 16.2829C142.47 13.2544 144.581 11.7625 146.211 10.6636V10.6668ZM145.161 22.2217C148.402 21.1003 151.547 24.2374 150.423 27.4704C150.013 28.6524 149.062 29.598 147.877 30.0101C144.636 31.1314 141.49 27.9943 142.615 24.7614C143.025 23.5794 143.976 22.6306 145.161 22.2217Z" fill="#5ED1C9"/>
<path d="M46.0075 74.938C46.0075 74.938 39.1024 75.0818 36.6074 70.8649C34.1125 66.648 39.7013 67.0314 46.0075 74.938Z" fill="#3E7536"/>
<path d="M46.1738 74.784C46.1738 74.784 44.5692 68.0849 48.1691 64.7562C51.7722 61.4274 52.5793 66.9604 46.1738 74.784Z" fill="#3E7536"/>
<path d="M46.1037 75.0508C46.1037 75.0508 38.3531 69.358 39.189 62.5791C40.025 55.8002 45.8731 60.969 46.1037 75.0508Z" fill="#3E7536"/>
<path d="M45.8442 75.2184C45.8442 75.2184 40.249 71.1804 40.8095 66.3151C41.37 61.4497 45.5944 65.1203 45.8442 75.2184Z" fill="#3E7536"/>
<path d="M46.0718 75.1954C46.0718 75.1954 48.8421 68.8861 53.7263 68.3973C58.6105 67.9085 55.9138 72.8091 46.0718 75.1954Z" fill="#3E7536"/>
<path d="M45.8506 75.3651C45.8506 75.3651 43.1091 66.1614 47.8715 61.2577C52.634 56.354 54.1777 63.9923 45.8506 75.3651Z" fill="#3E7536"/>
<path d="M339 154.679C339 154.679 335.778 162.327 337.35 166.243C338.92 170.16 336.117 173.08 334.154 175.428C332.191 177.776 327.316 179.479 317.5 178.303C307.684 177.127 302.799 181.517 296.122 181.91C289.444 182.303 280.021 182.303 274.132 174.859C274.132 174.859 271.422 166.416 270.423 162.608C269.42 158.8 289.053 154.883 289.053 154.883L339 154.676V154.679Z" fill="#9B694D"/>
<mask id="mask8_3306_6255" style="mask-type:luminance" maskUnits="userSpaceOnUse" x="270" y="154" width="69" height="29">
<path d="M339 154.679C339 154.679 335.778 162.327 337.35 166.243C338.92 170.16 336.117 173.08 334.154 175.428C332.191 177.776 327.316 179.479 317.5 178.303C307.684 177.127 302.799 181.517 296.122 181.91C289.444 182.303 280.021 182.303 274.132 174.859C274.132 174.859 271.422 166.416 270.423 162.608C269.42 158.8 289.053 154.883 289.053 154.883L339 154.676V154.679Z" fill="white"/>
</mask>
<g mask="url(#mask8_3306_6255)">
<path d="M270.974 181.414H298.197V154.899H270.974V181.414Z" fill="url(#paint17_linear_3306_6255)"/>
<path d="M302.123 181.5H329.347V154.985H302.123V181.5Z" fill="url(#paint18_linear_3306_6255)"/>
</g>
<path d="M338.142 157.544C338.142 157.544 335.019 167.342 310.669 165.425C286.322 163.512 288.711 174.795 274.942 168.623C259.393 161.653 272.94 147.478 297.281 145.082C321.622 142.689 342.834 148.133 338.139 157.541L338.142 157.544Z" fill="#92DD00"/>
<mask id="mask9_3306_6255" style="mask-type:luminance" maskUnits="userSpaceOnUse" x="268" y="144" width="71" height="27">
<path d="M338.142 157.544C338.142 157.544 335.019 167.342 310.669 165.425C286.322 163.512 288.711 174.795 274.942 168.623C259.393 161.653 272.94 147.478 297.281 145.082C321.622 142.689 342.834 148.133 338.139 157.541L338.142 157.544Z" fill="white"/>
</mask>
<g mask="url(#mask9_3306_6255)">
<path opacity="0.34" d="M294.844 161.707C318.285 161.666 337.275 154.881 337.261 146.551C337.246 138.222 318.232 131.502 294.792 131.543C271.351 131.584 252.361 138.369 252.376 146.699C252.39 155.028 271.404 161.748 294.844 161.707Z" fill="#76B870"/>
<path opacity="0.39" d="M292.676 152.769C306.588 152.745 317.859 148.717 317.85 143.774C317.842 138.83 306.557 134.842 292.645 134.866C278.733 134.891 267.463 138.918 267.471 143.861C267.48 148.805 278.765 152.793 292.676 152.769Z" fill="#D3F2A0"/>
</g>
<path d="M279.865 159.778C286.498 159.778 291.875 158.563 291.875 157.063C291.875 155.563 286.498 154.348 279.865 154.348C273.232 154.348 267.854 155.563 267.854 157.063C267.854 158.563 273.232 159.778 279.865 159.778Z" fill="url(#paint19_linear_3306_6255)"/>
<path d="M283.189 122.539C283.189 122.539 285.806 134.605 285.04 145.31C284.275 156.015 282.741 157.545 287.34 159.072C291.939 160.603 291.939 153.721 291.939 153.721C291.939 153.721 288.874 124.667 285.806 121.606C282.741 118.549 283.189 122.539 283.189 122.539Z" fill="#0C536C"/>
<path d="M286.575 123.135C286.575 123.135 278.907 112.429 273.543 115.487C268.178 118.544 269.709 121.604 269.709 121.604C269.709 121.604 283.506 119.311 286.575 123.135Z" fill="#76B870"/>
<path d="M298.072 116.25C298.072 116.25 294.238 110.899 288.105 112.426C281.972 113.957 283.189 122.534 283.189 122.534C283.189 122.534 293.473 114.72 298.072 116.247V116.25Z" fill="#3E7536"/>
<path d="M295.773 133.075C295.773 133.075 302.354 117.951 283.506 120.839C283.506 120.839 296.538 127.72 295.773 133.075Z" fill="#92DD00"/>
<path d="M282.424 121.008C282.424 121.008 272.008 120.075 269.709 125.426C267.409 130.777 272.774 134.601 272.774 134.601C272.774 134.601 273.539 130.013 278.138 126.189C282.737 122.365 285.806 121.602 285.806 121.602L282.42 121.004L282.424 121.008Z" fill="#3E7536"/>
<path d="M283.189 126.529C285.4 126.529 287.192 124.742 287.192 122.536C287.192 120.331 285.4 118.543 283.189 118.543C280.978 118.543 279.186 120.331 279.186 122.536C279.186 124.742 280.978 126.529 283.189 126.529Z" fill="#9B694D"/>
<path d="M293.579 160.872C293.579 160.872 286.674 161.015 284.179 156.798C281.684 152.582 287.273 152.965 293.579 160.872Z" fill="#3E7536"/>
<path d="M293.745 160.718C293.745 160.718 292.141 154.019 295.74 150.69C299.343 147.361 300.151 152.894 293.745 160.718Z" fill="#3E7536"/>
<path d="M293.675 160.984C293.675 160.984 285.924 155.292 286.76 148.513C287.596 141.734 293.444 146.903 293.675 160.984Z" fill="#3E7536"/>
<path d="M293.415 161.152C293.415 161.152 287.82 157.114 288.381 152.249C288.941 147.383 293.166 151.054 293.415 161.152Z" fill="#3E7536"/>
<path d="M293.643 161.129C293.643 161.129 296.413 154.82 301.298 154.331C306.182 153.842 303.485 158.743 293.643 161.129Z" fill="#3E7536"/>
<path d="M293.422 161.299C293.422 161.299 290.68 152.095 295.443 147.191C300.205 142.288 301.749 149.926 293.422 161.299Z" fill="#3E7536"/>
<path d="M175.315 123.332C175.315 122.538 174.669 121.895 173.873 121.895C173.077 121.895 172.432 122.538 172.432 123.332V131.922C172.432 132.716 173.077 133.36 173.873 133.36C174.669 133.36 175.315 132.716 175.315 131.922V123.332Z" fill="white"/>
<path d="M175.315 141.859C175.315 141.065 174.669 140.422 173.873 140.422C173.077 140.422 172.432 141.065 172.432 141.859V150.45C172.432 151.244 173.077 151.887 173.873 151.887C174.669 151.887 175.315 151.244 175.315 150.45V141.859Z" fill="white"/>
<path d="M188.907 136.894V136.891C188.907 136.019 188.198 135.312 187.325 135.312H178.994C178.12 135.312 177.412 136.019 177.412 136.891V136.894C177.412 137.765 178.12 138.472 178.994 138.472H187.325C188.198 138.472 188.907 137.765 188.907 136.894Z" fill="white"/>
<path d="M170.331 136.894V136.891C170.331 136.019 169.623 135.312 168.749 135.312H160.419C159.545 135.312 158.836 136.019 158.836 136.891V136.894C158.836 137.765 159.545 138.472 160.419 138.472H168.749C169.623 138.472 170.331 137.765 170.331 136.894Z" fill="white"/>
<path d="M183.415 127.374L183.412 127.372C182.755 126.716 181.688 126.716 181.03 127.372L177.465 130.927C176.807 131.584 176.807 132.648 177.465 133.304L177.468 133.306C178.126 133.962 179.192 133.962 179.85 133.306L183.415 129.75C184.073 129.094 184.073 128.03 183.415 127.374Z" fill="white"/>
<path d="M169.944 140.815L169.942 140.813C169.284 140.157 168.217 140.157 167.559 140.813L164.672 143.693C164.014 144.35 164.014 145.413 164.672 146.07L164.674 146.072C165.332 146.728 166.399 146.728 167.057 146.072L169.944 143.192C170.602 142.536 170.602 141.472 169.944 140.815Z" fill="white"/>
<path d="M181.012 146.071C181.582 146.64 182.507 146.64 183.076 146.072C183.646 145.504 183.646 144.582 183.075 144.013L179.871 140.817C179.3 140.248 178.376 140.247 177.806 140.815C177.237 141.384 177.237 142.306 177.808 142.874L181.012 146.071Z" fill="white"/>
<path d="M167.894 132.985C168.464 133.554 169.388 133.554 169.958 132.986C170.528 132.418 170.527 131.496 169.957 130.927L166.716 127.694C166.146 127.126 165.222 127.125 164.652 127.693C164.082 128.262 164.083 129.183 164.653 129.752L167.894 132.985Z" fill="white"/>
<path opacity="0.57" d="M172.506 33.0778C167.257 46.3194 155.086 56.0758 140.443 57.9127C142.721 51.4308 145.193 44.6583 147.352 39.3329C148.236 37.1477 149.068 35.2054 149.811 33.6305C151.032 31.0301 152.018 29.42 152.604 29.3369C154.045 29.1325 154.955 29.8992 155.525 30.8416C156.278 32.0875 156.431 33.6337 156.431 33.6337L158.347 28.8609C158.366 28.8002 158.388 28.7395 158.408 28.6789C161.588 19.1749 163.035 15.7759 165.681 17.6383C165.783 17.7118 165.892 17.7948 166.001 17.8843C166.344 18.1686 166.991 19.4273 167.862 21.4207C169.053 24.1361 170.668 28.222 172.506 33.0778Z" fill="#F4CEE9"/>
<path opacity="0.42" d="M165.706 18.7117C165.706 29.3497 157.687 38.1189 147.352 39.3329C148.236 37.1477 149.068 35.2054 149.811 33.6305C151.032 31.0301 152.018 29.42 152.604 29.3369C154.045 29.1325 154.955 29.8992 155.525 30.8416C156.278 32.0875 156.431 33.6337 156.431 33.6337L158.347 28.8609C158.366 28.8002 158.388 28.7396 158.407 28.6789C161.588 19.1749 163.035 15.7759 165.681 17.6383C165.697 17.9961 165.706 18.3539 165.706 18.7117Z" fill="#F9E8F5"/>
<path opacity="0.42" d="M130.691 70.4849C129.186 76.3502 123.853 80.6853 117.505 80.6853C116.753 80.6853 116.016 80.6246 115.295 80.5064C117.057 77.2031 118.85 74.2993 120.548 72.2867C125.054 66.9485 128.568 68.3924 130.691 70.4849Z" fill="#F4BAE1"/>
<path d="M147.412 110.141C147.412 110.141 140.507 110.285 138.012 106.068C135.517 101.851 141.106 102.235 147.412 110.141Z" fill="#92DD00"/>
<path d="M147.579 109.987C147.579 109.987 145.974 103.288 149.574 99.9593C153.177 96.6305 153.984 102.164 147.579 109.987Z" fill="#92DD00"/>
<path d="M147.505 110.254C147.505 110.254 139.754 104.561 140.59 97.7822C141.426 91.0033 147.275 96.1721 147.505 110.254Z" fill="#92DD00"/>
<path d="M195.594 109.895C195.594 109.895 188.689 110.039 186.194 105.822C183.699 101.605 189.288 101.988 195.594 109.895Z" fill="#3E7536"/>
<path d="M195.761 109.741C195.761 109.741 194.156 103.042 197.756 99.7132C201.359 96.3844 202.166 101.917 195.761 109.741Z" fill="#3E7536"/>
<path d="M195.687 110.008C195.687 110.008 187.937 104.315 188.773 97.5361C189.608 90.7572 195.457 95.9261 195.687 110.008Z" fill="#3E7536"/>
<path d="M195.428 110.175C195.428 110.175 189.832 106.137 190.393 101.272C190.953 96.4067 195.178 100.077 195.428 110.175Z" fill="#3E7536"/>
<path d="M195.655 110.152C195.655 110.152 198.426 103.843 203.31 103.354C208.194 102.866 205.497 107.766 195.655 110.152Z" fill="#3E7536"/>
<path d="M195.438 110.322C195.438 110.322 192.696 101.118 197.458 96.2148C202.221 91.3111 203.765 98.9493 195.438 110.322Z" fill="#3E7536"/>
<path d="M141.788 214.356C141.788 214.356 134.883 214.5 132.388 210.283C129.893 206.066 135.482 206.449 141.788 214.356Z" fill="#3E7536"/>
<path d="M141.955 214.202C141.955 214.202 140.35 207.503 143.95 204.174C147.553 200.845 148.36 206.378 141.955 214.202Z" fill="#3E7536"/>
<path d="M141.881 214.469C141.881 214.469 134.13 208.776 134.966 201.997C135.802 195.218 141.65 200.387 141.881 214.469Z" fill="#3E7536"/>
<path d="M141.622 214.636C141.622 214.636 136.026 210.598 136.587 205.733C137.147 200.868 141.372 204.538 141.622 214.636Z" fill="#3E7536"/>
<path d="M141.849 214.613C141.849 214.613 144.619 208.304 149.504 207.815C154.388 207.326 151.691 212.227 141.849 214.613Z" fill="#3E7536"/>
<path d="M141.631 214.783C141.631 214.783 138.889 205.579 143.652 200.676C148.414 195.772 149.958 203.41 141.631 214.783Z" fill="#3E7536"/>
<path d="M244.276 169.313C244.276 169.313 237.371 169.457 234.876 165.24C232.381 161.023 237.97 161.406 244.276 169.313Z" fill="#92DD00"/>
<path d="M244.442 169.159C244.442 169.159 242.838 162.46 246.438 159.131C250.041 155.802 250.848 161.335 244.442 169.159Z" fill="#92DD00"/>
<path d="M244.369 169.426C244.369 169.426 236.618 163.733 237.454 156.954C238.29 150.175 244.138 155.344 244.369 169.426Z" fill="#92DD00"/>
<path d="M244.109 169.593C244.109 169.593 238.514 165.555 239.075 160.69C239.635 155.825 243.86 159.495 244.109 169.593Z" fill="#92DD00"/>
<path d="M244.337 169.57C244.337 169.57 247.107 163.261 251.991 162.772C256.876 162.284 254.179 167.184 244.337 169.57Z" fill="#92DD00"/>
<path d="M244.119 169.74C244.119 169.74 241.378 160.536 246.14 155.633C250.903 150.729 252.446 158.367 244.119 169.74Z" fill="#92DD00"/>
<path d="M65.2428 112.77C65.2428 112.77 58.3377 112.914 55.8428 108.697C53.3479 104.48 58.9366 104.863 65.2428 112.77Z" fill="#76B870"/>
<path d="M65.4092 112.616C65.4092 112.616 63.8046 105.917 67.4045 102.588C71.0075 99.2594 71.8146 104.792 65.4092 112.616Z" fill="#76B870"/>
<path d="M65.3357 112.883C65.3357 112.883 57.5851 107.19 58.421 100.411C59.2569 93.6322 65.1051 98.8011 65.3357 112.883Z" fill="#76B870"/>
<path d="M65.0761 113.05C65.0761 113.05 59.4809 109.012 60.0414 104.147C60.6019 99.2817 64.8263 102.952 65.0761 113.05Z" fill="#76B870"/>
<path d="M65.3037 113.027C65.3037 113.027 68.0741 106.718 72.9583 106.229C77.8424 105.741 75.1457 110.641 65.3037 113.027Z" fill="#76B870"/>
<path d="M65.086 113.197C65.086 113.197 62.3444 103.993 67.1069 99.0898C71.8694 94.1861 73.4131 101.824 65.086 113.197Z" fill="#76B870"/>
<defs>
<linearGradient id="paint0_linear_3306_6255" x1="50.6255" y1="82.2229" x2="23.4022" y2="82.2229" gradientUnits="userSpaceOnUse">
<stop stop-opacity="0"/>
<stop offset="1"/>
</linearGradient>
<linearGradient id="paint1_linear_3306_6255" x1="81.7754" y1="82.3088" x2="54.5521" y2="82.3088" gradientUnits="userSpaceOnUse">
<stop stop-opacity="0"/>
<stop offset="0.65"/>
<stop offset="1" stop-opacity="0"/>
</linearGradient>
<linearGradient id="paint2_linear_3306_6255" x1="206.698" y1="192.178" x2="170.507" y2="192.178" gradientUnits="userSpaceOnUse">
<stop stop-opacity="0"/>
<stop offset="1"/>
</linearGradient>
<linearGradient id="paint3_linear_3306_6255" x1="144.248" y1="161.988" x2="171.471" y2="161.988" gradientUnits="userSpaceOnUse">
<stop stop-opacity="0"/>
<stop offset="1"/>
</linearGradient>
<linearGradient id="paint4_linear_3306_6255" x1="80.5103" y1="166.461" x2="53.287" y2="166.461" gradientUnits="userSpaceOnUse">
<stop stop-opacity="0"/>
<stop offset="1"/>
</linearGradient>
<linearGradient id="paint5_linear_3306_6255" x1="115.42" y1="163.266" x2="88.1972" y2="163.266" gradientUnits="userSpaceOnUse">
<stop stop-opacity="0"/>
<stop offset="0.65"/>
<stop offset="1" stop-opacity="0"/>
</linearGradient>
<linearGradient id="paint6_linear_3306_6255" x1="281.962" y1="146.815" x2="262.105" y2="146.815" gradientUnits="userSpaceOnUse">
<stop stop-opacity="0"/>
<stop offset="1"/>
</linearGradient>
<linearGradient id="paint7_linear_3306_6255" x1="142.644" y1="236.902" x2="123.107" y2="236.902" gradientUnits="userSpaceOnUse">
<stop stop-opacity="0"/>
<stop offset="0.65"/>
<stop offset="1" stop-opacity="0"/>
</linearGradient>
<linearGradient id="paint8_linear_3306_6255" x1="120.224" y1="228.118" x2="97.4847" y2="228.118" gradientUnits="userSpaceOnUse">
<stop stop-opacity="0"/>
<stop offset="0.65"/>
<stop offset="1" stop-opacity="0"/>
</linearGradient>
<linearGradient id="paint9_linear_3306_6255" x1="57.1143" y1="68.0939" x2="82.7361" y2="68.0939" gradientUnits="userSpaceOnUse">
<stop stop-opacity="0"/>
<stop offset="1"/>
</linearGradient>
<linearGradient id="paint10_linear_3306_6255" x1="20.2827" y1="71.1295" x2="44.3032" y2="71.1295" gradientUnits="userSpaceOnUse">
<stop stop-opacity="0"/>
<stop offset="1"/>
</linearGradient>
<linearGradient id="paint11_linear_3306_6255" x1="210.225" y1="61.1994" x2="235.846" y2="61.1994" gradientUnits="userSpaceOnUse">
<stop stop-opacity="0"/>
<stop offset="1"/>
</linearGradient>
<linearGradient id="paint12_linear_3306_6255" x1="92.3638" y1="96.0197" x2="117.986" y2="96.0197" gradientUnits="userSpaceOnUse">
<stop stop-opacity="0"/>
<stop offset="1"/>
</linearGradient>
<linearGradient id="paint13_linear_3306_6255" x1="92.9912" y1="108.923" x2="147.396" y2="108.923" gradientUnits="userSpaceOnUse">
<stop stop-opacity="0"/>
<stop offset="1"/>
</linearGradient>
<linearGradient id="paint14_linear_3306_6255" x1="130.691" y1="106.964" x2="194.262" y2="106.964" gradientUnits="userSpaceOnUse">
<stop stop-opacity="0"/>
<stop offset="1"/>
</linearGradient>
<linearGradient id="paint15_linear_3306_6255" x1="165.181" y1="104.297" x2="228.752" y2="104.297" gradientUnits="userSpaceOnUse">
<stop stop-opacity="0"/>
<stop offset="1"/>
</linearGradient>
<linearGradient id="paint16_linear_3306_6255" x1="169.588" y1="95.8083" x2="233.159" y2="95.8083" gradientUnits="userSpaceOnUse">
<stop stop-opacity="0"/>
<stop offset="1"/>
</linearGradient>
<linearGradient id="paint17_linear_3306_6255" x1="298.197" y1="168.156" x2="270.974" y2="168.156" gradientUnits="userSpaceOnUse">
<stop stop-opacity="0"/>
<stop offset="1"/>
</linearGradient>
<linearGradient id="paint18_linear_3306_6255" x1="329.347" y1="168.242" x2="302.123" y2="168.242" gradientUnits="userSpaceOnUse">
<stop stop-opacity="0"/>
<stop offset="0.65"/>
<stop offset="1" stop-opacity="0"/>
</linearGradient>
<linearGradient id="paint19_linear_3306_6255" x1="267.854" y1="157.063" x2="291.875" y2="157.063" gradientUnits="userSpaceOnUse">
<stop stop-opacity="0"/>
<stop offset="1"/>
</linearGradient>
</defs>
</svg>
