<svg width="35" height="35" viewBox="0 0 35 35" fill="currentColor" xmlns="http://www.w3.org/2000/svg">
<path d="M3.36914 15.6006H12.2461C14.4727 15.6006 15.6152 14.5166 15.6152 12.1875V3.41308C15.6152 1.08398 14.4727 0 12.2461 0H3.36914C1.14258 0 0 1.08398 0 3.41308V12.1875C0 14.5166 1.14258 15.6006 3.36914 15.6006ZM3.39844 13.3155C2.65137 13.3155 2.2998 12.9493 2.2998 12.1582V3.42773C2.2998 2.65136 2.65137 2.2998 3.39844 2.2998H12.2021C12.9492 2.2998 13.3154 2.65136 13.3154 3.42773V12.1582C13.3154 12.9493 12.9492 13.3155 12.2021 13.3155H3.39844ZM6.22559 9.74121H9.36035C9.62402 9.74121 9.74121 9.62402 9.74121 9.30175V6.26953C9.74121 5.97656 9.62402 5.85937 9.36035 5.85937H6.22559C5.96191 5.85937 5.87402 5.97656 5.87402 6.26953V9.30175C5.87402 9.62402 5.96191 9.74121 6.22559 9.74121ZM22.1924 15.6006H31.0693C33.2959 15.6006 34.4385 14.5166 34.4385 12.1875V3.41308C34.4385 1.08398 33.2959 0 31.0693 0H22.1924C19.9512 0 18.8232 1.08398 18.8232 3.41308V12.1875C18.8232 14.5166 19.9512 15.6006 22.1924 15.6006ZM22.2363 13.3155C21.46 13.3155 21.123 12.9493 21.123 12.1582V3.42773C21.123 2.65136 21.46 2.2998 22.2363 2.2998H31.04C31.7871 2.2998 32.1387 2.65136 32.1387 3.42773V12.1582C32.1387 12.9493 31.7871 13.3155 31.04 13.3155H22.2363ZM25.1367 9.74121H28.2715C28.5352 9.74121 28.6523 9.62402 28.6523 9.30175V6.26953C28.6523 5.97656 28.5352 5.85937 28.2715 5.85937H25.1367C24.873 5.85937 24.7852 5.97656 24.7852 6.26953V9.30175C24.7852 9.62402 24.873 9.74121 25.1367 9.74121ZM3.36914 34.4239H12.2461C14.4727 34.4239 15.6152 33.3399 15.6152 31.0108V22.2364C15.6152 19.9073 14.4727 18.8086 12.2461 18.8086H3.36914C1.14258 18.8086 0 19.9073 0 22.2364V31.0108C0 33.3399 1.14258 34.4239 3.36914 34.4239ZM3.39844 32.1241C2.65137 32.1241 2.2998 31.7725 2.2998 30.9961V22.251C2.2998 21.4747 2.65137 21.1084 3.39844 21.1084H12.2021C12.9492 21.1084 13.3154 21.4747 13.3154 22.251V30.9961C13.3154 31.7725 12.9492 32.1241 12.2021 32.1241H3.39844ZM6.22559 28.5499H9.36035C9.62402 28.5499 9.74121 28.4473 9.74121 28.125V25.0928C9.74121 24.7999 9.62402 24.6827 9.36035 24.6827H6.22559C5.96191 24.6827 5.87402 24.7999 5.87402 25.0928V28.125C5.87402 28.4473 5.96191 28.5499 6.22559 28.5499ZM20.0391 23.5401H23.1592C23.4375 23.5401 23.54 23.4229 23.54 23.1153V20.0684C23.54 19.7754 23.4375 19.6729 23.1592 19.6729H20.0391C19.7607 19.6729 19.6729 19.7754 19.6729 20.0684V23.1153C19.6729 23.4229 19.7607 23.5401 20.0391 23.5401ZM30.0732 23.5401H33.1934C33.4717 23.5401 33.5742 23.4229 33.5742 23.1153V20.0684C33.5742 19.7754 33.4717 19.6729 33.1934 19.6729H30.0732C29.7949 19.6729 29.707 19.7754 29.707 20.0684V23.1153C29.707 23.4229 29.7949 23.5401 30.0732 23.5401ZM25.0928 28.5499H28.2275C28.5059 28.5499 28.6084 28.4473 28.6084 28.125V25.0928C28.6084 24.7999 28.5059 24.6827 28.2275 24.6827H25.0928C24.8291 24.6827 24.7412 24.7999 24.7412 25.0928V28.125C24.7412 28.4473 24.8291 28.5499 25.0928 28.5499ZM20.0391 33.5743H23.1592C23.4375 33.5743 23.54 33.4571 23.54 33.1495V30.1172C23.54 29.8096 23.4375 29.7071 23.1592 29.7071H20.0391C19.7607 29.7071 19.6729 29.8096 19.6729 30.1172V33.1495C19.6729 33.4571 19.7607 33.5743 20.0391 33.5743ZM30.0732 33.5743H33.1934C33.4717 33.5743 33.5742 33.4571 33.5742 33.1495V30.1172C33.5742 29.8096 33.4717 29.7071 33.1934 29.7071H30.0732C29.7949 29.7071 29.707 29.8096 29.707 30.1172V33.1495C29.707 33.4571 29.7949 33.5743 30.0732 33.5743Z" fill="currentColor" fill-opacity="0.85"/>
</svg>
