<svg width="22" height="22" viewBox="0 0 22 22" fill="none" xmlns="http://www.w3.org/2000/svg">
<path d="M11.15 15.15C11.7 15.15 12.171 15.021 12.563 14.763C12.955 14.505 13.1507 14.1007 13.15 13.55C13.15 13.0667 12.946 12.675 12.538 12.375C12.13 12.075 11.4007 11.7333 10.35 11.35C9.36667 11 8.646 10.5833 8.188 10.1C7.73 9.61667 7.50067 8.98333 7.5 8.2C7.5 7.51667 7.73767 6.896 8.213 6.338C8.68833 5.78 9.334 5.41733 10.15 5.25V4.875C10.15 4.64167 10.2377 4.43767 10.413 4.263C10.5883 4.08833 10.7923 4.00067 11.025 4C11.2577 3.99933 11.462 4.087 11.638 4.263C11.814 4.439 11.9013 4.643 11.9 4.875V5.25C12.3833 5.28333 12.8293 5.446 13.238 5.738C13.6467 6.03 13.9757 6.384 14.225 6.8C14.3417 6.98333 14.35 7.17933 14.25 7.388C14.15 7.59667 13.9833 7.74233 13.75 7.825C13.5333 7.90833 13.3167 7.91667 13.1 7.85C12.8833 7.78333 12.7083 7.65833 12.575 7.475C12.4083 7.275 12.2 7.11267 11.95 6.988C11.7 6.86333 11.4 6.80067 11.05 6.8C10.4667 6.8 10.0207 6.925 9.712 7.175C9.40333 7.425 9.24933 7.76667 9.25 8.2C9.25067 8.63333 9.44233 8.975 9.825 9.225C10.2077 9.475 10.8993 9.76667 11.9 10.1C13.1 10.5333 13.9 11.0417 14.3 11.625C14.7 12.2083 14.9 12.85 14.9 13.55C14.9 14.0333 14.8167 14.4583 14.65 14.825C14.4833 15.1917 14.2623 15.5043 13.987 15.763C13.7117 16.0217 13.391 16.23 13.025 16.388C12.659 16.546 12.2673 16.6667 11.85 16.75V17.125C11.85 17.3583 11.7623 17.5627 11.587 17.738C11.4117 17.9133 11.2077 18.0007 10.975 18C10.7423 17.9993 10.5383 17.912 10.363 17.738C10.1877 17.564 10.1 17.3597 10.1 17.125V16.7C9.46667 16.5667 8.925 16.3167 8.475 15.95C8.025 15.5833 7.66667 15.1167 7.4 14.55C7.3 14.3167 7.30433 14.0917 7.413 13.875C7.52167 13.6583 7.69233 13.5083 7.925 13.425C8.14167 13.3417 8.35833 13.3457 8.575 13.437C8.79167 13.5283 8.95833 13.6743 9.075 13.875C9.30833 14.3083 9.60433 14.629 9.963 14.837C10.3217 15.045 10.7173 15.1493 11.15 15.15ZM11 22C9.13333 22 7.41667 21.575 5.85 20.725C4.28333 19.875 3 18.7417 2 17.325V19C2 19.2833 1.904 19.521 1.712 19.713C1.52 19.905 1.28267 20.0007 1 20C0.717333 19.9993 0.48 19.9033 0.288 19.712C0.096 19.5207 0 19.2833 0 19V15C0 14.7167 0.096 14.4793 0.288 14.288C0.48 14.0967 0.717333 14.0007 1 14H5C5.28333 14 5.521 14.096 5.713 14.288C5.905 14.48 6.00067 14.7173 6 15C5.99933 15.2827 5.90333 15.5203 5.712 15.713C5.52067 15.9057 5.28333 16.0013 5 16H3.525C4.325 17.2 5.37933 18.1667 6.688 18.9C7.99667 19.6333 9.434 20 11 20C13.35 20 15.371 19.2167 17.063 17.65C18.755 16.0833 19.7173 14.1583 19.95 11.875C19.9833 11.6083 20.1 11.3957 20.3 11.237C20.5 11.0783 20.7333 10.9993 21 11C21.2833 11 21.525 11.0877 21.725 11.263C21.925 11.4383 22.0083 11.6507 21.975 11.9C21.8583 13.3167 21.4917 14.6373 20.875 15.862C20.2583 17.0867 19.4583 18.1533 18.475 19.062C17.4917 19.9707 16.3627 20.6873 15.088 21.212C13.8133 21.7367 12.4507 21.9993 11 22ZM11 2C8.65 2 6.62933 2.78333 4.938 4.35C3.24667 5.91667 2.284 7.84167 2.05 10.125C2.01667 10.3917 1.9 10.6043 1.7 10.763C1.5 10.9217 1.26667 11.0007 1 11C0.716667 11 0.475 10.9127 0.275 10.738C0.075 10.5633 -0.00833336 10.3507 0.025 10.1C0.141667 8.68333 0.508333 7.36267 1.125 6.138C1.74167 4.91333 2.54167 3.84667 3.525 2.938C4.50833 2.02933 5.63767 1.31267 6.913 0.788C8.18833 0.263333 9.55067 0.000666667 11 0C12.8667 0 14.5833 0.425 16.15 1.275C17.7167 2.125 19 3.25833 20 4.675V3C20 2.71667 20.096 2.47933 20.288 2.288C20.48 2.09667 20.7173 2.00067 21 2C21.2827 1.99933 21.5203 2.09533 21.713 2.288C21.9057 2.48067 22.0013 2.718 22 3V7C22 7.28333 21.904 7.521 21.712 7.713C21.52 7.905 21.2827 8.00067 21 8H17C16.7167 8 16.4793 7.904 16.288 7.712C16.0967 7.52 16.0007 7.28267 16 7C15.9993 6.71733 16.0953 6.48 16.288 6.288C16.4807 6.096 16.718 6 17 6H18.475C17.675 4.8 16.621 3.83333 15.313 3.1C14.005 2.36667 12.5673 2 11 2Z" fill="#1D1D1D"/>
</svg>
