<svg width="39" height="35" viewBox="0 0 39 35" fill="currentColor" xmlns="http://www.w3.org/2000/svg">
<path d="M0.362632 22.4601C0.84603 22.9728 1.5931 22.9581 2.09115 22.4601L5.41634 19.1349C17.8968 6.65444 23.888 0.765763 26.2318 3.09487C27.931 4.79408 24.1517 9.26186 18.8783 15.5021C13.8392 21.4347 8.31673 27.5724 12.0081 31.2931C15.0843 34.3986 20.1527 30.7365 25.3822 25.5949C29.3812 21.6398 32.3988 18.8859 33.4681 19.9406C34.347 20.8195 33.2337 22.504 31.6956 25.1847C29.8792 28.3341 27.682 31.5714 29.7474 33.6515C31.3441 35.2335 34.1126 34.3107 37.555 30.7365C38.1702 30.1212 38.1849 29.3888 37.6722 28.8908C37.1742 28.3927 36.4564 28.4074 35.929 28.9054C33.2923 31.3956 31.8421 32.2599 31.3148 31.7179C30.7142 31.132 31.4906 29.799 33.5267 26.4591C36.0902 22.255 36.8958 19.9113 35.2406 18.256C33.014 16.0294 29.6595 17.9923 23.5951 23.8224C17.9408 29.2423 15.1136 30.9122 13.7367 29.5646C12.0814 27.9386 14.2786 24.4669 20.7093 17.0841C28.2826 8.33901 30.846 4.25209 27.9456 1.36635C24.2982 -2.28111 20.2699 0.824358 3.68783 17.4064L0.362632 20.7316C-0.135415 21.2296 -0.106118 21.9621 0.362632 22.4601Z" fill="currentColor"/>
</svg>
