<svg width="39" height="39" viewBox="0 0 39 39" fill="currentColor" xmlns="http://www.w3.org/2000/svg">
<path d="M19.0723 38.1299C23.6865 38.1299 28.0664 36.4307 31.5234 33.4424L18.1055 20.2881C17.7686 19.9512 17.6807 19.6582 17.6807 19.1455V0.0439453C7.86621 0.761719 0 9.08203 0 19.0576C0 29.5019 8.64258 38.1299 19.0723 38.1299ZM38.1592 19.043C38.1592 16.2012 37.4561 13.2568 36.2549 10.8545L20.8154 19.7021L33.1201 31.875C36.2402 28.5205 38.1592 23.8623 38.1592 19.043ZM19.8633 17.6953L35.1709 8.9209C31.875 3.57422 25.7812 0.19043 19.8633 0V17.6953Z" fill="currentColor" fill-opacity="0.85"/>
</svg>
