<svg width="237" height="200" viewBox="0 0 237 200" fill="none" xmlns="http://www.w3.org/2000/svg">
<g id="Frame" clip-path="url(#clip0_3815_2970)">
<g id="Group">
<g id="Layer 3">
<g id="Group_2">
<path id="Vector" d="M118.5 199.998C183.946 199.998 237 183.335 237 162.779C237 142.223 183.946 125.559 118.5 125.559C53.0543 125.559 0 142.223 0 162.779C0 183.335 53.0543 199.998 118.5 199.998Z" fill="#78C73C"/>
<g id="Group_3">
<g id="Group_4">
<path id="Vector_2" d="M109.889 28.25H107.465V71.2816H109.889V28.25Z" fill="#F4650F"/>
<path id="Vector_3" d="M62.9881 28.7646C62.9881 28.7646 65.6037 25.3102 74.3248 26.1738C83.0459 27.0374 89.1514 33.085 97.0006 32.2214C104.85 31.3578 107.465 28.767 107.465 28.767V54.6823C107.465 54.6823 103.978 57.2731 97.0006 57.2731C90.0233 57.2731 83.9202 52.0891 78.6866 51.2255C73.4529 50.3619 65.6061 51.2255 62.1162 53.8163C62.1162 53.8163 66.0408 45.6108 76.5057 39.5632C76.5057 39.5632 73.8901 33.5156 62.9881 28.7646Z" fill="#90DB00"/>
<path id="Vector_4" d="M108.575 28.7503C109.692 28.7503 110.597 27.8539 110.597 26.7482C110.597 25.6425 109.692 24.7461 108.575 24.7461C107.459 24.7461 106.554 25.6425 106.554 26.7482C106.554 27.8539 107.459 28.7503 108.575 28.7503Z" fill="#F4650F"/>
<path id="Vector_5" d="M90.6666 46.9498C89.2372 45.478 87.7268 43.9406 86.2533 42.3691C86.1305 42.2377 86.1526 41.7876 86.2852 41.6441C86.769 41.1089 87.329 40.637 87.9429 40.0653C88.8934 41.053 89.8242 42.0163 90.8434 43.0745C93.4001 40.5616 95.9273 38.0827 98.5109 35.543C99.1421 36.2484 99.7242 36.898 100.284 37.5256C97.1626 40.5859 93.9478 43.7387 90.6715 46.9498H90.6666Z" fill="white"/>
</g>
<path id="Vector_6" d="M98.5235 40.3049L96.9787 41.8205C97.0573 42.2219 97.0991 42.6379 97.0991 43.0611C97.0991 46.6664 94.147 49.5904 90.5073 49.5904C86.8676 49.5904 83.9155 46.6664 83.9155 43.0611C83.9155 39.4559 86.8676 36.5318 90.5073 36.5318C92.1528 36.5318 93.6583 37.1303 94.815 38.1179L96.1634 36.7946C94.6603 35.4663 92.6808 34.6562 90.5097 34.6562C85.8213 34.6562 82.0244 38.4196 82.0244 43.0611C82.0244 47.7027 85.8238 51.466 90.5097 51.466C95.1957 51.466 98.9951 47.7027 98.9951 43.0611C98.9951 42.0954 98.8305 41.1661 98.526 40.3025L98.5235 40.3049Z" fill="white"/>
</g>
<g id="Group_5">
<g id="Group_6">
<path id="Vector_7" d="M51.7865 109.894L50.1656 108.559C49.5172 108.026 48.5716 108.045 47.9503 108.607L47.2503 109.237C46.7788 109.663 46.0199 109.464 45.8234 108.863L44.7919 105.703C44.4505 104.905 43.085 104.732 42.2328 104.922C40.0617 105.401 36.201 108.048 35.7908 113.911C35.7712 114.183 35.921 114.443 35.9603 114.713C36.0634 115.414 37.1097 116.329 38.7208 114.66C38.7208 114.66 40.8305 121.058 49.4681 117.02L52.9678 114.76L51.784 109.897L51.7865 109.894Z" fill="#006850"/>
<path id="Vector_8" d="M44.2295 105.391C44.2295 105.391 41.1055 106.836 39.7817 112.161" stroke="#00A42C" stroke-linecap="round" stroke-linejoin="round"/>
<path id="Vector_9" d="M49.3623 107.828C49.3623 107.828 46.2383 109.273 44.9146 114.598" stroke="#00A42C" stroke-linecap="round" stroke-linejoin="round"/>
</g>
<g id="Group_7">
<path id="Vector_10" d="M77.1838 109.894L78.8047 108.559C79.4531 108.026 80.3986 108.045 81.02 108.607L81.7199 109.237C82.1915 109.663 82.9503 109.464 83.1468 108.863L84.1783 105.703C84.5197 104.905 85.8852 104.732 86.7374 104.922C88.9085 105.401 92.7693 108.048 93.1794 113.911C93.1991 114.183 93.0492 114.443 93.01 114.713C92.9068 115.414 91.8606 116.329 90.2495 114.66C90.2495 114.66 88.1398 121.058 79.5022 117.02L76.0024 114.76L77.1862 109.897L77.1838 109.894Z" fill="#006850"/>
<path id="Vector_11" d="M84.7407 105.391C84.7407 105.391 87.8647 106.836 89.1885 112.161" stroke="#00A42C" stroke-width="3.39" stroke-linecap="round" stroke-linejoin="round"/>
<path id="Vector_12" d="M79.6055 107.828C79.6055 107.828 82.7294 109.273 84.0532 114.598" stroke="#00A42C" stroke-width="3.39" stroke-linecap="round" stroke-linejoin="round"/>
</g>
<path id="Vector_13" d="M77.6774 113.588C77.2943 117.879 71.955 121.28 65.4271 121.28C58.8992 121.28 53.5574 117.879 53.1743 113.585C53.2431 113.585 53.3143 113.588 53.3831 113.588L77.5644 109.824L77.675 113.588H77.6774Z" fill="#00A42C"/>
<path id="Vector_14" d="M58.1523 115.661L62.1433 116.298C64.5501 116.682 67.1092 116.626 69.5136 116.14L73.2098 115.391" stroke="#006850" stroke-width="2.58" stroke-linecap="round" stroke-linejoin="round"/>
<path id="Vector_15" d="M58.1523 117.149L62.1433 117.786C64.5501 118.171 67.1092 118.115 69.5136 117.628L73.2098 116.879" stroke="#006850" stroke-width="2.58" stroke-linecap="round" stroke-linejoin="round"/>
<path id="Vector_16" d="M58.1523 118.637L62.1433 119.275C64.5501 119.659 67.1092 119.603 69.5136 119.116L73.2098 118.367" stroke="#006850" stroke-width="2.58" stroke-linecap="round" stroke-linejoin="round"/>
<g id="Group_8">
<g id="Group_9">
<path id="Vector_17" d="M41.351 84.0109C40.9065 87.9056 48.3652 86.5871 53.3165 87.565C58.2677 88.5429 62.013 88.5502 65.5275 93.8048C67.2712 87.7402 70.8397 86.6138 75.2604 84.1982C79.6812 81.7801 87.83 80.7632 86.2189 77.1848C84.7945 74.0223 81.6091 76.562 80.8895 77.1969C87.555 71.086 83.9251 66.1793 79.0475 75.0975C77.9325 77.1386 75.6632 78.4911 73.723 79.9726C68.5999 83.8844 60.8833 84.9815 54.0041 83.3467M45.87 82.6023C45.9117 82.6194 45.9437 82.6364 45.9658 82.6461C45.9338 82.6315 45.9019 82.6194 45.87 82.6023ZM80.7667 77.3064C80.7839 77.2894 80.8085 77.265 80.8428 77.2359C80.8183 77.2602 80.7913 77.2821 80.7667 77.3064Z" fill="#90DB00"/>
<path id="Vector_18" d="M39.649 72.7969C39.649 72.7969 38.2466 75.5628 39.9191 78.2436C41.5916 80.9244 44.6174 82.0824 44.6174 82.0824L39.1209 80.9634C39.1209 80.9634 40.091 85.257 42.8392 86.5099C45.585 87.7603 57.0494 87.6897 57.0494 87.6897L58.9012 83.9848C58.9012 83.9848 48.1564 84.3059 39.6514 72.7969H39.649Z" fill="#90DB00"/>
<path id="Vector_19" d="M83.8932 66.0078C83.8932 66.0078 86.0765 68.224 85.3004 71.2794C84.5243 74.3349 81.9947 76.3467 81.9947 76.3467L86.8919 73.6343C86.8919 73.6343 87.2775 78.0179 85.0425 80.0346C82.8076 82.0513 71.859 85.4181 71.859 85.4181L68.9634 82.4405C68.9634 82.4405 79.303 79.5262 83.8932 66.0078Z" fill="#90DB00"/>
</g>
<g id="Group_10">
<path id="Vector_20" d="M41.4912 84.9171C41.0466 88.8118 48.5054 87.4933 53.4566 88.4713C58.4078 89.4492 62.1531 89.4565 65.6676 94.7111C67.4113 88.6464 70.9799 87.5201 75.4006 85.1044C79.8213 82.6863 87.9702 81.6695 86.3591 78.091C84.9346 74.9285 81.7492 77.4683 81.0296 78.1032C87.6951 71.9923 84.0652 67.0856 79.1877 76.0038C78.0727 78.0448 75.8034 79.3974 73.8632 80.8789C68.74 84.7906 61.0234 85.8877 54.1443 84.253M46.0101 83.5086C46.0519 83.5256 46.0838 83.5426 46.1059 83.5524C46.074 83.5378 46.042 83.5256 46.0101 83.5086ZM80.9068 78.2127C80.924 78.1956 80.9486 78.1713 80.983 78.1421C80.9584 78.1664 80.9314 78.1883 80.9068 78.2127Z" fill="#00A42C"/>
<path id="Vector_21" d="M39.7915 73.7031C39.7915 73.7031 38.3892 76.4691 40.0617 79.1499C41.7342 81.8307 44.7599 82.9887 44.7599 82.9887L39.2635 81.8696C39.2635 81.8696 40.2336 86.1633 42.9818 87.4161C45.7276 88.6665 57.192 88.596 57.192 88.596L59.0438 84.891C59.0438 84.891 48.299 85.2121 39.794 73.7031H39.7915Z" fill="#00A42C"/>
<path id="Vector_22" d="M84.0333 66.9141C84.0333 66.9141 86.2166 69.1302 85.4406 72.1857C84.6645 75.2411 82.1348 77.2529 82.1348 77.2529L87.032 74.5405C87.032 74.5405 87.4176 78.9242 85.1827 80.9409C82.9478 82.9576 71.9991 86.3244 71.9991 86.3244L69.1035 83.3468C69.1035 83.3468 79.4431 80.4324 84.0333 66.9141Z" fill="#00A42C"/>
</g>
<path id="Vector_23" d="M79.4529 78.1641C79.4529 78.1641 66.8514 84.4258 65.0954 90.5683C65.0954 90.5683 60.5322 85.7054 48.6724 83.9684C48.6724 83.9684 60.1196 84.2214 64.447 87.5761C64.447 87.5761 66.6623 83.2167 79.4529 78.1641Z" fill="#006850"/>
<path id="Vector_24" d="M72.7677 84.3477C72.7677 84.3477 66.252 87.5855 65.3433 90.7602C65.3433 90.7602 62.9831 88.2448 56.8506 87.3471C56.8506 87.3471 62.7694 87.4785 65.0068 89.213C65.0068 89.213 66.1513 86.9603 72.7652 84.3477H72.7677Z" fill="#3290B0"/>
<path id="Vector_25" d="M80.4645 83.6463C80.4645 83.6463 83.8709 78.3625 86.0247 80.8122C88.1786 83.2619 83.3699 87.4145 81.4149 88.1005L79.7056 87.5629L80.4645 83.6463Z" fill="#006850"/>
<path id="Vector_26" d="M82.4883 89.2719C82.4883 89.2719 84.2541 83.9687 86.656 85.6132C89.058 87.2577 85.8308 91.8895 84.2983 92.9063L82.7044 92.8163L82.4883 89.2719Z" fill="#006850"/>
<path id="Vector_27" d="M46.3979 88.2451C46.3979 88.2451 41.5351 84.2312 40.2335 87.2088C38.9294 90.1888 44.7795 92.7067 46.8523 92.7748L48.3185 91.7506L46.4004 88.2451H46.3979Z" fill="#006850"/>
<path id="Vector_28" d="M46.1843 94.2116C46.1843 94.2116 42.8811 89.6868 41.0931 91.9735C39.3052 94.2602 43.7947 97.7073 45.5679 98.2182L47.0587 97.6538L46.1819 94.2116H46.1843Z" fill="#006850"/>
<path id="Vector_29" d="M86.585 99.3681C87.1646 100.511 87.2088 101.789 87.2923 103.063C87.5355 106.841 84.3182 110.296 80.369 111.476C78.9396 111.904 77.5569 112.473 76.2159 113.118L71.6233 115.331C69.3 116.45 66.6844 116.842 64.1302 116.453L56.7427 115.326C56.5413 115.295 56.3399 115.268 56.1385 115.244C54.714 115.076 46.4718 114.964 45.5288 108.933C45.3593 107.853 45.1604 106.778 45.5263 105.747L45.8308 104.885C45.8677 104.781 45.8996 104.676 45.9266 104.569C46.1255 103.803 46.0863 102.993 45.8112 102.246L43.1907 95.1815C43.0384 94.206 43.1391 93.2499 43.4461 92.379C44.0699 88.263 52.2581 83.8914 62.7622 82.2786C73.2663 80.6657 82.4074 82.3783 84.2592 86.1149C84.8167 86.8544 85.2048 87.7351 85.3595 88.7106L85.4626 96.0718C85.4725 96.7968 85.6493 97.5071 85.9784 98.1542L86.1036 98.4024L86.5875 99.3584L86.585 99.3681Z" fill="#90DB00"/>
<path id="Vector_30" opacity="0.12" d="M85.9759 98.1669L86.1012 98.415C84.6939 99.8211 82.8642 100.911 80.8749 101.507C79.2196 102.003 77.6183 102.66 76.0612 103.409L70.7416 105.973C68.0474 107.272 65.0193 107.725 62.0598 107.275L53.5033 105.971C53.2699 105.934 53.0366 105.903 52.8033 105.876C51.9241 105.771 48.8099 105.686 45.9242 104.577C46.1231 103.811 46.0838 103.001 45.8087 102.254L43.1882 95.1893C43.036 94.2138 43.1367 93.2578 43.4437 92.3869C44.0675 88.2708 52.2556 83.8993 62.7598 82.2864C73.2639 80.6735 82.405 82.3861 84.2568 86.1227C84.8143 86.8623 85.2023 87.7429 85.357 88.7184L85.4602 96.0797C85.47 96.8046 85.6468 97.5149 85.9759 98.162V98.1669Z" fill="#006850"/>
<path id="Vector_31" d="M57.2037 105.973C62.1591 105.212 65.5563 100.634 64.7916 95.7465C64.0269 90.8593 59.3899 87.5142 54.4345 88.2749C49.4791 89.0356 46.0818 93.6142 46.8465 98.5014C47.6112 103.389 52.2483 106.734 57.2037 105.973Z" fill="#006850"/>
<path id="Vector_32" d="M76.5734 102.997C81.427 102.252 84.7416 97.6864 83.9769 92.7992C83.2122 87.912 78.6577 84.5542 73.8042 85.2993C68.9507 86.0444 65.636 90.6103 66.4007 95.4975C67.1654 100.385 71.7199 103.742 76.5734 102.997Z" fill="#006850"/>
<path id="Vector_33" d="M57.0272 105.935C61.4259 105.935 64.9918 102.402 64.9918 98.0454C64.9918 93.6883 61.4259 90.1562 57.0272 90.1562C52.6284 90.1562 49.0625 93.6883 49.0625 98.0454C49.0625 102.402 52.6284 105.935 57.0272 105.935Z" fill="#F3F9E6"/>
<path id="Vector_34" d="M74.2631 102.891C78.4394 102.891 81.825 99.5371 81.825 95.4004C81.825 91.2636 78.4394 87.9102 74.2631 87.9102C70.0868 87.9102 66.7012 91.2636 66.7012 95.4004C66.7012 99.5371 70.0868 102.891 74.2631 102.891Z" fill="#F3F9E6"/>
<path id="Vector_35" d="M58.6211 104.09C62.1287 104.09 64.9722 101.273 64.9722 97.7987C64.9722 94.3243 62.1287 91.5078 58.6211 91.5078C55.1135 91.5078 52.27 94.3243 52.27 97.7987C52.27 101.273 55.1135 104.09 58.6211 104.09Z" fill="#B4B49C"/>
<path id="Vector_36" d="M73.2688 102.044C76.889 102.044 79.8238 99.1373 79.8238 95.5514C79.8238 91.9655 76.889 89.0586 73.2688 89.0586C69.6486 89.0586 66.7139 91.9655 66.7139 95.5514C66.7139 99.1373 69.6486 102.044 73.2688 102.044Z" fill="#B4B49C"/>
<path id="Vector_37" d="M60.5706 102.703C63.4042 102.268 65.3141 99.4413 64.8365 96.389C64.3589 93.3366 61.6747 91.2149 58.8411 91.6499C56.0075 92.0849 54.0976 94.9119 54.5752 97.9642C55.0528 101.017 57.7371 103.138 60.5706 102.703Z" fill="black"/>
<path id="Vector_38" d="M72.7254 100.832C75.559 100.397 77.4689 97.5702 76.9913 94.5179C76.5137 91.4655 73.8295 89.3438 70.9959 89.7788C68.1623 90.2138 66.2524 93.0408 66.73 96.0931C67.2076 99.1455 69.8918 101.267 72.7254 100.832Z" fill="black"/>
<path id="Vector_39" d="M57.5762 103.115C58.1635 102.046 57.838 100.747 56.8491 100.214C55.8602 99.6811 54.5824 100.116 53.9951 101.185C53.4078 102.254 53.7333 103.553 54.7222 104.086C55.7111 104.619 56.9889 104.184 57.5762 103.115Z" fill="white"/>
<path id="Vector_40" d="M57.7688 99.8924C58.1581 99.8924 58.4737 99.5799 58.4737 99.1943C58.4737 98.8087 58.1581 98.4961 57.7688 98.4961C57.3795 98.4961 57.064 98.8087 57.064 99.1943C57.064 99.5799 57.3795 99.8924 57.7688 99.8924Z" fill="white"/>
<path id="Vector_41" d="M73.5821 101.06C74.1694 99.9912 73.8438 98.6924 72.8549 98.1594C71.866 97.6265 70.5882 98.0612 70.0009 99.1304C69.4136 100.2 69.7392 101.498 70.7281 102.031C71.717 102.564 72.9948 102.13 73.5821 101.06Z" fill="white"/>
<path id="Vector_42" d="M73.7722 97.8378C74.1615 97.8378 74.4771 97.5252 74.4771 97.1396C74.4771 96.754 74.1615 96.4414 73.7722 96.4414C73.383 96.4414 73.0674 96.754 73.0674 97.1396C73.0674 97.5252 73.383 97.8378 73.7722 97.8378Z" fill="white"/>
<path id="Vector_43" d="M56.519 111.284L62.6049 111.95C66.2766 112.352 69.9851 111.702 73.2957 110.079L78.3795 107.586" stroke="#006850" stroke-linecap="round" stroke-linejoin="round"/>
<path id="Vector_44" d="M66.4854 106.401C66.1465 107 64.8498 106.863 64.1547 106.479C63.4597 106.095 63.1748 105.299 63.5113 104.701C63.8477 104.102 64.6852 103.93 65.3778 104.314C66.0704 104.698 66.8219 105.805 66.483 106.401H66.4854Z" fill="black" stroke="#006850" stroke-width="0.51" stroke-miterlimit="10"/>
<path id="Vector_45" d="M68.3322 106.12C68.8381 106.589 70.0341 106.069 70.5769 105.495C71.1197 104.921 71.1516 104.076 70.6457 103.607C70.1397 103.137 69.2924 103.225 68.7472 103.799C68.202 104.373 67.8262 105.653 68.3322 106.12Z" fill="black" stroke="#006850" stroke-width="0.51" stroke-miterlimit="10"/>
<path id="Vector_46" d="M65.5103 102.821C66.7186 101.631 67.9859 102.441 67.9859 102.441" stroke="#006850" stroke-linecap="round" stroke-linejoin="round"/>
<path id="Vector_47" d="M64.5376 101.468C66.4704 99.5655 68.4991 100.86 68.4991 100.86" stroke="#006850" stroke-linecap="round" stroke-linejoin="round"/>
<path id="Vector_48" d="M75.1792 103.871C78.5611 100.541 82.1099 102.808 82.1099 102.808" stroke="#006850" stroke-linecap="round" stroke-linejoin="round"/>
<path id="Vector_49" d="M51.9116 107.442C55.2935 104.111 58.8423 106.379 58.8423 106.379" stroke="#006850" stroke-linecap="round" stroke-linejoin="round"/>
<path id="Vector_50" d="M61.3572 82.7438C61.3572 82.7438 60.4485 79.3672 61.5438 79.0753C62.6392 78.7809 63.0911 82.4786 63.0911 82.4786L61.3572 82.7438Z" fill="#0C536C"/>
<path id="Vector_51" d="M64.9971 84.9465C64.9971 84.9465 63.7494 85.8904 63.3196 83.9491C62.8899 82.0079 62.9905 78.6021 64.2357 77.6558C65.4809 76.7095 66.4805 84.7179 64.9946 84.9465H64.9971Z" fill="#00A42C"/>
<path id="Vector_52" d="M66.6374 88.9619C66.6374 88.9619 65.1516 87.5582 65.1958 85.4175C65.24 83.2767 65.8466 79.0414 67.4553 78.7933C69.0639 78.5476 68.8183 89.1297 66.6374 88.9619Z" fill="#90DB00"/>
</g>
<path id="Vector_53" d="M61.1635 126.066L59.0195 126.538C57.1333 126.951 55.1956 126.951 53.3119 126.538L51.1678 126.066C50.4703 125.913 50.0872 125.069 50.3745 124.336C51.3594 121.838 53.582 120.094 56.1657 120.094C58.7493 120.094 60.972 121.836 61.9568 124.336C62.2442 125.069 61.861 125.913 61.1635 126.066Z" fill="#0C536C"/>
<path id="Vector_54" d="M81.6388 126.066L79.2 126.538C77.0559 126.951 74.8505 126.951 72.7064 126.538L70.2677 126.066C69.4744 125.913 69.0372 125.069 69.3663 124.336C70.4862 121.838 73.0134 120.094 75.9532 120.094C78.893 120.094 81.4177 121.836 82.5401 124.336C82.8692 125.069 82.432 125.913 81.6388 126.066Z" fill="#0C536C"/>
</g>
<g id="Group_11">
<g id="Group_12" opacity="0.55">
<path id="Vector_55" d="M53.5276 182.552C76.1223 182.552 94.4389 177.396 94.4389 171.036C94.4389 164.676 76.1223 159.52 53.5276 159.52C30.9328 159.52 12.6162 164.676 12.6162 171.036C12.6162 177.396 30.9328 182.552 53.5276 182.552Z" fill="url(#paint0_linear_3815_2970)"/>
<path id="Vector_56" d="M117.115 185.16C143.514 185.16 164.915 177.526 164.915 168.109C164.915 158.692 143.514 151.059 117.115 151.059C90.7154 151.059 69.3145 158.692 69.3145 168.109C69.3145 177.526 90.7154 185.16 117.115 185.16Z" fill="url(#paint1_linear_3815_2970)"/>
<path id="Vector_57" d="M168.984 173.709C195.384 173.709 216.785 169.417 216.785 164.124C216.785 158.83 195.384 154.539 168.984 154.539C142.585 154.539 121.184 158.83 121.184 164.124C121.184 169.417 142.585 173.709 168.984 173.709Z" fill="url(#paint2_linear_3815_2970)"/>
<path id="Vector_58" d="M175.613 163.215C202.013 163.215 223.414 157.949 223.414 151.453C223.414 144.957 202.013 139.691 175.613 139.691C149.214 139.691 127.813 144.957 127.813 151.453C127.813 157.949 149.214 163.215 175.613 163.215Z" fill="url(#paint3_linear_3815_2970)"/>
</g>
<g id="Group_13">
<path id="Vector_59" d="M222.429 149.821C205.495 156.387 189.716 156.372 178.349 154.789C167.499 153.28 160.664 150.347 160.664 150.347L144.722 135.566L143.283 97.7911C143.283 97.7911 144.467 90.3593 146.115 82.7669C146.115 82.7571 146.12 82.7523 146.12 82.7426C147.618 75.8532 149.487 68.8398 151.201 67.1467C154.799 63.5828 154.077 69.9953 156.958 70.7057C158.355 71.0535 160.099 68.3679 161.514 65.5143C163.253 62.021 168.253 62.0137 170.053 65.4754C170.679 66.6723 171.286 67.9932 171.878 69.3872C176.058 79.2541 179.261 92.8017 179.261 92.8017L183.576 93.512C192.211 98.5014 222.429 149.816 222.429 149.816V149.821Z" fill="#B94187"/>
<path id="Vector_60" opacity="0.23" d="M171.875 69.3935C169.009 77.6281 161.121 83.5444 151.835 83.5444C149.85 83.5444 147.932 83.2768 146.112 82.7708C146.112 82.7611 146.117 82.7562 146.117 82.7465C147.615 75.8571 149.484 68.8437 151.199 67.1506C154.797 63.5867 154.075 69.9992 156.955 70.7096C158.353 71.0575 160.097 68.3718 161.511 65.5182C163.25 62.0249 168.25 62.0176 170.051 65.4793C170.677 66.6762 171.283 67.9971 171.875 69.3911V69.3935Z" fill="#EB80CE"/>
<path id="Vector_61" opacity="0.36" d="M178.349 154.789C167.499 153.281 160.664 150.347 160.664 150.347L144.722 135.566L143.283 97.7915C143.283 97.7915 143.509 94.6387 145.157 87.0391L150.958 95.118C161.091 109.228 168.526 125.057 172.892 141.823L178.352 154.789H178.349Z" fill="#852364"/>
<path id="Vector_62" opacity="0.36" d="M217.335 155.555C217.335 155.555 208.848 135.201 204.216 135.201C199.584 135.201 198.041 139.723 198.041 139.723C198.041 139.723 189.554 113.336 180.292 114.09C171.031 114.844 161.465 164.712 161.465 164.712C161.465 164.712 167.172 165.356 192.638 163.848C218.104 162.34 217.333 155.555 217.333 155.555H217.335Z" fill="#852364"/>
<path id="Vector_63" opacity="0.21" d="M99.5795 175.596C94.6897 173.83 93.6361 171.918 93.6361 171.918L71.3262 163.364L72.7654 127.73C72.7654 127.73 74.0228 123.879 76.0269 117.922C77.1689 119.491 77.7706 120.805 77.7706 120.805C77.7706 120.805 95.3061 147.588 99.5795 175.598V175.596Z" fill="#B94187"/>
<g id="Group_14">
<path id="Vector_64" d="M159.805 129.205C157.098 130.341 154.055 130.419 151.292 129.424L149.49 128.774C148.104 128.276 147.539 126.634 148.33 125.405C149.723 123.243 152.169 121.812 154.952 121.824C157.358 121.834 159.507 122.924 160.932 124.627C162.199 126.142 161.632 128.439 159.805 129.205Z" fill="#8F2631"/>
<path id="Vector_65" d="M178.134 130.885C175.427 132.021 172.384 132.099 169.621 131.104L167.819 130.454C166.433 129.955 165.869 128.313 166.659 127.085C168.052 124.922 170.498 123.492 173.281 123.504C175.687 123.514 177.836 124.604 179.261 126.306C180.528 127.822 179.961 130.118 178.134 130.885Z" fill="#8F2631"/>
<g id="Group_15">
<path id="Vector_66" d="M182.721 122.648L178.406 122.052L151.388 118.313C147.149 118.169 143.829 114.739 143.969 110.652L144.58 92.9399C144.72 88.8531 148.271 85.6541 152.51 85.7976L185.329 86.9069C189.568 87.0504 192.891 90.4805 192.749 94.5674L190.954 112.521L190.654 115.505C190.514 119.592 186.963 122.791 182.724 122.648H182.721Z" fill="#EE9737"/>
<path id="Vector_67" d="M180.035 121.613L153.387 117.849C149.782 117.728 146.96 114.733 147.083 111.164L147.616 95.6899C147.739 92.1187 150.762 89.3236 154.365 89.4452L182.277 90.3891C185.882 90.5107 188.704 93.5054 188.581 97.0741L186.784 115.368C186.661 118.939 183.637 121.734 180.035 121.613Z" fill="#F3F9E6"/>
<path id="Vector_68" opacity="0.31" d="M182.721 122.649L178.406 122.053L177.274 94.2422L188.716 95.2444L190.954 112.519L190.654 115.504C190.514 119.591 186.963 122.79 182.724 122.646L182.721 122.649Z" fill="#84420A"/>
<path id="Vector_69" opacity="0.49" d="M182.721 122.648L178.406 122.052L151.388 118.313C147.149 118.169 143.829 114.739 143.969 110.652L144.58 92.9399C144.72 88.8531 148.271 85.6541 152.51 85.7976L185.329 86.9069C189.568 87.0504 192.891 90.4805 192.749 94.5674L190.954 112.521L190.654 115.505C190.514 119.592 186.963 122.791 182.724 122.648H182.721Z" fill="#F4650F"/>
<g id="Group_16">
<path id="Vector_70" d="M186.493 113.545C186.493 113.545 196.641 112.178 199.289 108.974C201.936 105.77 202.29 99.7518 198.653 99.7348C189.959 99.691 191.078 102.88 186.493 113.545Z" fill="#EE9737"/>
<path id="Vector_71" d="M197.955 108.053C196.641 109.651 193.458 111.196 190.592 112.337C187.709 113.49 185.15 114.237 185.15 114.237C186.702 108.576 188.325 105.165 189.937 103.088C192.459 99.8425 194.964 99.8473 197.169 99.6162C200.789 99.2343 200.593 104.839 197.958 108.055L197.955 108.053Z" fill="#F8E54D"/>
<path id="Vector_72" opacity="0.49" d="M191.022 108.696C191.022 109.985 190.87 111.214 190.595 112.335C187.711 113.488 185.152 114.235 185.152 114.235C186.705 108.574 188.328 105.163 189.939 103.086C190.622 104.662 191.025 106.601 191.025 108.696H191.022Z" fill="#F4650F"/>
</g>
<path id="Vector_73" d="M183.313 91.9078L151.713 87.107C147.632 86.487 143.816 89.2614 143.19 93.3038L140.478 110.821C139.852 114.863 142.653 118.643 146.734 119.263L178.334 124.064C182.415 124.684 186.231 121.91 186.857 117.867L189.569 100.35C190.195 96.3075 187.394 92.5278 183.313 91.9078Z" fill="#FFC600"/>
<g id="Group_17">
<path id="Vector_74" d="M166.136 105.776C165.392 110.573 160.971 113.882 156.263 113.166C154.687 112.926 153.277 112.266 152.128 111.315C150.639 110.082 149.586 108.357 149.171 106.421C148.949 105.389 148.91 104.297 149.082 103.185C149.826 98.3878 154.247 95.0794 158.955 95.797C163.666 96.5122 166.88 100.981 166.139 105.778L166.136 105.776Z" fill="#EE9737"/>
<path id="Vector_75" d="M182.473 108.26C181.729 113.057 177.308 116.366 172.6 115.651C171.024 115.41 169.614 114.751 168.464 113.799C166.976 112.566 165.923 110.841 165.507 108.905C165.286 107.873 165.247 106.781 165.419 105.669C166.163 100.872 170.584 97.5638 175.292 98.2814C180.003 98.9966 183.217 103.465 182.476 108.263L182.473 108.26Z" fill="#EE9737"/>
</g>
<path id="Vector_76" d="M166.276 104.877C165.532 109.675 161.111 112.983 156.403 112.268C154.826 112.027 153.417 111.368 152.267 110.417C150.779 109.183 149.725 107.458 149.31 105.522C149.089 104.491 149.05 103.398 149.222 102.287C149.966 97.4894 154.387 94.181 159.095 94.8986C163.803 95.6162 167.02 100.083 166.278 104.88L166.276 104.877Z" fill="#F3F9E6"/>
<path id="Vector_77" d="M165.364 103.609C166.015 99.399 163.176 95.4746 159.021 94.8434C154.866 94.2121 150.969 97.1131 150.318 101.323C149.666 105.533 152.505 109.457 156.66 110.088C160.815 110.719 164.712 107.819 165.364 103.609Z" fill="black"/>
<path id="Vector_78" d="M152.974 109.897C152.756 110.106 152.518 110.279 152.267 110.417C150.779 109.184 149.725 107.459 149.31 105.523C150.545 104.606 152.23 104.652 153.24 105.691C154.34 106.824 154.222 108.707 152.974 109.897Z" fill="white"/>
<path id="Vector_79" d="M154.915 105.689C155.464 105.689 155.909 105.248 155.909 104.704C155.909 104.16 155.464 103.719 154.915 103.719C154.365 103.719 153.92 104.16 153.92 104.704C153.92 105.248 154.365 105.689 154.915 105.689Z" fill="white"/>
<path id="Vector_80" d="M182.613 107.362C181.869 112.159 177.448 115.467 172.74 114.752C171.163 114.511 169.753 113.852 168.604 112.901C167.116 111.668 166.062 109.943 165.647 108.006C165.426 106.975 165.387 105.883 165.559 104.771C166.303 99.9738 170.724 96.6653 175.432 97.383C180.142 98.0982 183.357 102.567 182.615 107.364L182.613 107.362Z" fill="#F3F9E6"/>
<path id="Vector_81" d="M181.7 106.097C182.351 101.887 179.512 97.9629 175.357 97.3316C171.202 96.7004 167.305 99.6014 166.653 103.811C166.002 108.021 168.841 111.945 172.996 112.577C177.151 113.208 181.048 110.307 181.7 106.097Z" fill="black"/>
<path id="Vector_82" d="M169.309 112.381C169.091 112.59 168.852 112.763 168.602 112.902C167.114 111.668 166.06 109.944 165.645 108.007C166.88 107.09 168.565 107.136 169.575 108.175C170.675 109.309 170.557 111.192 169.309 112.381Z" fill="white"/>
<path id="Vector_83" d="M171.25 108.17C171.799 108.17 172.244 107.729 172.244 107.184C172.244 106.64 171.799 106.199 171.25 106.199C170.7 106.199 170.255 106.64 170.255 107.184C170.255 107.729 170.7 108.17 171.25 108.17Z" fill="white"/>
<path id="Vector_84" d="M143.138 96.9648C143.138 96.9648 148.298 106.501 147.667 110.595C147.036 114.689 143.345 118.11 140.965 115.164C138.587 112.22 137.91 107.43 143.136 96.9648H143.138Z" fill="#EE9737"/>
<path id="Vector_85" d="M165.72 113.903C165.786 113.478 165.113 113.023 164.218 112.887C163.322 112.751 162.543 112.985 162.477 113.41C162.411 113.835 163.084 114.29 163.98 114.426C164.875 114.562 165.654 114.328 165.72 113.903Z" fill="#F17467"/>
<path id="Vector_86" d="M142.844 95.9961C142.844 95.9961 147.463 105.452 146.832 109.544C146.201 113.638 142.768 117.097 140.619 114.188C138.472 111.278 137.91 106.508 142.844 95.9961Z" fill="#F8E54D"/>
</g>
</g>
<g id="Group_18">
<g id="Group_19">
<path id="Vector_87" d="M122.702 70.905C122.169 70.7809 121.641 70.5839 121.13 70.309C120.819 70.1436 120.516 69.9514 120.222 69.7252C120.124 69.6522 120.023 69.5743 119.925 69.4965C119.704 69.3189 119.487 69.1486 119.276 68.9759C112.935 63.8186 111.707 60.8191 113.065 58.3305C113.809 56.9658 115.931 57.7564 116.705 58.0994C116.184 57.8318 115.013 57.1458 113.74 55.8321C112.881 54.9467 113.109 54.2144 113.549 53.7036C114.038 53.1392 114.819 52.9227 115.551 53.0905C119.708 54.0417 123.154 56.2384 125.721 58.4108C129.017 61.2035 130.851 63.9524 130.851 63.9524L130.839 64.6141C130.753 68.9954 126.575 71.8124 122.705 70.905H122.702Z" fill="#3584A5"/>
<path id="Vector_88" d="M122.702 70.9059C122.169 70.7818 121.641 70.5847 121.131 70.3098C120.367 68.8794 120.011 67.2593 120.178 65.5856C120.502 62.3623 122.69 59.7204 125.716 58.4141C129.012 61.2068 130.846 63.9557 130.846 63.9557L130.834 64.6174C130.748 68.9986 126.571 71.8157 122.7 70.9083L122.702 70.9059Z" fill="#0C536C"/>
</g>
<g id="Group_20">
<path id="Vector_89" d="M158.923 80.2303C159.436 80.4201 159.983 80.549 160.563 80.6025C160.914 80.6366 161.275 80.6439 161.646 80.6196C161.769 80.6123 161.897 80.6025 162.022 80.5928C162.307 80.5685 162.582 80.5441 162.852 80.5174C171.021 79.7341 173.725 77.9193 173.997 75.1022C174.147 73.5575 171.939 73.0418 171.104 72.9031C171.689 72.9688 173.044 73.0442 174.842 72.6574C176.055 72.3971 176.276 71.6624 176.198 70.9959C176.109 70.2588 175.584 69.6458 174.881 69.383C170.895 67.8796 166.796 67.8018 163.444 68.191C159.136 68.6921 156.066 69.962 156.066 69.962L155.705 70.5191C153.313 74.2046 155.199 78.851 158.923 80.2328V80.2303Z" fill="#3584A5"/>
<path id="Vector_90" d="M158.923 80.2307C159.436 80.4205 159.983 80.5494 160.563 80.6029C162.002 79.8366 163.208 78.6884 164.011 77.2045C165.556 74.3485 165.222 70.9476 163.446 68.1914C159.139 68.6925 156.069 69.9624 156.069 69.9624L155.708 70.5195C153.316 74.205 155.202 78.8514 158.925 80.2332L158.923 80.2307Z" fill="#0C536C"/>
</g>
<path id="Vector_91" d="M154.242 75.9054C152.663 80.2039 146.248 82.2449 139.55 80.4739C132.853 78.7029 128.314 73.767 129.107 69.2617C129.179 69.2812 129.25 69.3031 129.321 69.3201L154.239 75.9029L154.242 75.9054Z" fill="#00C1C5"/>
<path id="Vector_92" d="M171.412 52.913C172.714 48.0788 163.618 41.4767 151.094 38.1668C138.571 34.8568 127.363 36.0925 126.061 40.9266C124.758 45.7608 133.855 52.3629 146.378 55.6728C158.902 58.9828 170.11 57.7471 171.412 52.913Z" fill="#21A8C9"/>
<g id="Group_21">
<path id="Vector_93" d="M138.042 71.4884C138.03 71.5541 138.015 71.6174 137.998 71.6806C137.477 73.6146 135.473 74.7628 133.523 74.2471C131.571 73.7314 130.412 71.7463 130.932 69.8147C130.949 69.7515 130.967 69.6882 130.991 69.625" stroke="#5ECFC7" stroke-width="3.25" stroke-miterlimit="10"/>
<path id="Vector_94" d="M145.191 73.5846C144.671 75.5186 142.667 76.6668 140.717 76.1511C138.764 75.6354 137.605 73.6503 138.126 71.7188" stroke="#5ECFC7" stroke-width="3.25" stroke-miterlimit="10"/>
<path id="Vector_95" d="M152.388 75.4831C151.867 77.417 149.863 78.5653 147.913 78.0495C145.96 77.5338 144.801 75.5487 145.322 73.6172" stroke="#5ECFC7" stroke-width="3.25" stroke-miterlimit="10"/>
</g>
<g id="Clip path group">
<mask id="mask0_3815_2970" style="mask-type:luminance" maskUnits="userSpaceOnUse" x="129" y="69" width="26" height="13">
<g id="clippath">
<path id="Vector_96" d="M154.242 75.9054C152.663 80.2039 146.248 82.2449 139.55 80.4739C132.853 78.7029 128.314 73.767 129.107 69.2617C129.179 69.2812 129.25 69.3031 129.321 69.3201L154.239 75.9029L154.242 75.9054Z" fill="white"/>
</g>
</mask>
<g mask="url(#mask0_3815_2970)">
<g id="Group_22">
<g id="Vector_97" style="mix-blend-mode:darken">
<path d="M163.992 75.6805C161.29 78.0134 157.643 78.5073 153.92 77.522L128.958 70.927C128.886 70.9076 128.815 70.8881 128.744 70.8687C125.097 69.8275 122.25 67.604 121.121 64.2737C121.769 63.9112 122.255 63.7969 122.255 63.7969L128.516 65.8622L128.646 66.3633C130.318 66.9229 131.662 67.3486 131.662 67.3486L131.011 69.7667L152.594 75.4688L153.245 73.0508C153.245 73.0508 154.497 73.3184 156.111 73.637L156.489 73.2527L162.955 74.5493L162.764 74.6977C163.017 74.7001 163.169 74.6734 163.186 74.6125C163.186 74.6125 163.589 74.9847 163.989 75.6829L163.992 75.6805Z" fill="#3F7787"/>
</g>
</g>
</g>
</g>
<path id="Vector_98" d="M141.031 76.2306C141.021 76.289 141.007 76.3474 140.992 76.4033C140.525 78.1378 138.563 79.1255 136.613 78.6098C134.663 78.094 133.46 76.2695 133.926 74.5375C133.941 74.4815 133.958 74.4231 133.978 74.3672" stroke="#5ECFC7" stroke-width="2" stroke-miterlimit="10"/>
<path id="Vector_99" d="M148.097 78.0978C148.087 78.1562 148.072 78.2146 148.057 78.2705C147.591 80.005 145.629 80.9927 143.679 80.477C141.726 79.9612 140.525 78.1367 140.992 76.4047C141.006 76.3487 141.024 76.2903 141.043 76.2344" stroke="#5ECFC7" stroke-width="2" stroke-miterlimit="10"/>
<path id="Vector_100" d="M134.245 85.5666L131.917 85.4693C129.869 85.3841 127.88 84.8587 126.062 83.9221L123.994 82.859C123.321 82.5136 123.162 81.5429 123.66 80.8691C125.36 78.5726 128.12 77.3879 130.77 78.0861C133.42 78.7843 135.218 81.1756 135.537 84.0072C135.631 84.8368 135.004 85.5982 134.245 85.5666Z" fill="#0C536C"/>
<path id="Vector_101" d="M150.742 90.4696L148.112 90.292C145.798 90.1363 143.536 89.5379 141.451 88.5332L139.081 87.3898C138.31 87.0176 138.096 86.0324 138.634 85.3707C140.474 83.1108 143.546 82.0088 146.562 82.8043C149.576 83.5997 151.688 86.0738 152.144 88.9395C152.28 89.7787 151.599 90.528 150.742 90.4696Z" fill="#0C536C"/>
<path id="Vector_102" d="M171.468 54.9663L167.934 68.093C166.347 73.9849 160.237 77.488 154.288 75.9165L129.326 69.3215C129.255 69.302 129.183 69.2826 129.112 69.2631C123.292 67.604 119.861 61.6269 121.427 55.8055L124.962 42.6788C125.907 39.1636 129.552 37.0764 133.098 38.013L166.757 46.9068C170.306 47.8434 172.413 51.4535 171.468 54.9663Z" fill="#21A8C9"/>
<path id="Vector_103" opacity="0.5" d="M160.453 47.0812C157.737 46.3635 154.991 46.5873 152.569 47.5531C150.03 48.5651 147.151 47.8061 145.459 45.6751C143.846 43.6438 141.576 42.0942 138.86 41.3765C132.29 39.642 125.458 43.4954 123.613 49.9785C121.72 56.6391 125.694 63.5236 132.421 65.3019C137.138 66.5499 141.947 64.9467 144.988 61.5653C145.923 65.9976 149.286 69.7586 154.006 71.0065C160.733 72.7848 167.641 68.7733 169.348 62.064C171.009 55.5323 167.023 48.8205 160.453 47.0836V47.0812Z" fill="white"/>
<path id="Vector_104" d="M146.006 58.3309C147.502 52.7788 143.926 47.0125 138.019 45.4514C132.113 43.8903 126.112 47.1256 124.616 52.6776C123.121 58.2297 126.696 63.996 132.603 65.5571C138.51 67.1182 144.51 63.8829 146.006 58.3309Z" fill="#3F7787"/>
<path id="Vector_105" d="M166.586 63.9388C168.029 58.5802 164.583 53.0162 158.889 51.5112C153.195 50.0062 147.408 53.1302 145.965 58.4888C144.521 63.8474 147.967 69.4114 153.661 70.9164C159.356 72.4214 165.142 69.2974 166.586 63.9388Z" fill="#3F7787"/>
<path id="Vector_106" d="M134.997 64.8677C140.798 64.8677 145.501 60.2094 145.501 54.4631C145.501 48.7169 140.798 44.0586 134.997 44.0586C129.196 44.0586 124.493 48.7169 124.493 54.4631C124.493 60.2094 129.196 64.8677 134.997 64.8677Z" fill="#F3F9E6"/>
<path id="Vector_107" d="M157.223 70.2104C162.73 70.2104 167.194 65.7884 167.194 60.3337C167.194 54.879 162.73 50.457 157.223 50.457C151.716 50.457 147.252 54.879 147.252 60.3337C147.252 65.7884 151.716 70.2104 157.223 70.2104Z" fill="#F3F9E6"/>
<path id="Vector_108" d="M137.053 63.3067C141.679 63.3067 145.43 59.5916 145.43 55.0088C145.43 50.426 141.679 46.7109 137.053 46.7109C132.426 46.7109 128.675 50.426 128.675 55.0088C128.675 59.5916 132.426 63.3067 137.053 63.3067Z" fill="#B4B49C"/>
<path id="Vector_109" d="M155.939 68.5587C160.712 68.5587 164.581 64.726 164.581 59.9981C164.581 55.2702 160.712 51.4375 155.939 51.4375C151.166 51.4375 147.296 55.2702 147.296 59.9981C147.296 64.726 151.166 68.5587 155.939 68.5587Z" fill="#B4B49C"/>
<path id="Vector_110" d="M145.309 56.5814C146.369 52.6456 144.267 48.6721 140.613 47.7064C136.959 46.7407 133.138 49.1485 132.077 53.0844C131.017 57.0203 133.12 60.9938 136.773 61.9595C140.427 62.9251 144.249 60.5173 145.309 56.5814Z" fill="black"/>
<path id="Vector_111" d="M160.982 60.7221C162.043 56.7862 159.94 52.8127 156.286 51.847C152.633 50.8813 148.811 53.2891 147.751 57.225C146.691 61.1609 148.793 65.1344 152.447 66.1001C156.101 67.0658 159.922 64.658 160.982 60.7221Z" fill="black"/>
<path id="Vector_112" d="M132.944 60.8717C134.225 59.8904 134.528 58.1515 133.619 56.9877C132.711 55.8238 130.936 55.6757 129.654 56.6569C128.373 57.6382 128.071 59.3771 128.979 60.541C129.888 61.7048 131.663 61.8529 132.944 60.8717Z" fill="white"/>
<path id="Vector_113" d="M135.275 57.1604C135.789 57.1604 136.205 56.7476 136.205 56.2384C136.205 55.7292 135.789 55.3164 135.275 55.3164C134.76 55.3164 134.344 55.7292 134.344 56.2384C134.344 56.7476 134.76 57.1604 135.275 57.1604Z" fill="white"/>
<path id="Vector_114" d="M153.362 66.8131C154.643 65.8319 154.945 64.0929 154.037 62.9291C153.128 61.7652 151.353 61.6171 150.072 62.5983C148.791 63.5796 148.488 65.3185 149.397 66.4824C150.305 67.6462 152.08 67.7943 153.362 66.8131Z" fill="white"/>
<path id="Vector_115" d="M155.693 63.1018C156.207 63.1018 156.624 62.689 156.624 62.1798C156.624 61.6706 156.207 61.2578 155.693 61.2578C155.179 61.2578 154.762 61.6706 154.762 62.1798C154.762 62.689 155.179 63.1018 155.693 63.1018Z" fill="white"/>
<path id="Vector_116" d="M141.368 62.9648C141.368 62.9648 144.467 64.1204 145.179 65.5483C145.891 66.9739 144.484 68.1878 144.484 68.1878C144.484 68.1878 140.287 69.6498 141.37 62.9648H141.368Z" fill="#EF856F"/>
<path id="Vector_117" d="M139.776 64.3145C139.776 64.3145 140.667 56.9167 146.071 57.7998C150.4 58.5077 150.833 64.6453 148.802 66.5647C146.77 68.4841 146.996 66.7082 146.112 65.3094C144.666 63.0179 143.656 62.0059 139.773 64.3169L139.776 64.3145Z" fill="#FFAA8D"/>
</g>
<path id="Vector_118" d="M168.464 159.801C168.464 159.801 168.44 159.864 168.383 159.984C168.103 160.56 167.106 162.465 164.935 164.844C164.019 165.841 162.901 166.924 161.543 168.031C155.88 172.631 146.039 177.591 129.611 178.331C113.596 179.051 104.58 177.406 99.5795 175.596C99.4248 175.538 99.275 175.487 99.1325 175.429C98.941 175.358 98.7518 175.28 98.575 175.21C98.3638 175.125 98.1649 175.037 97.9733 174.952C97.6982 174.833 97.4477 174.713 97.207 174.594C97.0007 174.494 96.8067 174.395 96.625 174.293C95.5738 173.726 94.8714 173.2 94.4146 172.789C94.3704 172.745 94.3336 172.709 94.2943 172.675C94.1936 172.58 94.1076 172.492 94.034 172.412C93.9848 172.359 93.9431 172.312 93.9038 172.269C93.8178 172.169 93.754 172.086 93.7171 172.03C93.6975 172.006 93.6828 171.982 93.6729 171.969C93.6484 171.935 93.6385 171.916 93.6385 171.916L75.128 164.817L71.3286 163.363L71.7289 153.496L72.2201 141.284L72.7703 127.729C72.7703 127.729 72.7997 127.634 72.8808 127.395C72.8857 127.376 72.8906 127.357 72.9004 127.335C72.9004 127.325 72.9053 127.32 72.9103 127.31C72.9201 127.276 72.9299 127.24 72.9446 127.201C72.9594 127.162 72.9692 127.125 72.9839 127.082C72.9888 127.067 72.9938 127.048 72.9987 127.033C73.0134 126.989 73.033 126.943 73.0478 126.889C73.0576 126.86 73.0723 126.824 73.0822 126.79C73.0969 126.746 73.1116 126.705 73.1264 126.656C73.1411 126.617 73.1558 126.576 73.1706 126.532C73.1804 126.503 73.1902 126.471 73.2001 126.437C73.2246 126.376 73.2443 126.308 73.2664 126.238C73.2762 126.213 73.2811 126.189 73.2909 126.167C73.3523 125.982 73.426 125.766 73.5021 125.527C73.5316 125.437 73.5635 125.34 73.593 125.24C73.6274 125.15 73.6544 125.055 73.6888 124.958C73.6986 124.934 73.7084 124.909 73.7134 124.887C73.7281 124.834 73.7477 124.783 73.7625 124.729C73.9639 124.133 74.1923 123.45 74.4428 122.693C74.4821 122.579 74.5189 122.464 74.5582 122.345C74.6245 122.141 74.6982 121.929 74.7694 121.71V121.705C74.8087 121.586 74.8505 121.467 74.8898 121.348C74.9487 121.17 75.0052 121 75.069 120.818C75.2041 120.406 75.349 119.983 75.4939 119.538C75.5553 119.365 75.6143 119.19 75.6732 119.012C75.7935 118.665 75.9139 118.302 76.0342 117.935C76.0391 117.93 76.0391 117.925 76.0391 117.92C78.0899 111.824 80.924 103.511 83.9915 94.8536C91.1384 74.6648 99.5525 64.574 102.279 64.1873C107.316 63.4769 108.035 70.6047 108.035 70.6047L110.916 63.4769C115.953 48.5111 118.112 43.5217 122.427 47.0855C123.641 48.0878 127.413 57.1957 132.209 69.7751C135.893 79.445 140.191 91.1681 144.386 102.838C144.415 102.913 144.445 102.986 144.467 103.061C153.311 127.627 161.725 139.878 163.208 144.166C163.363 144.604 163.439 144.835 163.439 144.835L164.913 149.209V149.214L165.092 149.744L165.898 152.138H165.903L166.274 153.255L168.479 159.801H168.464Z" fill="#F2B8DF"/>
<path id="Vector_119" opacity="0.21" d="M168.464 159.8C168.464 159.8 161.268 176.909 129.611 178.33C97.9512 179.755 93.6361 171.917 93.6361 171.917L71.3262 163.364L71.7265 153.497L72.2177 141.285L93.6361 149.495C93.6361 149.495 97.9512 157.334 129.611 155.908C147.768 155.093 157.879 149.118 163.196 144.168C163.351 144.606 163.427 144.837 163.427 144.837L166.259 153.256L168.464 159.803V159.8Z" fill="#B94187"/>
<path id="Vector_120" opacity="0.44" d="M166.259 153.252C162.295 158.334 152.152 167.299 129.611 168.308C97.9513 169.734 93.6362 161.896 93.6362 161.896L71.7266 153.493L72.2178 141.281L93.6362 149.492C93.6362 149.492 97.9513 157.33 129.611 155.904C147.768 155.089 157.879 149.114 163.196 144.164C163.351 144.602 163.427 144.833 163.427 144.833L166.259 153.252Z" fill="#F2B8DF"/>
<path id="Vector_121" opacity="0.21" d="M99.5795 175.594C94.6897 173.828 93.6361 171.915 93.6361 171.915L71.3262 163.362L72.7654 127.728C72.7654 127.728 73.2467 126.235 75.2508 120.277C76.2135 119.8 77.7706 120.803 77.7706 120.803C77.7706 120.803 99.8153 143.655 99.5795 175.596V175.594Z" fill="#B94187"/>
<path id="Vector_122" d="M93.636 171.918C93.636 171.918 65.5693 179.756 49.7431 176.192C33.912 172.629 28.1553 170.49 28.1553 170.49C28.1553 170.49 28.5802 169.289 29.344 167.233C29.4103 167.048 29.4839 166.856 29.5601 166.652C29.6902 166.304 29.8253 165.941 29.9702 165.559C30.0243 165.421 30.0758 165.277 30.1299 165.134C30.4565 164.265 30.8175 163.311 31.2129 162.285C31.3087 162.037 31.4045 161.779 31.5077 161.521C31.6133 161.249 31.7189 160.971 31.8294 160.691C35.2309 151.951 40.5898 138.965 46.1574 128.597C48.8074 123.664 51.5041 119.329 54.0558 116.322C60.8318 108.35 66.117 110.505 69.3098 113.631C71.5447 115.811 72.7628 118.465 72.7628 118.465C72.7628 118.465 73.5242 119.625 74.7571 121.705V121.71L74.762 121.72C77.5323 126.391 82.6653 135.679 86.9804 146.944C88.6848 151.401 90.2665 156.172 91.5116 161.086C91.546 161.214 91.5779 161.348 91.6074 161.482C91.9193 162.718 92.2091 163.963 92.4695 165.214C92.5137 165.413 92.5554 165.61 92.5947 165.81C92.6659 166.158 92.7347 166.506 92.801 166.858C93.0417 168.104 93.2578 169.354 93.442 170.605C93.5083 171.043 93.5722 171.483 93.6287 171.921L93.636 171.918Z" fill="#EB80CE"/>
<path id="Vector_123" opacity="0.23" d="M93.636 171.918C93.636 171.918 65.5693 179.756 49.7431 176.192C33.912 172.629 28.1553 170.49 28.1553 170.49C28.1553 170.49 29.5576 166.54 31.8294 160.691C35.1277 161.664 40.8452 163.214 49.7407 165.219C63.0151 168.206 84.8953 163.178 91.6099 161.477C92.4719 164.907 93.1645 168.405 93.6336 171.916L93.636 171.918Z" fill="#B94187"/>
<path id="Vector_124" d="M190.052 167.169C166.308 168.594 160.986 167.984 160.986 167.984C160.986 167.984 164.473 149.544 169.203 135.556C172.03 127.178 175.307 120.396 178.543 120.128C181.019 119.924 183.438 121.831 185.629 124.66C191.066 131.679 195.094 144.36 195.094 144.36C195.094 144.36 196.528 140.086 200.851 140.086C205.173 140.086 213.079 159.326 213.079 159.326C213.079 159.326 213.801 165.743 190.057 167.169H190.052Z" fill="#EB80CE"/>
<path id="Vector_125" opacity="0.21" d="M190.052 167.169C166.308 168.595 160.986 167.984 160.986 167.984C160.986 167.984 161.597 164.749 162.658 159.959C165.64 160.054 173.212 160.068 190.055 159.056C202.523 158.307 208.246 156.178 210.866 154.332C212.195 157.186 213.077 159.321 213.077 159.321C213.077 159.321 213.799 165.739 190.055 167.164L190.052 167.169Z" fill="#B94187"/>
<path id="Vector_126" opacity="0.29" d="M185.627 124.66C184.158 131.187 178.856 136.018 172.546 136.018C171.394 136.018 170.272 135.855 169.204 135.556C172.03 127.178 175.307 120.396 178.544 120.128C181.019 119.924 183.438 121.831 185.629 124.66H185.627Z" fill="#F2B8DF"/>
</g>
</g>
<g id="U1C9JO">
<g id="Group_23">
<path id="Vector_127" d="M91.9364 10.4385C94.8074 10.3631 96.8974 8.94971 98.4668 6.66543C98.6878 6.34431 98.818 5.86264 99.2355 5.84075C99.7758 5.81399 99.8495 6.38567 100.056 6.74814C100.424 7.3928 100.662 8.13963 101.141 8.68212C102.057 9.716 101.856 10.5869 101.07 11.5527C99.4959 13.4939 97.5704 14.8295 95.0383 15.1968C93.7145 15.389 92.6118 15.1384 91.9561 13.8199C91.5508 13.0025 91.121 12.1827 90.6077 11.431C89.9373 10.4482 90.426 10.3582 91.2758 10.4361C91.4943 10.4555 91.7154 10.4385 91.934 10.4385H91.9364Z" fill="#EDB444"/>
<path id="Vector_128" d="M202.032 83.4718C201.45 82.1411 200.988 81.0197 200.467 79.925C200.183 79.3241 200.507 78.9081 200.809 78.4946C201.511 77.5337 202.44 76.7893 203.341 76.0254C204.738 74.8383 206.236 73.7606 207.499 72.082C208.078 73.4589 208.592 74.6461 209.076 75.8454C209.297 76.3927 208.884 76.7479 208.579 77.1079C207.7 78.154 206.61 78.9738 205.564 79.8398C204.313 80.8737 203.068 81.9052 202.032 83.4694V83.4718Z" fill="#E04734"/>
<path id="Vector_129" d="M30.0337 19.6875C30.1614 19.7799 30.353 19.8456 30.4218 19.977C30.994 21.0522 31.5834 22.1226 32.0869 23.2295C32.3644 23.8401 31.7897 24.0274 31.3747 24.2707C29.6801 25.2583 27.8455 26.0222 26.4235 27.438C24.8762 28.9803 24.8639 28.9682 23.7759 27.0682C22.6094 25.0297 22.7494 24.3582 24.579 22.8986C26.0551 21.7212 27.7055 20.8284 29.3755 19.9624C29.5671 19.8627 29.7759 19.7945 30.0313 19.6875H30.0337Z" fill="#EDB444"/>
<path id="Vector_130" d="M125.679 11.9085C128.373 10.3905 130.814 9.03305 133.238 7.64156C133.928 7.24504 134.149 7.38127 134.142 8.16459C134.115 10.7262 134.13 13.2878 134.115 15.847C134.115 16.28 134.139 16.8614 133.417 16.4406C130.895 14.9785 128.385 13.4946 125.679 11.9085Z" fill="#4B978E"/>
<path id="Vector_131" d="M71.444 0.00886156C74.4231 0.0234576 75.8844 1.74579 75.4619 4.59446C75.3784 5.15397 75.096 5.29993 74.6662 5.08342C72.3478 3.91574 70.2406 4.61878 68.1849 5.767C66.9619 6.44815 66.7629 6.36301 66.5468 4.97395C66.5124 4.75988 66.4977 4.5385 66.5051 4.322C66.5345 3.55084 65.783 2.75049 66.284 2.07664C66.9447 1.19357 68.0474 0.811645 69.0813 0.446743C69.8648 0.169418 70.6777 -0.04709 71.444 0.00886156Z" fill="#EDB444"/>
<path id="Vector_132" d="M104.604 110.536C102.71 108.03 100.264 107.607 97.6978 107.653C96.6049 107.673 96.2169 107.386 96.5189 106.33C96.5435 106.247 96.5484 106.157 96.5582 106.072C96.8701 102.876 96.4649 103.34 99.751 103.484C100.672 103.525 101.581 103.742 102.44 104.097C104.574 104.977 105.137 105.951 104.852 108.215C104.766 108.894 104.707 109.573 104.606 110.536H104.604Z" fill="#DF4835"/>
<path id="Vector_133" d="M128.575 84.3008C129.802 84.3202 132.079 86.2688 132.16 87.1981C132.202 87.6846 131.836 87.6506 131.546 87.6433C129.257 87.5825 127.538 88.7307 126.013 90.2365C125.392 90.852 124.967 90.8058 124.409 90.166C122.324 87.7746 122.329 87.5971 124.888 85.719C126.042 84.8725 127.327 84.3665 128.572 84.3008H128.575Z" fill="#EDB444"/>
<path id="Vector_134" d="M25.6401 142.86C28.2287 142.213 30.1173 140.746 31.0825 138.248C31.3109 137.657 31.5909 137.761 31.92 138.124C32.5095 138.768 33.0792 139.425 33.6687 140.07C34.015 140.447 33.9781 140.836 33.8037 141.276C33.4796 142.096 33.0203 142.829 32.4358 143.485C29.8447 146.397 27.7891 146.225 25.6401 142.863V142.86Z" fill="#DF4835"/>
<path id="Vector_135" d="M173.754 31.4799C173.425 31.6915 173.096 31.9056 172.767 32.1173C171.072 32.633 169.383 33.1195 167.904 31.6088C167.904 31.6088 167.916 31.6332 167.916 31.6307C167.86 31.3826 167.877 31.0736 167.732 30.8961C166.855 29.8135 167.374 29.5338 168.489 29.3221C169.429 29.1421 170.53 29.1397 171.112 28.1252L171.09 28.135C171.699 28.2031 172.158 28.0741 172.15 27.337L172.141 27.3516C172.529 27.3687 172.696 27.1692 172.696 26.8019C172.767 26.7289 172.836 26.6583 172.907 26.5854C173.013 26.4905 173.121 26.3932 173.226 26.2983L173.194 26.3226C173.283 26.218 173.371 26.1158 173.46 26.0137L173.423 26.0307C174.145 25.7436 174.594 25.9139 175.014 26.6389C175.599 27.646 175.638 28.6993 175.655 29.7868C175.655 29.7868 175.67 29.7795 175.667 29.7795C174.872 29.8889 174.074 29.9935 174.381 31.132H174.376C174.051 31.0493 173.848 31.1709 173.752 31.4823L173.754 31.4799Z" fill="#E04734"/>
<path id="Vector_136" d="M73.9933 60.9317C74.9167 60.9317 75.8426 60.9584 76.7636 60.9244C77.6035 60.8928 77.6478 61.2017 77.2744 61.8366C76.3264 63.4568 75.3981 65.0891 74.4722 66.7215C74.1406 67.3077 73.8386 67.3904 73.4726 66.7506C72.5222 65.0818 71.5668 63.4155 70.5942 61.7612C70.2357 61.1506 70.3707 60.9001 71.0854 60.9147C72.0531 60.9317 73.0207 60.9195 73.9884 60.9195C73.9884 60.9244 73.9884 60.9293 73.9884 60.9341L73.9933 60.9317Z" fill="#4B978E"/>
<path id="Vector_137" d="M23.4765 118.203C24.0119 120.448 24.4761 122.424 24.9574 124.392C25.1048 124.993 24.7683 124.966 24.3877 124.854C22.585 124.326 20.7848 123.786 18.987 123.246C18.4639 123.09 18.5204 122.823 18.8544 122.511C20.3132 121.152 21.7745 119.789 23.4765 118.203Z" fill="#4B978E"/>
<path id="Vector_138" d="M22.2092 59.2888C20.4139 59.1258 19.1712 59.4445 18.1053 60.3178C17.3857 60.9089 17.0296 60.9162 16.6661 59.8994C15.5634 56.8269 17.9972 55.9974 20.8609 55.9001C22.5407 55.8441 23.5403 57.2429 23.3414 58.902C23.3054 59.202 22.928 59.3309 22.2092 59.2888Z" fill="#EDB444"/>
<path id="Vector_139" d="M36.6402 62.2911C37.7405 60.0944 37.2321 58.1604 35.8911 56.1656C37.1805 56.2508 38.433 55.2704 39.2926 56.2946C40.4617 57.6885 40.7981 59.4327 40.0294 61.1891C39.3491 62.7484 37.8043 61.9067 36.6377 62.2911H36.6402Z" fill="#DF4835"/>
<path id="Vector_140" d="M123.1 26.6927C122.66 26.6027 121.815 27.043 121.408 26.0554C120.764 24.496 121.165 23.9098 122.84 23.883C123.753 23.8684 124.677 23.7249 125.576 23.5376C126.371 23.3721 126.671 23.7103 126.654 24.3987C126.639 25.058 127.555 25.9654 126.197 26.3132C125.259 26.5516 124.321 26.7827 123.1 26.6927Z" fill="#EAB649"/>
<path id="Vector_141" d="M193.436 32.0193C193.07 34.0044 192.046 35.0723 190.585 35.7559C190.052 36.004 188.249 34.9045 188.185 34.3376C188.139 33.9168 188.541 33.9095 188.772 33.7441C189.629 33.1335 190.413 32.4839 190.84 31.4622C191.002 31.0754 190.968 30.1607 191.717 30.4746C192.508 30.8054 193.372 31.2798 193.436 32.0193Z" fill="#EAB649"/>
<path id="Vector_142" d="M220.329 95.9203C218.814 95.8594 218.239 95.025 218.743 93.5971C218.932 93.057 219.357 93.0521 219.801 93.0448C220.977 93.0254 222.166 93.1543 223.303 92.697C223.912 92.4537 223.954 92.9548 224.006 93.3222C224.119 94.1249 224.404 95.0688 223.284 95.3851C222.323 95.6551 221.314 95.7475 220.327 95.9203H220.329Z" fill="#EAB649"/>
<path id="Vector_143" d="M116.015 92.2639C116.712 92.1617 116.97 92.5048 116.999 93.1445C117.026 93.7649 117.699 94.5214 116.646 94.9009C115.469 95.3242 114.178 95.3802 113.07 96.0686C112.623 96.3459 112.159 96.0394 112.092 95.5432C111.992 94.8036 111.321 93.8816 112.417 93.3732C113.559 92.8429 114.774 92.4877 116.015 92.2639Z" fill="#FBFAF3"/>
<path id="Vector_144" d="M207.695 130.54C207.649 131.802 206.391 132.478 205.318 131.79C204.576 131.313 203.749 131.041 202.96 130.673C202.575 130.493 201.811 130.622 201.919 129.97C202.022 129.352 202.418 128.742 203.014 128.421C203.83 127.98 207.384 129.442 207.666 130.287C207.693 130.364 207.686 130.454 207.693 130.54H207.695Z" fill="#FBFAF3"/>
<path id="Vector_145" d="M197.503 91.3466C197.616 91.8258 197.294 91.8404 196.968 91.821C195.678 91.7456 194.529 92.0959 193.571 92.9643C193.144 93.3511 192.967 93.2295 192.734 92.7527C191.857 90.9598 192.39 90.1838 195.062 89.5026C196.589 89.1134 197.429 89.8335 197.503 91.349V91.3466Z" fill="#D94C39"/>
<path id="Vector_146" d="M120.192 75.5431C119.507 74.0568 118.547 73.0448 117.039 72.641C116.823 72.5826 116.643 72.4974 116.7 72.1958C116.867 71.3297 118.306 70.544 119.141 70.887C119.384 70.9867 119.62 71.1059 119.846 71.2397C121.968 72.4926 122.101 73.7186 120.192 75.5456V75.5431Z" fill="#D94C39"/>
<path id="Vector_147" d="M131.013 107.965C132.452 107.359 133.513 106.393 133.946 104.863C134.002 104.664 134.063 104.464 134.385 104.54C135.257 104.742 136.053 106.167 135.719 106.999C135.606 107.281 135.488 107.583 135.291 107.807C133.592 109.736 132.789 110.349 131.013 107.967V107.965Z" fill="#D94C39"/>
<path id="Vector_148" d="M181.299 69.7749C181.024 70.2444 180.751 70.8356 180.36 71.3391C180.066 71.7162 179.825 71.3586 179.67 71.0983C179.157 70.2347 178.386 69.6922 177.47 69.3297C176.689 69.0232 176.51 68.5002 176.875 67.7777C177.229 67.0795 177.6 66.5322 178.58 66.9773C179.83 67.5442 180.854 68.2667 181.301 69.7725L181.299 69.7749Z" fill="#EAB649"/>
<path id="Vector_149" d="M23.8496 93.4381C23.636 93.4868 23.4174 93.0781 23.216 92.6937C22.7027 91.7158 22.5209 90.6454 22.3245 89.5726C22.2041 88.9231 22.5897 88.8087 23.0662 88.8185C23.6065 88.8306 24.3654 88.1446 24.6453 89.0374C25.0236 90.2343 25.1488 91.5066 25.8168 92.6134C26.0256 92.9613 25.7653 93.0903 25.5 93.1511C25.0751 93.2484 24.638 93.3043 23.8472 93.4381H23.8496Z" fill="#D94C39"/>
<path id="Vector_150" d="M154.239 26.7481C154.222 27.203 153.886 27.4609 153.561 27.6531C152.925 28.0326 152.262 28.3878 151.574 28.6699C150.656 29.047 149.585 28.4218 149.408 27.4731C149.32 27.0011 149.674 26.8844 149.985 26.7287C150.771 26.337 151.555 25.9478 152.341 25.5585C152.667 25.3956 152.974 24.9212 153.37 25.3299C153.755 25.7264 154.205 26.1229 154.239 26.7481Z" fill="#EAB649"/>
<path id="Vector_151" d="M91.1281 122.691C91.8894 123.896 92.5403 124.915 93.1764 125.939C93.5202 126.494 93.309 126.71 92.695 126.717C91.7716 126.73 90.8481 126.769 89.9247 126.812C89.2075 126.846 88.9128 126.664 89.3377 125.932C89.9222 124.927 90.4625 123.9 91.1256 122.691H91.1281Z" fill="#4B978E"/>
<path id="Vector_152" d="M96.6592 85.6204C97.8945 84.9465 99.1053 84.7081 100.257 84.3189C100.886 84.1073 100.935 84.4405 100.839 84.9125C100.734 85.4233 100.628 85.9342 100.51 86.4402C100.166 87.9014 99.4139 88.1155 98.2531 87.0824C97.7398 86.6227 97.2388 86.1507 96.6592 85.6204Z" fill="#4B978E"/>
<path id="Vector_153" d="M207.487 114.603C206.17 114.883 204.984 115.387 204.215 116.552C204.043 116.812 203.788 116.929 203.601 116.613C203.265 116.044 202.545 115.606 202.87 114.779C203.233 113.854 204.93 112.764 205.952 112.794C206.59 112.811 206.762 113.008 207.487 114.606V114.603Z" fill="#D94C39"/>
<path id="Vector_154" d="M44.9782 39.2475C44.1235 40.2424 43.3351 41.1547 42.5517 42.0718C42.0924 42.6119 41.8787 42.4197 41.7191 41.8407C41.4121 40.7241 40.2799 39.3302 40.8546 38.615C41.4318 37.8949 42.9888 38.8461 44.1309 38.9507C44.3765 38.9726 44.6098 39.1137 44.9757 39.2475H44.9782Z" fill="#4B978E"/>
<path id="Vector_155" d="M42.876 149.032C44.1801 148.599 45.3344 148.217 46.4887 147.832C46.948 147.679 47.1886 147.82 47.0978 148.314C46.9062 149.341 46.695 150.365 46.4764 151.386C46.3241 152.097 45.9386 151.781 45.6438 151.525C44.7597 150.754 43.9001 149.958 42.876 149.032Z" fill="#4B978E"/>
<path id="Vector_156" d="M55.0307 76.3159C56.1654 76.3767 56.6492 77.2306 56.1777 78.2013C55.8461 78.8848 55.3009 79.3908 54.8072 79.9455C53.9894 80.865 53.2575 80.3396 52.6755 79.7484C52.0246 79.0892 52.7049 78.7486 53.1667 78.3205C53.6087 77.9118 53.9084 77.3547 54.2694 76.8633C54.4757 76.586 54.6402 76.2454 55.0307 76.3135V76.3159Z" fill="#EAB649"/>
<path id="Vector_157" d="M48.4659 19.8369C49.2199 19.7931 50.3251 21.2065 50.5216 22.3645C50.6959 23.3886 49.9419 23.8776 49.2543 24.2887C48.7999 24.5612 48.7017 24.0138 48.6796 23.6854C48.6256 22.8875 48.1982 22.3134 47.6628 21.7758C47.3976 21.5082 46.9555 21.2382 47.1888 20.8027C47.4614 20.2967 48.0042 20.0486 48.4659 19.8369Z" fill="#EAB649"/>
<path id="Vector_158" d="M57.3147 5.09189C57.2975 5.60762 57.0273 6.05766 56.627 6.27903C56.1972 6.51744 55.9516 6.00414 55.706 5.74141C55.3303 5.34002 54.8464 5.1819 54.3724 4.96539C54.0409 4.81456 53.4662 4.76348 53.535 4.29884C53.5988 3.86096 53.8837 3.40361 54.3282 3.17008C55.3794 2.62029 57.3613 3.90474 57.3147 5.09189Z" fill="#FBFAF3"/>
<path id="Vector_159" d="M197.687 9.19633C197.727 9.62448 197.538 9.80207 197.277 9.89694C196.617 10.1402 195.946 10.3518 195.619 11.0719C195.519 11.2982 195.258 11.3979 195.079 11.2154C194.779 10.9089 194.342 10.5489 194.323 10.1937C194.276 9.36418 194.927 8.88738 195.615 8.55167C196.238 8.24515 196.889 8.16244 197.429 8.73412C197.572 8.88251 197.636 9.10389 197.687 9.19876V9.19633Z" fill="#EAB649"/>
<path id="Vector_160" d="M66.0652 121.429C66.0652 121.105 66.0628 121.02 66.0652 120.932C66.0898 120.222 65.6428 119.156 66.9666 119.261C68.3051 119.368 67.8188 120.548 67.8753 121.3C67.9539 122.355 67.168 122.679 66.2617 122.742C65.8933 122.767 65.8712 122.514 65.94 122.214C66.0161 121.879 66.0505 121.536 66.0652 121.426V121.429Z" fill="#EAB649"/>
<path id="Vector_161" d="M169.545 9.8578C170.269 9.79212 170.451 10.2543 170.579 10.8041C170.763 11.5972 170.166 11.4731 169.721 11.5582C169.252 11.6458 168.781 11.7383 168.324 11.8721C167.779 12.0326 167.545 11.8356 167.396 11.3101C167.241 10.7628 167.253 10.4003 167.909 10.2689C168.459 10.157 168.999 9.9989 169.545 9.86024V9.8578Z" fill="#D94C39"/>
<path id="Vector_162" d="M197.336 51.7707C197.646 51.7172 197.722 51.9118 197.825 52.1113C198.124 52.683 198.419 53.2595 198.768 53.7996C199.082 54.2861 198.822 54.5026 198.434 54.6924C198.11 54.8529 197.768 55.2519 197.447 54.7167C197.091 54.128 196.71 53.5441 196.459 52.9092C196.15 52.1186 196.941 52.0505 197.339 51.7683L197.336 51.7707Z" fill="#D94C39"/>
<path id="Vector_163" d="M175.657 29.7859C175.638 28.6985 175.598 27.6476 175.016 26.638C174.596 25.9131 174.147 25.7428 173.425 26.0298C173.528 25.5433 173.842 25.1833 174.275 24.6797C175.011 25.9058 175.785 27.0394 176.387 28.2582C176.694 28.8785 176.09 29.3577 175.657 29.7859Z" fill="#D94C39"/>
<path id="Vector_164" d="M171.111 28.125C170.527 29.1394 169.429 29.1419 168.488 29.3219C167.373 29.5335 166.855 29.8133 167.732 30.8958C167.877 31.0758 167.86 31.3824 167.916 31.6305C167.128 30.9153 166.899 29.8814 166.31 28.9326C168.081 29.3511 169.594 28.7283 171.111 28.125Z" fill="#D94C39"/>
<path id="Vector_165" d="M167.901 31.6094C169.38 33.1201 171.07 32.6335 172.764 32.1178C170.957 33.592 168.677 33.3536 167.901 31.6094Z" fill="#D94C39"/>
<path id="Vector_166" d="M174.383 31.1299C174.076 29.9914 174.876 29.8868 175.67 29.7773C175.404 30.3806 174.97 30.8258 174.383 31.1299Z" fill="#D94C39"/>
<path id="Vector_167" d="M172.15 27.3359C172.158 28.073 171.698 28.202 171.089 28.1339C171.34 27.7325 171.728 27.5111 172.15 27.3359Z" fill="#D94C39"/>
<path id="Vector_168" d="M173.754 31.478C173.85 31.1667 174.054 31.0426 174.378 31.1277C174.289 31.4513 173.977 31.3905 173.754 31.478Z" fill="#D94C39"/>
<path id="Vector_169" d="M172.696 26.8008C172.696 27.1681 172.526 27.3676 172.141 27.3506C172.239 27.0805 172.448 26.92 172.696 26.8008Z" fill="#D94C39"/>
</g>
</g>
</g>
</g>
</g>
</g>
<defs>
<linearGradient id="paint0_linear_3815_2970" x1="12.6187" y1="171.036" x2="94.4389" y2="171.036" gradientUnits="userSpaceOnUse">
<stop stop-opacity="0"/>
<stop offset="1"/>
</linearGradient>
<linearGradient id="paint1_linear_3815_2970" x1="69.3145" y1="168.109" x2="164.918" y2="168.109" gradientUnits="userSpaceOnUse">
<stop stop-opacity="0"/>
<stop offset="1"/>
</linearGradient>
<linearGradient id="paint2_linear_3815_2970" x1="121.184" y1="164.124" x2="216.787" y2="164.124" gradientUnits="userSpaceOnUse">
<stop stop-opacity="0"/>
<stop offset="1"/>
</linearGradient>
<linearGradient id="paint3_linear_3815_2970" x1="127.813" y1="151.453" x2="223.414" y2="151.453" gradientUnits="userSpaceOnUse">
<stop stop-opacity="0"/>
<stop offset="1"/>
</linearGradient>
<clipPath id="clip0_3815_2970">
<rect width="237" height="200" fill="white"/>
</clipPath>
</defs>
</svg>
