<svg width="32" height="32" viewBox="0 0 32 32" fill="currentColor" xmlns="http://www.w3.org/2000/svg">
<path d="M11.8506 31.9336C12.5391 31.9336 13.0518 31.6259 13.4326 31.0693L31.5674 2.63672C31.8604 2.18262 31.9775 1.83106 31.9775 1.4795C31.9775 0.585936 31.3916 0 30.498 0C29.8828 0 29.5166 0.219726 29.1504 0.820316L11.7773 28.2714L2.90039 16.9922C2.50488 16.4502 2.12402 16.2158 1.52344 16.2158C0.629883 16.2158 0 16.831 0 17.7099C0 18.0908 0.146484 18.4863 0.46875 18.8818L10.21 31.04C10.6934 31.6552 11.1768 31.9336 11.8506 31.9336Z" fill="currentColor"/>
</svg>
